<?xml version="1.0" encoding="UTF-8"?>
<svg id="Layer_1" data-name="Layer 1" xmlns="http://www.w3.org/2000/svg" viewBox="0 0 659.12 659.12">
  <defs>
    <style>
      .cls-1 {
        fill: #52e17a;
        stroke-width: 0px;
      }

      .cls-2 {
        fill: none;
        stroke: #52e17a;
        stroke-miterlimit: 10;
        stroke-width: 1.64px;
      }
    </style>
  </defs>
  <g>
    <path class="cls-1" d="M247.03,87.32c-17.15,13.88-20.2,34.5-24.65,54.67-12.61,38-35.3,74.39-29.01,116.04,4.28,21.79-8.38,39.07-14.3,58.57,6.44,24.94,0,57.77,3.34,78.65-23.01,22.31-20.85,52.2-5.14,77.25,5.22,18.07-10.91,35.56,2.24,52.23,2.05,3.7,12.74,23.4,13.73,13.93-21.4-18.8-11.74-40.84-11.95-64.48-14.81-27.21-19.06-56.27,6.3-79.9,4.17-2.84,8.44-24.55,1.55-16.85.87,5.98-2.2,11.75-5.65,16.39,7.24-28.06-2-56.5.93-83.93,15.65-22.34,12.79-48.59,11.9-74.37,1.83-40.33,29.11-73.95,34.19-113.64-3.29-10.87,25.48-34.01,16.51-34.57Z"/>
    <path class="cls-1" d="M221.85,126.58c-2.07,9.2-21.63,39.91-8.88,39.92-5.31-10.62,19.67-39.87,8.88-39.92Z"/>
    <path class="cls-1" d="M242.74,111.43c-2.03,42.39-24.39,80.64-16.9,123.58,4.2,30.01-26.07,58.41-6.42,87.17,6.96,4.27-9.9-32.11.39-42.11,14.93-25.9,7.22-54.36,7.76-82.35,3.51-21.31,19.05-39.2,14.82-62.01-3.11-5.67,7.71-27.17.35-24.29Z"/>
    <path class="cls-1" d="M240.72,364.99c-7.57-21.44-11.06-42.53-9.23-65.34-.17-2.3-3.78-2.32-3.61,0-4.6,32.14,11.82,60.33,11.27,92,.21,21.23-16.03,38.83-16.2,60.73,6.73,5.97,7.84-35.32,16.76-41.98,5.93-14.14,2.59-30.61,1.02-45.41Z"/>
    <path class="cls-1" d="M253.52,461.88c-15.63-39.2,6.47-82.23-1.19-123.25-8.39-2.48.61,40.22-3.67,50.4-.95,19.17-13.23,69.26,4.86,72.84Z"/>
    <path class="cls-1" d="M466.28,229.8c-1.86-21.45-29.15-30.67-29.53-52.47.04-2.32-3.56-2.32-3.61,0,4.83,29.96,47.01,47.31,21.02,81.08-8.1,13.86-18.8,64.74-2.29,64.41-16.99-31.96,11.97-62.04,14.4-93.02Z"/>
    <path class="cls-1" d="M447.62,350.77c-12.89,7.17,7.38,50.86-12.2,65.81-14,17.76-33.36,38.01-32.35,61.97,4.58,9.79-8.83,45.43-.79,44,1.46-109.5,54.58-76.19,45.35-171.78Z"/>
    <path class="cls-1" d="M634.47,490.57c-14.16-49.49,5.75-98.67-66.02-105.46-83.16-15.44-52.47,3.42-80.33-64.37-1.41-31.7,6.1-63.12-9.01-93.79-5.23-36.3,6.26-70-14.52-103.03,1.18-31.14-74.86-97.29-100.27-83.39,6.83-4.09-41.6-9.29-48.15-11.12-25.12,11.08-54.09,20.75-65.71,47.36-1.64,3.89-18.29,14.56-9.42,14.59,17.3-10.17,17.87-36.84,39.43-39.74,29.87-23.85,47.66-15.95,81.74-11.02-14.8,4.62-12.01,21.08-12.06,33.33-32.62-5.29-80.28,20.58-90,46.93,3.29,37.39-31.37,68.24-21.5,108.07-4.98,9.6,18.92,90.79,21.1,67.39-5.95,37.45,32.41,51.82,8.89,89.4-2.42,24.22,24.61,46.27,2.67,68.36-13.28,17.02-26.27,67.12-10.3,75.29-4.26-15.99-3.78-33.03,1.16-48.8,21.2-67.52,46.26-19.4,99.66-44.18,1.46,13.91,3,38.53,14.41,47.7,10.85-.69-.63,34.7,8.79,23.91-3.21-9.55,5.58-25.78-9.81-28.09-4.17-10.78-6.54-23.6-9.75-35.13-.61-23.54,29.93-34.07,29.24-59.69-1.82-8,14.41-41.38,6.88-39.04-12.47,22.35-5.77,53.16-26.41,71.18-14.48-71.02,6.18-79.4,48.7-129.81-1.52-8.39-22.36,25.96-29.68,28.82-.1-27.25,25.76-34.27,40.01-51.86,2.58-14.84-1.29-58.14,10.73-22.09,11.41,2.84-6.28-21.22-11.65-23.23-7.78-27.2-7.4-56.5-6.27-84.8.06-2.32-3.55-2.32-3.61,0-11.63,34.43,32.72,135.55-11.69,133.5-9.78-18.07,20.57-27.67,17.51-46.81-3.06-6.71-4.46,16.26-13.67,20.58-19.02,20.6-12.72,56.08-37.31,72.58-37.56,7.22-81.49-.47-115.13-20.26-24.06-23.17-11.22-71.21-19.42-103.64,3.16-23.32,30.84-48.62,18.07-71.54,81.04-80.36,88.52-5.26,95.04-70.45,13.34-12.97-5.1,16.93,1.18,27.12,29.27-5.39,39.84,32.47,61.42,49.26,9.53,8.45,15.42,20.73,16.03,33.45,12.82-.93-10.13-37.2-20.4-42.06-16.43-15.45-25.39-48.69-53.37-43.66-8.99-79.64,106.18,23.66,100.74,58.43,23.98,32.13,3.03,69.42,15.36,105.09,11.34,24.4,8.99,50.01,5.02,75.67.51,17.8,18.82,30.69,14.35,49.46-13.84,25.97-16.66,49.42-7.11,77.66-18.92,51.91-11.86,25.14-4.56,75.93-.2,3.31-5.35,13.54,1.12,9.23,12.45-22.03-17.07-43.18-.07-63.11,19.51-27.11-14.22-60.11,10.27-86.94,48.06,17.41,141.54,5.83,127.01,82.68,17.52,73.3-6.83,51.13-5,112.38,7.46,9.22,3.74-18.43,2.46-23.07,3.69-18.24,17.1-34.64,13.22-55.16ZM406.42,266.43c.24-.77.5-1.54.76-2.31.23,14.85,19.26,5.86,23.87-1.73-7.01,12.16-23.35,15.9-31.69,27.67,2.74-7.71,4.59-15.8,7.05-23.63ZM263.18,297.72c30.58,16.96,108.35,41.46,130.43,4.93-1.31,11.22-5.02,21.02-12.9,29.05-32.36,26.98,7.98,78.78-19.83,101.2-68.97,27.2-104.8-8.36-78.72-76.26-5.25-19.98-24.73-35.86-18.99-58.92ZM244.35,224.41c1.24,13.25-.12,26.62,1.54,39.83-5.7-17.33-2.97-36.15-4-54.17.97,4.77,2.01,9.54,2.45,14.34Z"/>
    <path class="cls-1" d="M297.29,325.63c-23.53-42.41,11.65,30.89,2.29,54.93,10.3-1.17,2.43-43.38-2.29-54.93Z"/>
    <path class="cls-1" d="M366.41,324.1c-11.55,11.77-28.59,53.16-15.27,59.34-2.2-20.39,4.29-41.35,17.82-56.79,1.52-1.74-1.02-4.3-2.55-2.55Z"/>
    <path class="cls-1" d="M377.63,489.9c-18.08,31.59-23.43,72.11-29.68,107.93-9.19-54.24-41.62-104.05-60.91-155.38,6.1,43.71,55.35,114.22,60.83,167.63,8.33-.25,1.66-38.27,10.42-48.9,10.14-22.03,5.68-49.56,21.88-68.72,1.56-1.71-.98-4.27-2.55-2.55Z"/>
    <path class="cls-1" d="M175.99,394.81c-32.27,27.83-97.49,24.42-118.29,51.37-20.71,39.73-19.28,84.79-30.96,126.3,1.26,19.98,14.71,39.17,8.73,59.39-.7,2.22,2.78,3.17,3.48.96,5.55-17.71-3.86-35.48-7.43-52.58,5.84-45.46,10.53-95.56,32.37-138.12,32.68-16.62,74.52-18.2,106.6-40.07,2.72-1.24,12.94-6.64,5.5-7.26Z"/>
    <path class="cls-1" d="M147.46,624.88c-8.12-41.74-30.2-78.52-42.91-118.59-5.41-24.6-9.06-54.06-33.31-68.65,21.83,22.31,26.74,51.8,35.43,85.93,7.4,19.03,18.77,36.49,24.54,56.13,5.57,9.14,8.88,46.75,16.25,45.17Z"/>
    <path class="cls-1" d="M602.47,456.72c-16.26,35.76-63.15,49.73-79.19,88.7-13.19-51.65,41.75-79.49,47.24-125.59-.22-2.29-3.83-2.31-3.61,0-1.34,28.37-27.31,48.8-40.07,72.85-15.68,42.16-7.13,88.77-10.69,133.91,15.21-33.77-16.47-67.05,38.57-116.72,10.85-15.9,60.69-36.29,47.75-53.15Z"/>
    <path class="cls-1" d="M608.76,523.44c-25.58,18.64-63.1,24.08-70.87,60.37-1.17,7.47-15,33.77-5.92,32.81,13.37-84.28,56-60.47,76.79-93.18Z"/>
    <path class="cls-1" d="M405.29,169.07c-7.94-17.35-56.24-5.1-46.81,2.6,28.78-22.23,44.32,5.95,46.81-2.6Z"/>
    <path class="cls-1" d="M403.17,180.79c-9.12-18.75-31.35-12.82-41.83-4.38-5.04,4.59,8.84,3.35,10.75,7.33,7.44,8.34,30.76,9.09,31.08-2.95ZM388.54,171.89c1.76,5.53-2.32,16.03-8.65,9.58-4.57-6.26,2.18-13.08,8.65-9.58ZM367.12,176.89c8.75-2.58,6.94-3.5,8.9,5.14-2.83-1.96-5.75-4.09-8.9-5.14ZM389.85,186.43c-1.27.31-2.52.36-3.74.24,5.14-1.68,6.67-7.74,6.19-12.6,8.71,6.54,8.41,10.5-2.46,12.37Z"/>
    <path class="cls-1" d="M315.76,164.43c-13.44-7.96-33.16-20.59-43.55-3.33,6.1,15.76,41.41,15.42,43.55,3.33ZM300.6,159.58c.77,7.34-3.87,12.18-11.19,7.91-7.13-9,4.52-15.55,11.19-7.91ZM276.49,160.64c11.51-6.62,4.34.08,9.23,7.92-2.83-.43-6.77-5.24-9.23-7.92ZM303.16,168.26c.85-1.92.86-4.12.61-6.23,5.83,4.03,7.01,4.55-.61,6.23Z"/>
    <path class="cls-1" d="M317.08,157.19c-11.14-15.39-30.7-16.16-45.18-6.09-2.3-.3-2.27,3.31,0,3.6,31.04-21.1,43.05,13.11,45.18,2.49Z"/>
    <path class="cls-1" d="M320.95,139.12c-12.68-4.41-34.11-22.16-45.66-11.23-1.83,3.11-16.47,14.83-7.8,14.26,12.64-14.41,47.99,13.63,53.46-3.03ZM309.97,139.9c-10.28-4.53-46.51-.92-28.93-12.7,7.42.93,46.2,15.88,28.93,12.7Z"/>
    <path class="cls-1" d="M418.85,162.52c-9.91-38.93-90.47-9.26-24.67-9.63,9.7-3.55,18.77,18.3,24.67,9.63ZM411.72,157.68c-9.58-14.3-27.57-3.12-39.12-10.41,15.16-1.53,31.59-3.84,40.34,11.65-.58-.58-1.05-1.08-1.22-1.24Z"/>
    <path class="cls-1" d="M335.58,164.66c.13-4.89-9.93-26.03-12.74-17.62,12.15,11.56,9.26,26.71,4.35,40.94,5.25,7.18,8.21-18.36,8.39-23.32Z"/>
    <path class="cls-1" d="M358.95,154.08c-17.28,6.81-18.65,37.34-7.78,47.74-.81-14.56-9.46-36.44,9.61-44.62,1.96-1.23.15-4.35-1.82-3.11Z"/>
    <path class="cls-1" d="M329.85,221.08c-6.6-7.85-16.16-8-12.47,2.92-10.97.12-2.63-14.07-.24-17.95-7.65-3.06-10.49,12.07-7.62,17.35,2.47,8.75,17.78,2.71,10.32-3.94,2.15-3.32,11.43,10.65,10.01,1.62Z"/>
    <path class="cls-1" d="M354.86,210.05c-8.16-1.49,8.13,14.59-4.26,16.99-8.14,2.05,2.39-3.88-2.56-7.48-3.09-2.02-12.64,1.17-12.15,5.02,2.41,3.2,8.11-4.05,9.82-1.7-13.93,16.16,27.9,6.03,9.15-12.84Z"/>
    <path class="cls-1" d="M366.61,255.29c-27.48-14.59-51.89-26.01-80.01-6.49,18.25,18.61,66.48,23.23,80.01,6.49ZM319.12,240.56c14.6-.29,25.39,9.44,38.13,15.03-21.69.07-40.76-10.3-63.16-6.29,8.46-2.43,16.05-8.1,25.03-8.75ZM332.47,262.47c-11.59-.34-22.78-4.35-33.1-9.41,18.22-3.39,33.48,3.79,51.2,6.52-5.8,2.07-11.93,3.08-18.1,2.88Z"/>
  </g>
  <rect class="cls-2" x=".82" y=".82" width="657.47" height="657.47"/>
</svg>