<?xml version="1.0" encoding="UTF-8"?>
<svg id="Layer_2" data-name="Layer 2" xmlns="http://www.w3.org/2000/svg" viewBox="0 0 1398.73 213.29">
  <defs>
    <style>
      .cls-1 {
        fill: #f5f5f5;
        stroke-width: 0px;
      }

      .cls-2 {
        fill: none;
        stroke: #f5f5f5;
        stroke-miterlimit: 10;
      }

      .cls-3 {
        fill: #f5f5f5;
        font-family: GillSans-Light, 'Gill Sans';
        font-size: 12.79px;
        font-weight: 300;
      }

      .cls-4 {
        letter-spacing: 0em;
      }
    </style>
  </defs>
  <path class="cls-2" d="M685.58,110.18s-1.6-20.78-4.8-23.98-20.25-14.92-12.79-33.04c7.46-18.12,20.25-22.87,31.98-23.16,11.72-.29,30.91,12.5,30.91,27.42s-13.32,26.11-17.59,32.51c-4.26,6.4-5.86,19.72-7.99,22.92s-17.05,4.26-19.19,3.2-9.06-6.93,9.06-6.93,13.86,5.33,13.61,7.33c-.42,3.4-2.69,8.72-10.28,9.22-7.59.5-18.25-1.63-16.12-4.83l.23-.23c.78-.78,1.74-1.38,2.81-1.66.74-.19,1.51-.3,2.17-.32,2.88-.1,8.28-.25,12.38-.11,5.86.19,14.9,2.49,13.58,7.2s-11.98,10.04-20.51,8.98c-8.53-1.07-10.66-4.26-10.66-4.26"/>
  <path class="cls-2" d="M691.91,109.11s2.13-28.33,0-32.82-4.26-8.75-6.4-6.62-3.86,8.42,1.8,12.73,12.06-2.01,13.12-5.77,4.26-12.99.53-11.58-5.86,14.09-.53,17.35,11.72-2.08,12.79-7.41c1.07-5.33-1.07-11.72-4.26-5.33s-5.33,22.38-4.26,28.78,1.07,11.72,1.07,11.72"/>
  <path class="cls-1" d="M.47,133.38c90.18-19.95,182.68-25.46,274.83-24.18,92.66,1.28,185.06,9.09,277.49,15.21,91.66,6.07,183.43,10.11,275.26,5.47,90.51-4.58,180.6-15.21,271.13-19.28,89.25-4.01,179.72-1.52,266.69,20.74,10.89,2.79,21.69,5.9,32.41,9.27.46.15.66-.58.2-.72-84.93-26.74-174.22-33.28-262.81-31.28-91.01,2.05-181.54,12.49-272.31,18.46-92.41,6.08-184.57,4.33-276.96-1.26-93-5.63-185.87-13.95-279.04-16.65-91.25-2.65-183.07.2-273.05,16.63-11.38,2.08-22.72,4.39-34.02,6.89-.47.1-.27.83.2.72H.47Z"/>
  <text class="cls-3" transform="translate(657.37 164.3)"><tspan x="0" y="0">Lad os op</tspan><tspan class="cls-4" x="50" y="0">l</tspan><tspan x="52.28" y="0">yse dig</tspan></text>
</svg>