<?xml version="1.0" encoding="UTF-8"?>
<svg id="Layer_2" data-name="Layer 2" xmlns="http://www.w3.org/2000/svg" viewBox="0 0 1391 213.29">
  <defs>
    <style>
      .cls-1 {
        fill: none;
        stroke: #f5f5f5;
        stroke-miterlimit: 10;
      }
    </style>
  </defs>
  <path class="cls-1" d="M13,132.79h1366H13Z"/>
  <path class="cls-1" d="M682.5,113.81s-1.5-19.5-4.5-22.5-19-14-12-31,19-21.46,30-21.73,29,11.73,29,25.73-12.5,24.5-16.5,30.5-5.5,18.5-7.5,21.5-16,4-18,3-8.5-6.5,8.5-6.5,13,5,12.77,6.88c-.39,3.19-2.53,8.18-9.65,8.65s-17.12-1.53-15.12-4.53l.21-.21c.73-.73,1.63-1.3,2.63-1.56.7-.18,1.42-.28,2.04-.3,2.7-.09,7.77-.23,11.62-.11,5.5.18,13.98,2.34,12.74,6.76s-11.24,9.42-19.24,8.42-10-4-10-4"/>
  <path class="cls-1" d="M687.5,112.81s2-26.58,0-30.79-4-8.21-6-6.21-3.62,7.9,1.69,11.95,11.31-1.88,12.31-5.42,4-12.19.5-10.86-5.5,13.22-.5,16.28,11-1.95,12-6.95-1-11-4-5-5,21-4,27,1,11,1,11"/>
</svg>