<svg width="1809" height="810" viewBox="0 0 1809 810" fill="none" xmlns="http://www.w3.org/2000/svg">
<path d="M1039.18 471.175C1008.76 442.042 1000.35 399.884 993.061 360.798C979.36 355.245 1010.7 447.192 1019.61 454.14C1021.72 457.44 1039.95 483.234 1039.18 471.175Z" fill="white"/>
<path d="M1135.2 376.094C1137.94 417.769 1115.41 452.657 1092.82 486.257C1093.93 500.059 1119.13 450.001 1122.65 446.326C1130.64 442.355 1148.07 364.586 1135.2 376.094Z" fill="white"/>
<path d="M928.706 237.239C928.706 237.239 928.678 237.253 928.664 237.267C928.664 237.267 928.664 237.267 928.664 237.281C928.734 237.253 928.833 237.198 928.72 237.239H928.706Z" fill="white"/>
<path d="M928.604 237.316C928.548 237.57 928.576 237.436 928.646 237.275C928.646 237.275 928.646 237.275 928.632 237.275C928.632 237.275 928.618 237.302 928.604 237.302V237.316Z" fill="white"/>
<path d="M928.604 237.293C928.604 237.293 928.604 237.293 928.618 237.293C928.618 237.293 928.604 237.293 928.59 237.307C928.59 237.307 928.59 237.321 928.59 237.336C928.59 237.336 928.59 237.321 928.59 237.307L928.604 237.293Z" fill="white"/>
<path d="M1436.74 609.681C1427.26 581.715 1416.45 554.151 1408.31 525.795C1400.68 505.931 1402.43 482.94 1392.05 465.208C1327.76 427.531 1257.69 398.089 1183.64 383.482C1180.99 382.892 1179.86 386.822 1182.51 387.412C1213.66 394.293 1244.68 402.005 1274.52 413.125C1314.1 428.563 1352.93 447.141 1389.33 468.401C1322.55 451.701 1254.89 434.908 1185.53 433.352C1188.6 347.669 1142.6 392.656 1155.67 297.624C1159.15 301.34 1165.08 309.28 1170.08 303.352C1179.51 304.519 1180.01 302.305 1182.05 293.868C1183.49 292.071 1185.58 295.545 1187.75 294.485C1194.15 282.481 1207.15 276.257 1219.91 270.422C1223.08 261.382 1200.56 264.199 1199.9 254.514C1208.34 238.821 1208.55 219.694 1212.16 202.431C1213.08 194.772 1213.2 184.471 1208.11 177.778C1204.69 151.622 1206.79 124.138 1197.39 99.0825C1188.25 78.3457 1168.11 65.2411 1154.01 47.9649C1143.92 35.1688 1135.12 20.9642 1121.13 11.6287C1086.95 -9.72508 1033.66 2.72234 997.277 14.2174C958.227 37.6502 932.124 74.7376 921.719 117.539C913.59 138.276 921.286 160.957 914.694 181.694C901.216 189.192 912.599 263.836 933.897 259.142C934.302 259.088 934.638 258.954 934.917 258.766C934.973 267.981 934.261 277.209 931.817 286.438C932.836 295.196 919.177 307.054 925.532 313.693C931.286 313.693 933.702 322.318 939.847 320.145C941.914 318.763 943.562 318.468 945.531 320.212C964.791 315.102 945.308 365.374 943.925 375.166C941.076 393.864 948.436 412.186 950.643 430.643C956.327 456.302 948.492 483.571 959.079 508.278C935.252 499.747 908.13 508.305 884.554 514.354C896.747 451.808 896.943 380.45 951.174 335.57C951.998 322.626 927.375 355.354 924.847 358.761C886.733 347.333 847.502 377.956 811.008 387.895C778.089 396.211 740.226 397.592 714.612 421.669C669.571 476.448 640.688 542.522 602.295 601.768C600.94 604.048 604.613 606.1 605.968 603.82C623.664 574.016 641.359 544.212 659.054 514.408C683.286 479.332 696.973 432.239 737.405 410.992C694.501 451.057 689.766 515.736 690.381 570.193C690.115 573.52 690.925 586.799 695.297 579.864C693.314 520.47 695.674 438.1 755.143 404.997C802.6 389.706 853.06 387.023 902.85 388.539C915.909 380.303 836.818 385.252 830.728 385.172C860.099 373.02 890.253 356.535 923.339 360.814C889.191 405.788 891.901 464.403 879.834 516.768C880.895 523.327 909.47 509.78 917.152 510.974C1001.3 489.835 942.92 582.144 928.493 618.427C890.574 711.689 970.587 549.979 965.755 526.761C991.816 575.867 1073.23 609.95 1114.1 558.336C1111.45 578.777 1117.54 598.133 1122.43 617.729C1125.39 636.669 1122.08 655.863 1123.34 674.896C1122.67 679.94 1130.12 715.216 1134.84 703.024C1121.51 677.324 1130.52 647.936 1127.07 620.6C1126.79 603.511 1101.69 555.103 1131.62 554.527C1149.77 553.856 1168.07 557.571 1184.38 565.217C1185.67 565.82 1187.76 565.123 1187.58 563.46C1182.62 521.557 1183.96 479.332 1185.44 437.282C1255.64 438.999 1323.93 456.396 1391.56 472.988C1389.19 503.369 1407.61 531.563 1399.63 562.252C1388.79 611.546 1381.49 661.523 1382.19 712.037C1382.19 714.653 1386.42 714.666 1386.43 712.037C1386.57 680.382 1388.31 648.66 1393.24 617.34C1397.4 588.22 1408.28 559.409 1405.08 529.739C1421.15 584.706 1447.29 637.514 1452.68 694.935C1466.29 701.602 1440.06 619.473 1436.74 609.641V609.681ZM1178.74 209.741C1180.17 196.06 1192.16 184.015 1206.59 183.331C1211.37 204.684 1203.53 228.104 1198.41 248.76C1195.71 253.388 1190.75 259.021 1185.54 262.321C1185.54 259.209 1184.91 256.084 1184.02 253.106C1183.73 252.167 1182.97 251.724 1182.18 251.684C1182.09 251.657 1182.01 251.63 1181.93 251.617C1180.44 251.416 1178.77 251.496 1177.86 252.851C1176.97 254.192 1177.48 255.775 1178.69 256.741C1179.17 257.13 1179.41 257.197 1179.63 257.532C1179.9 257.935 1179.96 258.136 1180.07 258.726C1180.12 259.008 1180.15 259.437 1180.15 259.933C1180.15 260.604 1180.12 261.288 1180.04 261.959C1179.9 262.965 1179.62 263.971 1179.27 264.936C1174.7 265.714 1170.57 263.528 1168.31 255.936C1163.11 252.972 1164.12 260.926 1169.48 265.875C1169.24 266.278 1169.15 266.774 1169.3 267.364C1169.3 267.404 1169.34 267.445 1169.36 267.485C1169.44 270.677 1170.26 273.802 1173.57 275.211C1176.52 276.472 1180.01 275.922 1182.11 273.48C1183.46 271.898 1184.33 269.953 1184.86 267.941C1188.46 266.278 1192.46 263.152 1196.77 257.935C1199.96 264.588 1208.43 265.62 1214.68 268.437C1204.62 274.218 1190.11 278.363 1186.41 290.18C1179.68 285.928 1177.25 293.949 1176.45 298.818C1173.14 301.42 1170.86 296.551 1165.74 301.34C1161.9 298.053 1155.24 294.016 1157.48 288.45C1163.25 255.842 1172.51 223.476 1174.16 190.386C1181.95 184.404 1193.2 167.584 1204.48 179.776C1185.07 176.007 1165.21 218.835 1178.76 209.755L1178.74 209.741ZM988.087 24.8675C1007.9 9.22773 1034.9 8.65096 1059.26 6.08905C1093.42 -1.44915 1126.16 11.7896 1143.6 41.1779C1194.27 96.7486 1200.68 96.373 1203.53 173.673C1192.33 167.369 1180.29 176.49 1174.22 185.41C1170.7 58.8564 1108.35 -45.726 970.559 41.2584C976.201 35.598 981.774 29.8169 988.087 24.8541V24.8675ZM1024.26 19.6632C1125.46 -9.83237 1159.84 79.1505 1168.01 158.624C1175.33 211.042 1156.7 262.415 1148.06 313.72C1138.85 358.976 1059.78 407.397 1021.44 366.179C1001.26 356.038 978.394 347.561 968.729 325.966C949.386 290.783 934.763 251.335 936.998 211.042C951.788 130.228 912.752 48.5685 1024.25 19.6498L1024.26 19.6632ZM955.35 56.3884C954.386 57.5822 953.604 59.5405 952.319 59.5271C953.325 58.4809 954.33 57.4346 955.35 56.3884ZM949.107 63.0011C948.353 65.1606 947.612 67.3201 946.886 69.4931C946.383 68.9297 945.601 68.5944 944.889 68.7017C946.132 66.6897 947.557 64.8119 949.107 63.0011ZM928.953 109.505C926.579 116.144 916.9 178.502 927.962 169.73C925.727 138.705 931.174 107.251 943.981 78.6677C929.554 113.233 941.858 149.503 936.607 184.806C933.087 183.854 929.526 183.062 925.909 182.486C923.507 182.097 921.104 181.828 918.674 181.56C926.23 158.087 916.942 132.401 928.953 109.505ZM933.911 255.064C913.381 252.449 913.674 206.012 913.842 189.984C914.694 180.581 929.652 188.414 935.853 188.83C931.97 204.215 932.71 219.452 933.716 234.609C932.445 233.59 930.951 232.852 929.261 232.919C928.409 232.946 927.585 233.187 926.872 233.563C926.523 232.758 926.23 231.926 925.965 230.961C925.406 228.922 925.224 227.406 925.266 225.247C925.294 224.187 924.275 223.168 923.143 223.208C921.97 223.262 921.048 224.107 921.021 225.247C920.923 229.834 922.194 234.394 924.638 238.338C925.727 240.082 928.423 239.317 928.576 237.386C928.576 237.386 928.576 237.345 928.604 237.319C928.604 237.319 928.604 237.319 928.604 237.332C928.604 237.332 928.604 237.332 928.604 237.319C928.604 237.319 928.604 237.319 928.604 237.292C928.604 237.292 928.604 237.292 928.618 237.278C928.618 237.278 928.618 237.278 928.618 237.265C928.618 237.265 928.618 237.265 928.618 237.278C928.618 237.278 928.646 237.278 928.646 237.265C928.646 237.265 928.646 237.265 928.66 237.265C928.674 237.265 928.688 237.251 928.702 237.238C928.814 237.184 928.912 237.131 928.939 237.117C929.051 237.091 929.149 237.05 929.261 237.023C929.261 237.023 929.261 237.023 929.275 237.023C929.317 237.023 929.456 237.023 929.568 237.023C929.666 237.037 929.805 237.064 929.833 237.077C929.875 237.077 930.155 237.211 930.182 237.211C930.322 237.278 930.462 237.359 930.587 237.439C930.615 237.453 930.783 237.573 930.867 237.627C930.937 237.694 931.104 237.815 931.118 237.842C931.272 237.976 931.411 238.11 931.565 238.257C931.858 238.539 932.124 238.834 932.389 239.129C932.794 239.585 933.437 239.76 934.065 239.706C934.414 244.884 934.735 250.048 934.875 255.198C934.61 255.104 934.289 255.051 933.925 255.104L933.911 255.064ZM953.786 316.04C951.719 313.505 949.833 316.564 947.515 316.523C944.582 314.578 941.788 314.27 938.674 316.242C934.68 316.067 932.431 310.42 928.06 309.964C935.504 296.162 935.615 281.26 939.344 266.559C943.423 281.26 949.037 295.545 955.573 309.401C952.124 309.401 954.051 313.935 953.786 316.027V316.04ZM966.243 518.579C961.258 500.23 954.819 481.304 957.556 461.292C958.199 435.136 949.316 409.986 947.347 384.112C948.688 384.488 950.559 383.428 950.224 381.644C948.101 359.003 961.258 337.381 957.948 314.35C970.21 353.088 1011.84 362.745 1041.75 385.065C1084.52 392.495 1136.19 361.028 1150.31 321.795C1150.93 357.286 1151.56 392.764 1152.19 428.255C1154.66 431.273 1155.88 429.234 1156.39 424.687C1156.48 425.613 1156.59 426.538 1156.73 427.45C1158.07 440.032 1160.39 453.338 1154.33 465.168C1144.16 481.116 1142.08 499.948 1133.31 516.433C1127.08 526.976 1118.74 536.727 1117.09 549.108C1077.46 607.656 990.252 573.251 966.257 518.579H966.243ZM1155.61 382.395C1159.43 391.999 1157.54 402.327 1156.62 412.562C1156.26 400.154 1154.83 385.091 1155.61 382.395ZM1147.9 551.039C1138.34 550.637 1126.31 548.263 1118.2 554.191C1124.31 536.861 1136.98 521.087 1143.66 503.382C1146.88 484.563 1160.42 469.165 1162.48 450.306C1157.5 425.961 1168.08 397.941 1156.6 375.877C1153.95 372.885 1155.99 367.265 1155.25 363.228C1203.24 395.299 1169.58 505.099 1182.96 560.147C1171.83 555.385 1160.01 552.3 1147.88 551.039H1147.9Z" fill="white"/>
<path d="M1154.28 152.989C1141.4 123.829 1102.34 120.033 1074.53 121.388C1072.48 121.656 1072.24 124.406 1073.85 125.21C1071.71 138.382 1085.22 140.823 1095.78 138.623C1131.05 129.368 1154.02 162.606 1154.28 152.989ZM1123.5 134.988C1110.33 127.947 1078.95 145.8 1078.09 125.398C1100.48 125.318 1125.54 126.31 1142.14 142.634C1136.45 139.093 1130.12 136.477 1123.5 134.988Z" fill="white"/>
<path d="M1023.8 117.108C993.958 111.434 949.266 124.834 945.09 157.75C945.09 159.883 947.883 160.366 949.042 158.783C970.872 120.931 1029.56 154.289 1023.26 121.065C1025.49 120.944 1026.28 117.564 1023.8 117.108ZM1019.31 128.228C1010.31 142.325 973.721 122.353 950.662 150.547C962.087 127.088 993.525 117.242 1018.9 120.435C1019.24 122.983 1019.82 125.652 1019.29 128.228H1019.31Z" fill="white"/>
<path d="M1021.16 168.133C985.688 138.772 929.222 188.575 974.278 165.504C958.579 178.662 951.024 180.594 976.973 183.156C984.682 185.53 1026.01 177.509 1021.16 168.12V168.133ZM998.774 174.907C991.875 183.813 979.585 169.689 987.909 164.82C993.467 167.945 1002.55 162.312 998.774 174.907ZM976.498 178.957C973.118 178.354 969.725 177.643 966.303 177.442C971.498 173.619 975.772 168.616 981.554 165.517C980.339 170.52 981.722 176.422 986.107 179.601C982.909 179.789 979.738 179.534 976.498 178.957ZM1005.31 174.638C1004.58 174.893 1003.84 175.148 1003.12 175.403C1004.26 171.567 1004.39 166.429 1000.8 163.76C1006.58 164.994 1012.11 167.248 1017.1 170.4C1013.19 171.848 1009.26 173.27 1005.31 174.652V174.638Z" fill="white"/>
<path d="M1141.24 171.806C1125.04 145.007 1096.31 153.779 1074.88 167.889C1073.61 169.486 1071.05 172.986 1074.18 174.153C1095.24 181.517 1119.51 179.881 1138.26 174.985C1140.06 177.171 1143.05 173.979 1141.26 171.806H1141.24ZM1111.08 165.81C1120.97 176.97 1087.13 176.031 1101.29 161.612C1104.39 161.585 1107.36 162.135 1110.23 163.087C1109.85 164.013 1110 165.166 1111.08 165.81ZM1093.86 163.315C1094.12 163.195 1094.39 163.087 1094.65 162.98C1092.36 166.414 1093.45 171.444 1096.22 174.18C1090.37 173.308 1084.56 172.021 1078.91 170.666C1083.73 167.849 1088.79 165.542 1093.87 163.315H1093.86ZM1114.86 175.106C1117.18 172.812 1117.95 168.936 1116.58 165.918C1120.18 167.889 1123.63 170.331 1126.93 172.852C1122.98 174.1 1118.95 174.797 1114.86 175.106ZM1131.73 171.028C1124.97 165.743 1117.64 160.418 1109.53 158.192C1119.5 156.622 1127.6 162.712 1134 169.995C1133.26 170.371 1132.49 170.693 1131.73 171.028Z" fill="white"/>
<path d="M1025.91 150.495C1024.35 148.375 1020.66 150.401 1022.25 152.547C1031.85 162.768 1029.87 177.683 1032.56 188.816C1041.28 180.393 1032.37 160.058 1025.93 150.495H1025.91Z" fill="white"/>
<path d="M1066.02 151.015C1064.02 157.279 1059.54 162.457 1057.13 168.56C1055.14 171.886 1050.53 198.337 1058.37 189.9C1053.15 179.854 1078.59 141.975 1066.02 151.015Z" fill="white"/>
<path d="M1083.78 230.047C1083.08 226.023 1066.02 212.784 1069.79 222.764C1083.1 228.089 1089.28 249.214 1068.15 243.232C1058.53 238.564 1052.37 245.942 1044.73 249.939C1037.37 252.179 1033.57 245.311 1028.48 241.877C1022.61 240.469 1015.36 246.035 1010.43 240C1003.13 231.603 1016.51 227.686 1018.94 220.819C1019.76 218.31 1015.67 217.237 1014.84 219.732C1013.61 223.448 1008.98 225.272 1006.55 228.196C997.526 242.642 1015.15 249.536 1027.23 245.968C1031.6 250.314 1036.24 255.063 1043.15 254.298C1050.86 254.204 1054.26 245.298 1061.91 245.875C1074.59 251.884 1094.35 245.633 1083.78 230.02V230.047Z" fill="white"/>
<path d="M1097.22 280.549C1067.5 268.732 1024.86 263.272 996.996 279.65C1013.41 295.907 1053.17 307.549 1077.74 293.626C1083.91 290.26 1089.84 285.149 1097.22 284.626C1099.93 284.438 1099.94 280.361 1097.22 280.549ZM1034.13 273.815C1049.02 276.659 1064.59 273.118 1079.19 278.174C1055.75 284.76 1031.84 279.972 1008.04 278.818C1016.52 275.814 1025.07 272.474 1034.13 273.815ZM1061.6 295.035C1043.04 298.589 1024.54 291.977 1008.78 282.909C1036.2 286.799 1063.08 285.015 1090.12 282.198C1080.51 286.289 1072.34 293.439 1061.62 295.048L1061.6 295.035Z" fill="white"/>
<path d="M1197.78 154.919C1182.28 133.686 1187.99 105.599 1177.25 82.5954C1176.17 80.1945 1172.51 82.2735 1173.59 84.6476C1178.12 89.7312 1188.05 172.732 1197.78 154.919Z" fill="white"/>
<path d="M933.019 189.203C924.639 187.097 917.223 192.02 916.175 200.256C915.98 203.314 912.642 209.846 916.999 210.946C921.594 208.384 918.577 199.692 922.53 195.548C924.751 192.154 929.443 192.811 933.019 193.267C935.742 193.335 935.77 189.217 933.019 189.19V189.203Z" fill="white"/>
<path d="M1204.55 192.424C1203.55 190.024 1199.46 191.07 1200.46 193.511C1203.45 200.7 1201.06 208.359 1198.56 215.334C1196.1 222.188 1193.46 228.975 1190.74 235.736C1186.89 234.247 1182.59 233.724 1178.66 235.333C1174.65 236.983 1171.79 240.551 1171.61 244.776C1171.5 247.392 1175.73 247.392 1175.85 244.776C1175.98 242.053 1178.16 239.773 1180.77 238.888C1184.12 237.748 1187.81 238.7 1190.84 240.229C1192.15 240.886 1193.45 240.269 1193.95 239.008C1197.15 231.148 1200.25 223.248 1203.06 215.254C1205.6 207.97 1207.64 199.842 1204.55 192.411V192.424Z" fill="white"/>
<path d="M1040.71 667.622C1036.11 650.073 1031.4 632.217 1023.57 615.791C1029.32 617.604 1015.09 570.348 1016.11 569.362C1013.79 553.59 1007.49 537.78 991.029 532.811C982.754 521.256 995.283 500.316 979.018 490.611C945.044 482.978 954.699 468.217 955.649 440.569C955.378 426.942 949.237 414.746 943.071 402.945C932.811 375.926 936.991 345.701 932.946 317.424C933.218 291.749 905.915 279.861 900.218 256.32C884.371 182.687 890.056 191.701 841.802 134.063C822.108 80.6537 777.085 36.5553 718.793 30.1674C713.502 28.478 694.203 27.96 702.404 33.3244C759.019 33.3614 812.107 70.9979 832.134 123.766C840.31 147.874 862.618 161.772 875.825 182.477C892.449 211.371 886.369 248.329 905.138 276.322C938.977 304.611 927.582 349.474 934.303 388.294C937.497 408.321 953.577 424.55 951.481 445.773C942.047 506.815 967.364 474.531 983.346 504.225C986.404 522.045 977.341 534.821 999.969 542.232C1015.46 559.99 1013.56 587.773 1020.39 609.539C991.67 555.452 926.114 543.268 880.401 508.529C862.433 496.567 850.138 471.522 827.189 469.413C824.55 466.552 811.022 464.85 818.113 470.646C853.739 480.832 830.408 525.831 806.398 536.325C771.499 554.823 727.499 558.917 689.369 549.249C684.362 549.545 653.94 530.628 659.563 541.381C704.685 565.724 762.916 563.369 808.075 540.247C829.705 528.445 852.592 498.43 833.873 475.061C857.106 487.158 871.324 511.884 895.236 523.673C850.163 602.041 747.674 626.396 668.59 591.695C670.785 576.206 661.697 561.186 654.039 548.965C669.971 500.452 623.061 458.388 630.793 410.233C666 441.21 696.213 445.81 734.466 416.275C753.507 402.501 777.221 396.322 795.348 381.241C791.069 413.118 797.642 477.305 832.097 490.833C834.662 491.758 835.76 487.689 833.219 486.764C799.344 470.103 801.194 422.651 797.42 390.107C801.749 373.965 813.735 360.597 810.751 342.531C832.307 341.68 826.35 315.352 824.168 303.131C841.913 284.325 855.404 256.197 853.382 229.918C853.11 217.536 835.883 201.123 827.473 217.006C825.598 234.838 808.223 234.887 803.117 218.745C800.318 208.769 799.837 198.089 794.522 188.927C782.61 171.477 775.506 154.669 773.879 133.804C769.045 125.492 758.575 123.963 751.04 119.006C729.373 103.085 708.397 81.7512 679.109 84.3409C645.369 92.2086 713.564 25.9623 696.682 31.1293C629.609 119.597 683.82 65.609 730.668 108.684C738.782 115.417 746.798 122.273 756.491 126.639C767.528 129.685 773.385 137.885 771.659 149.292C773.25 169.751 790.958 183.932 795.533 203.417C797.815 213.146 797.95 224.849 806.694 231.397C816.004 238.944 828.829 234.16 830.013 221.951C840.939 226.736 842.887 235.59 842.616 247.675C853.086 258.083 843.455 211.691 830.63 220.138C832.405 213.578 839.471 213.529 843.504 218.091C860.707 242.299 838.251 281.181 820.998 300.085C819.05 294.067 811.429 298.803 814.919 303.649C802.143 306.498 806.04 321.691 805.941 331.383C818.396 386.223 752.52 394.399 719.804 420.579C692.736 440.889 661.302 431.9 638.205 410.418C612.468 393.819 591.146 370.808 585.412 339.855C558.344 249.5 540.463 159.478 619.177 90.0259C629.905 79.9138 645.332 81.2703 658.86 83.1817C660.587 82.6885 661.906 81.258 662.683 79.5562C664.816 61.4038 676.186 44.8916 692.193 36.1607C697.829 25.432 640.572 34.3479 635.886 39.6136C605.106 59.6404 572.378 79.9878 546.937 106.55C534.519 130.116 537.503 158.788 518.932 180.085C504.799 201.986 512.79 231.841 488.016 246.849C468.865 275.015 506.797 296.004 473.625 327.326C462.896 340.398 472.996 356.478 468.137 371.005C462.526 389.121 450.429 405.386 449.96 424.747C450.638 452.851 436.42 479.229 444.534 507.863C444.448 516.779 436.925 522.797 433.633 530.566C426.9 546.474 432.079 564.688 425.333 580.571C421.646 588.476 416.923 596.11 416.43 605.075C414.679 623.276 423.015 641.614 417.478 659.556C414.543 668.966 408.982 678.165 411.411 688.351C412.04 690.99 416.109 689.868 415.48 687.229C413.347 678.251 418.699 669.521 421.363 661.258C426.9 644.487 420.45 627.235 420.401 610.205C420.179 592.41 434.619 578.487 433.398 560.249C433.904 547.88 434.064 534.549 442.08 524.363C452.747 512.969 447.037 498.06 446.186 484.408C444.707 464.135 456.952 445.477 454.251 425.203C454.695 409.764 462.292 395.768 468.68 381.919C477.275 367.614 471.047 352.076 473.353 337.068C477.953 324.391 490.889 315.784 492.64 301.861C491.197 267.677 473.353 261.24 506.6 234.184C514.677 213.726 513.666 189.975 528.809 171.86C545.593 151.056 536.751 119.721 557.024 101.334C595.759 74.3275 632.853 30.3524 684.276 36.1483C670.218 46.0631 660.747 61.7984 658.54 78.9396C639.376 74.8455 618.905 78.8779 607.93 96.4261C590.259 116.884 569.96 136.541 564.177 164.09C559.713 149.638 557.468 192.663 553.226 195.623C548.503 211.099 531.757 222.222 533.865 239.524C550.957 284.597 533.051 306.276 504.405 339.35C485.044 381.204 535.136 395.768 498.806 469.055C497.277 472.126 492.246 483.619 499.546 478.279C537.417 394.3 501.211 402.624 505.243 346.847C520.868 320.827 551.857 298.384 544.409 263.904C542.374 253.422 535.986 242.521 538.354 231.595C543.681 217.031 556.075 205.797 559.602 190.197C555.68 250.82 571.379 375.494 627.944 408.149C615.193 454.22 663.275 496.617 651.252 544.032C648.736 556.451 637.576 562.962 630.251 572.198C616.871 601.005 651.782 629.27 630.818 667.387C637.539 684.232 645.098 622.783 639.401 617.912C625.182 580.793 628.006 581.792 652.09 553.355C685.078 601.203 639.425 600.87 662.51 631.933C675.73 652.91 641.226 653.909 661.845 691.409C674.398 697.057 646.368 667.646 669.244 647.792C675.151 634.745 658.811 625.669 659.033 613.3C660.944 606.431 667.64 601.338 668.195 593.902C747.686 635.238 853.838 603.089 898.824 525.855C961.383 558.374 1021.32 582.754 1034.42 660.543C1034.86 663.786 1038.12 675.649 1040.66 667.658L1040.71 667.622ZM809.887 318.225C809.32 313.083 811.133 308.311 816.756 307.435C821.257 315.29 824.476 338.869 810.492 336.698C810.146 330.545 809.69 324.391 809.887 318.225Z" fill="white"/>
<path d="M635.454 189.05C615.23 179.74 587.385 181.651 572.858 200.864C568.406 203.454 562.696 220.558 571.39 217.229C577.556 208.609 587.089 198.25 598.15 197.609C611.53 205.575 645.64 218.092 635.466 189.05H635.454ZM628.326 203.577C601.689 199.458 594.771 181.947 571.859 209.583C580.096 195.599 595.819 185.524 612.43 188.273C619.016 188.754 625.514 189.938 631.878 191.702C633.246 196.129 634.517 203.146 628.314 203.565L628.326 203.577Z" fill="white"/>
<path d="M741.603 202.613C718.74 197.36 703.658 203.02 690.808 222.221C688.601 223.762 690.697 227.413 692.929 225.859C699.884 221.296 702.141 212.134 709.503 208.101C714.017 201.997 750.593 210.493 741.603 202.613Z" fill="white"/>
<path d="M758.13 219.027C736.352 211.184 711.676 210.802 694.954 228.892C692.722 230.409 694.831 234.059 697.087 232.53C707.31 230.606 719.507 238.733 730.815 235.108C739.348 232.333 751.766 231.026 756.822 223.035C759.486 224.034 760.867 219.816 758.142 219.027H758.13ZM723.946 218.139C727.608 217.757 731.246 217.818 734.86 218.188C734.292 222.554 732.541 229.016 728.065 230.569C722.676 229.201 717.422 225.156 718.212 219.187C720.098 218.682 722.022 218.336 723.958 218.127L723.946 218.139ZM714.216 230.582C710.418 229.768 706.632 228.88 702.846 227.98C706.275 225.008 709.888 222.171 714.155 220.544C713.538 225.057 716.473 229.201 720.222 231.482C718.212 231.309 716.214 231.001 714.216 230.569V230.582ZM749.115 224.428C744.577 226.389 739.99 228.288 735.229 229.694C737.375 226.401 738.645 222.652 739.003 218.743C743.627 219.495 748.203 220.642 752.728 221.888C752.149 223.257 750.398 223.873 749.103 224.428H749.115Z" fill="white"/>
<path d="M643.792 222.346C622.742 202.64 593.59 209.83 580.037 234C578.2 235.998 581.184 238.982 583.021 236.984C613.419 188.446 644.397 236.614 643.792 222.346Z" fill="white"/>
<path d="M646.307 236.76C630.88 213.293 603.96 223.121 585.807 236.995C583.279 237.92 584.377 242.001 586.93 241.052C604.7 240.287 624.381 249.031 642.706 239.72C644.433 239.843 647.812 239.609 646.307 236.748V236.76ZM624.27 226.87C624.344 231.384 623.814 240.053 617.364 238.265C610.237 238.635 610.681 232.827 610.668 227.598C614.997 226.192 619.843 225.995 624.27 226.87ZM600.359 232.938C602.381 231.507 604.465 230.237 606.648 229.201C606.636 232.691 605.933 236.995 608.954 239.498C604.379 238.647 599.878 237.352 595.278 236.551C596.992 235.379 598.657 234.158 600.359 232.95V232.938ZM625.713 239.634C627.402 236.033 628.488 231.976 628.475 228.03C633.013 229.645 637.157 232.383 640.413 236.033C635.603 237.55 630.695 238.869 625.713 239.634Z" fill="white"/>
<path d="M703.77 285.3C703.523 276.458 690.871 276.816 689.761 269.121C689.872 266.408 685.655 266.408 685.544 269.121C685.433 279.985 708.098 281.317 696.852 294.006C688.528 282.698 676.159 305.98 668.994 303.958C662.829 303.008 650.99 288.543 647.093 296.645C647.389 298.113 645.576 299.26 644.393 298.396C640.52 293.229 645.922 285.596 649.819 281.81C651.631 272.66 641.063 283.746 640.631 287.483C634.576 295.313 644.38 310.358 650.941 298.791C675.567 313.626 668.218 310.037 689.995 295.856C694.213 305.734 706.31 292.514 703.77 285.3Z" fill="white"/>
<path d="M734.146 328.609C714.267 331.951 695.288 317.042 676.31 327.29C657.269 320.409 646.676 332.222 630.028 337.661C621.075 344.48 662.128 361.646 669.12 359.833C694.339 360.783 716.708 348.328 735.194 332.531C736.908 331.544 736.279 328.4 734.133 328.597L734.146 328.609ZM648.403 333.788C657.886 326.18 668.232 331.803 678.591 331.113C693.142 322.53 707.842 332.691 723.01 333.036C715.192 335.157 707.151 331.569 699.308 333.172C690.392 335.478 682.019 340.497 672.684 336.736C660.229 334.837 648.921 346.12 636.614 340.312C640.732 338.647 644.469 336.008 648.39 333.801L648.403 333.788ZM706.35 347.255C685.928 356.713 660.981 359.969 641.793 345.96C655.284 346.996 667.184 337.118 680.922 342.495C694.585 338.697 707.484 336.169 721.777 337.513C717.559 342.088 712.121 345.097 706.35 347.267V347.255Z" fill="white"/>
<path d="M742.491 324.021C741.085 311.59 716.336 301.749 735.326 318.743C740.752 326.351 739.976 336.722 739.926 345.65C747.338 354.418 743.687 327.609 742.491 324.021Z" fill="white"/>
<path d="M442.227 458.143C346.952 463.643 325.013 572.631 281.359 638.655C279.83 640.912 283.48 643.021 284.997 640.789C338.739 554.922 340.416 486.555 442.227 458.143Z" fill="white"/>
<path d="M776.888 396.594C767.417 435.352 757.885 474.469 740.953 510.774C747.871 525.325 771.98 433.046 774.533 423.625C774.533 419.272 786.445 389.552 776.876 396.594H776.888Z" fill="white"/>
<path d="M677.395 471.57C674.978 466.982 642.632 413.265 642.656 428.877C648.785 431.208 678.838 487.318 677.395 471.57Z" fill="white"/>
<path d="M832.948 271.909C829.31 269.837 825.08 268.974 820.936 269.405C815.424 251.475 824.722 254.2 825.092 240.524C824.476 237.885 820.406 238.995 821.023 241.646C821.849 245.223 818.433 248.367 816.731 251.167C811.86 262.043 820.443 268.123 812.551 280.652C816.534 289.95 817.286 272.945 821.664 273.536C824.87 272.168 837.362 279.702 832.935 271.909H832.948Z" fill="white"/>
<path d="M768.251 185.25C756.61 167.369 652.714 168.442 693.335 198.778C713.448 203.415 731.601 177.642 752.219 189.875C759.15 193.821 765.525 199.037 771.469 204.315C780.287 205.437 772.641 188.247 768.251 185.25ZM749.987 184.165C730.084 172.314 694.729 213.946 688.254 184.584C712.055 175.077 758.805 169.675 770.902 198.273C764.354 193.044 757.781 187.433 749.987 184.165Z" fill="white"/>
<path d="M548.119 563.615C530.965 556.166 527.968 530.923 547.81 524.942C550.412 524.202 549.302 520.133 546.688 520.873C528.499 525.435 523.43 550.901 538.598 561.999C541.089 563.935 547.218 565.97 545.862 570.114C531.68 582.852 516.771 601.609 532.802 620.008C500.629 642.809 504.279 681.654 517.647 714.21C520.014 723.471 513.133 733.201 518.276 741.957C519.681 744.275 523.319 742.166 521.914 739.823C525.07 690.496 488.433 661.097 537.341 621.537C513.392 579.609 559.267 583.16 548.119 563.615Z" fill="white"/>
<path d="M255.004 86.7577C235.152 102.825 231.622 126.694 226.47 150.042C211.873 194.03 185.608 236.154 192.889 284.366C197.844 309.59 183.189 329.593 176.336 352.165C183.791 381.035 176.336 419.038 180.202 443.208C153.567 469.033 156.067 503.633 174.252 532.63C180.295 553.547 161.623 573.793 176.845 593.09C179.218 597.373 191.593 620.177 192.739 609.215C167.967 587.453 179.149 561.94 178.906 534.575C161.762 503.077 156.843 469.438 186.199 442.085C191.026 438.798 195.968 413.667 187.993 422.58C189 429.502 185.446 436.181 181.453 441.553C189.833 409.071 179.137 376.15 182.529 344.398C200.645 318.538 197.334 288.152 196.304 258.309C198.423 211.625 230.001 172.707 235.881 126.763C232.073 114.18 265.376 87.3943 254.993 86.7461L255.004 86.7577Z" fill="white"/>
<path d="M225.854 132.203C223.457 142.853 200.815 178.402 215.574 178.413C209.428 166.12 238.344 132.261 225.854 132.203Z" fill="white"/>
<path d="M250.039 114.667C247.689 163.736 221.806 208.013 230.476 257.719C235.338 292.458 200.298 325.333 223.044 358.625C231.101 363.567 211.584 321.455 223.496 309.879C240.778 279.898 231.853 246.954 232.478 214.554C236.541 189.886 254.53 169.177 249.634 142.773C246.034 136.209 258.558 111.322 250.039 114.655V114.667Z" fill="white"/>
<path d="M247.699 408.18C238.936 383.362 234.896 358.949 237.015 332.545C236.818 329.882 232.639 329.859 232.836 332.545C227.511 369.749 246.518 402.381 245.882 439.041C246.125 463.616 227.326 483.989 227.129 509.34C234.919 516.251 236.204 468.455 246.53 460.745C253.394 444.377 249.528 425.312 247.71 408.18H247.699Z" fill="white"/>
<path d="M262.514 520.339C244.421 474.963 270.003 425.152 261.136 377.669C251.424 374.798 261.842 424.226 256.888 436.01C255.788 458.201 241.573 516.184 262.514 520.328V520.339Z" fill="white"/>
<path d="M508.795 251.689C506.642 226.859 475.052 216.187 474.612 190.952C474.659 188.266 470.491 188.266 470.434 190.952C476.025 225.632 524.851 245.716 494.766 284.807C485.389 300.851 473.003 359.748 492.115 359.366C472.448 322.371 505.971 287.551 508.784 251.689H508.795Z" fill="white"/>
<path d="M487.198 391.719C472.276 400.019 495.74 450.593 473.075 467.898C456.869 488.457 434.459 511.898 435.628 539.633C440.93 550.966 425.407 592.221 434.713 590.566C436.403 463.812 497.893 502.371 487.209 391.719H487.198Z" fill="white"/>
<path d="M703.49 553.547C687.099 496.259 710.146 439.33 627.067 431.47C530.804 413.597 566.329 435.429 534.08 356.957C532.447 320.262 541.141 283.891 523.65 248.389C517.596 206.369 530.896 167.359 506.842 129.125C508.208 93.0778 420.186 16.5046 390.773 32.5948C398.679 27.8604 342.618 21.841 335.036 19.7227C305.957 32.5485 272.423 43.7422 258.972 74.5451C257.073 79.0481 237.8 91.3993 248.067 91.4341C268.093 79.6616 268.753 48.7892 293.71 45.4323C328.287 17.8242 348.88 26.969 388.33 32.6759C371.198 38.0238 374.428 57.0774 374.37 71.2576C336.61 65.1341 281.44 95.0804 270.189 125.582C273.997 168.864 233.876 204.575 245.301 250.681C239.536 261.793 267.202 355.777 269.726 328.689C262.838 372.04 307.242 388.675 280.016 432.176C277.215 460.212 308.504 485.737 283.107 511.307C267.734 531.009 252.698 589.004 271.184 598.461C266.253 579.951 266.808 560.226 272.527 541.972C297.067 463.812 326.076 519.515 387.89 490.83C389.58 506.932 391.363 535.431 404.571 546.046C417.13 545.247 403.841 586.214 414.746 573.724C411.03 562.669 421.205 543.881 403.39 541.208C398.563 528.729 395.82 513.889 392.104 500.542C391.398 473.293 426.75 461.104 425.951 431.447C423.844 422.186 442.632 383.547 433.915 386.255C419.48 412.127 427.236 447.792 403.344 468.651C386.582 386.441 410.497 376.74 459.717 318.387C457.958 308.675 433.834 348.438 425.361 351.748C425.245 320.204 455.18 312.078 471.675 291.717C474.662 274.538 470.182 224.416 484.096 266.146C497.304 269.433 476.826 241.582 470.61 239.256C461.604 207.77 462.044 173.853 463.352 141.094C463.422 138.408 459.243 138.408 459.173 141.094C445.711 180.949 497.049 298.002 445.641 295.629C434.32 274.712 469.452 263.599 465.91 241.443C462.368 233.676 460.748 260.265 450.086 265.266C428.069 289.112 435.362 330.183 406.897 349.283C363.419 357.64 312.567 348.739 273.627 325.83C245.775 299.009 260.639 243.4 251.147 205.86C254.804 178.865 286.846 149.579 272.064 123.047C365.873 30.025 374.532 116.958 382.079 41.4965C397.521 26.4829 376.176 61.0942 383.445 72.8898C417.327 66.6505 429.563 110.476 454.543 129.912C465.575 139.693 472.393 153.908 473.099 168.632C487.939 167.556 461.373 125.571 449.484 119.945C430.466 102.061 420.094 63.5829 387.705 69.4055C377.298 -22.7833 510.616 96.7936 504.318 137.042C532.077 174.235 507.826 217.401 522.099 258.691C535.226 286.936 532.505 316.581 527.91 346.284C528.5 366.889 549.695 381.81 544.521 403.538C528.5 433.6 525.236 460.745 536.291 493.435C514.389 553.524 522.562 522.536 531.012 581.329C530.78 585.16 524.819 597.002 532.308 592.013C546.72 566.512 512.549 542.029 532.227 518.959C554.812 487.577 515.767 449.378 544.116 418.32C599.748 438.473 707.958 425.069 691.139 514.028C711.419 598.878 683.232 573.214 685.351 644.115C693.986 654.788 689.68 622.781 688.198 617.41C692.47 596.296 707.993 577.312 703.501 553.559L703.49 553.547ZM439.506 294.09C439.784 293.198 440.085 292.307 440.386 291.416C440.652 308.606 462.681 298.199 468.017 289.413C459.903 303.489 440.988 307.818 431.334 321.443C434.505 312.518 436.647 303.153 439.495 294.09H439.506ZM273.696 330.31C309.094 349.942 399.119 378.303 424.678 336.017C423.161 349.005 418.867 360.349 409.745 369.644C372.286 400.875 418.982 460.837 386.79 486.79C306.953 518.276 265.477 477.113 295.667 398.514C289.589 375.386 267.04 357.004 273.684 330.31H273.696ZM251.899 245.449C253.334 260.786 251.76 276.263 253.682 291.555C247.083 271.494 250.244 249.708 249.051 228.849C250.174 234.371 251.378 239.892 251.887 245.449H251.899Z" fill="white"/>
<path d="M313.181 362.618C285.943 313.525 326.666 398.375 315.832 426.203C327.755 424.849 318.644 375.988 313.181 362.618Z" fill="white"/>
<path d="M393.196 360.847C379.826 374.471 360.101 422.383 375.52 429.537C372.973 405.934 380.486 381.671 396.147 363.798C397.907 361.784 394.967 358.821 393.196 360.847Z" fill="white"/>
<path d="M406.181 552.77C385.252 589.338 379.059 636.243 371.824 677.707C361.186 614.92 323.646 557.262 301.316 497.844C308.378 548.441 365.388 630.061 371.731 691.887C381.374 691.598 373.653 647.587 383.793 635.282C395.531 609.781 390.368 577.913 409.121 555.734C410.927 553.754 407.986 550.791 406.169 552.782L406.181 552.77Z" fill="white"/>
<path d="M172.767 442.699C135.412 474.914 59.9158 470.967 35.8383 502.163C11.8651 548.154 13.5204 600.314 0 648.364C1.45854 671.493 17.0278 693.706 10.1056 717.112C9.29528 719.682 13.3236 720.782 14.1339 718.224C20.5584 697.723 9.6657 677.153 5.53318 657.359C12.2934 604.736 17.7224 546.741 43.0037 497.475C80.833 478.236 129.266 476.408 166.401 451.091C169.549 449.656 181.379 443.405 172.767 442.688V442.699Z" fill="white"/>
<path d="M139.742 709.021C130.342 660.704 104.783 618.128 90.0703 571.744C83.8079 543.268 79.5828 509.166 51.5117 492.277C76.7815 518.103 82.4651 552.239 92.5244 591.747C101.09 613.776 114.252 633.987 120.931 656.722C127.379 667.302 131.21 710.838 139.742 709.009V709.021Z" fill="white"/>
<path d="M666.449 514.364C647.627 555.758 593.348 571.93 574.781 617.04C559.512 557.252 623.109 525.025 629.464 471.661C629.21 469.01 625.031 468.987 625.285 471.661C623.734 504.501 593.672 528.15 578.902 555.99C560.751 604.793 570.648 658.747 566.527 711C584.134 671.909 547.462 633.385 611.175 575.888C623.734 557.483 681.428 533.88 666.449 514.364Z" fill="white"/>
<path d="M673.73 591.596C644.12 613.173 600.688 619.47 591.693 661.478C590.339 670.125 574.33 700.569 584.84 699.458C600.317 601.898 649.664 629.46 673.73 591.596Z" fill="white"/>
<path d="M438.198 181.39C429.007 161.306 373.096 175.486 384.012 184.4C417.327 158.667 435.316 191.287 438.198 181.39Z" fill="white"/>
<path d="M435.744 194.957C425.187 173.252 399.454 180.117 387.323 189.887C381.488 195.2 397.556 193.765 399.766 198.372C408.379 208.026 435.373 208.894 435.744 194.957ZM418.809 184.654C420.846 191.056 416.123 203.21 408.796 195.744C403.505 188.498 411.319 180.603 418.809 184.654ZM394.013 190.442C404.142 187.456 402.047 186.391 404.316 196.392C401.04 194.123 397.66 191.658 394.013 190.442ZM420.325 201.486C418.855 201.844 417.408 201.902 415.996 201.763C421.945 199.819 423.717 192.804 423.161 187.178C433.243 194.748 432.896 199.332 420.313 201.497L420.325 201.486Z" fill="white"/>
<path d="M334.557 176.017C318.999 166.803 296.172 152.183 284.145 172.162C291.206 190.406 332.079 190.012 334.557 176.017ZM317.008 170.403C317.899 178.9 312.528 184.502 304.055 179.559C295.801 169.141 309.287 161.559 317.008 170.403ZM289.099 171.63C302.423 163.967 294.123 171.723 299.783 180.798C296.507 180.3 291.947 174.732 289.099 171.63ZM319.971 180.451C320.955 178.228 320.967 175.681 320.677 173.239C327.426 177.904 328.792 178.506 319.971 180.451Z" fill="white"/>
<path d="M336.087 167.638C323.192 149.823 300.55 148.932 283.788 160.588C281.126 160.241 281.161 164.42 283.788 164.756C319.719 140.331 333.622 179.931 336.087 167.638Z" fill="white"/>
<path d="M340.568 146.719C325.89 141.614 301.083 121.067 287.713 133.719C285.595 137.319 268.648 150.886 278.684 150.226C293.316 133.546 334.236 166.004 340.568 146.719ZM327.857 147.622C315.958 142.378 274.019 146.557 294.369 132.921C302.958 133.997 347.849 151.303 327.857 147.622Z" fill="white"/>
<path d="M453.892 173.806C442.42 128.742 349.167 163.087 425.335 162.659C436.563 158.549 447.062 183.842 453.892 173.806ZM445.638 168.204C434.549 151.65 413.724 164.592 400.354 156.153C417.903 154.382 436.922 151.708 447.051 169.639C446.379 168.968 445.835 168.389 445.638 168.204Z" fill="white"/>
<path d="M357.505 176.283C357.656 170.623 346.011 146.152 342.758 155.887C356.822 169.268 353.477 186.805 347.793 203.278C353.87 211.589 357.297 182.025 357.505 176.283Z" fill="white"/>
<path d="M384.559 164.038C364.557 171.921 362.971 207.262 375.553 219.301C374.616 202.446 364.603 177.119 386.678 167.65C388.946 166.226 386.851 162.614 384.571 164.05L384.559 164.038Z" fill="white"/>
<path d="M350.873 241.595C343.233 232.508 332.167 232.335 336.438 244.975C323.74 245.114 333.394 228.688 336.16 224.197C327.305 220.655 324.018 238.169 327.34 244.281C330.199 254.409 347.921 247.418 339.286 239.72C341.775 235.877 352.517 252.048 350.873 241.595Z" fill="white"/>
<path d="M379.824 228.826C370.378 227.101 389.235 245.714 374.893 248.493C365.47 250.866 377.659 244.001 371.929 239.834C368.352 237.496 357.298 241.188 357.865 245.645C360.655 249.349 367.253 240.957 369.232 243.677C353.107 262.383 401.528 250.657 379.824 228.814V228.826Z" fill="white"/>
<path d="M393.422 281.192C361.612 264.303 333.356 251.084 300.805 273.68C321.93 295.222 377.76 300.57 393.422 281.192ZM338.449 264.141C355.349 263.806 367.84 275.069 382.587 281.54C357.479 281.621 335.404 269.617 309.475 274.259C319.268 271.446 328.054 264.882 338.449 264.13V264.141ZM353.902 289.504C340.486 289.11 327.533 284.468 315.587 278.611C336.678 274.687 354.342 282.998 374.854 286.158C368.14 288.555 361.045 289.724 353.902 289.492V289.504Z" fill="white"/>
<path d="M1720.73 640.632C1719.35 508.775 1692.51 493.44 1587.97 427.426C1554.92 376.235 1593.47 317.749 1606.55 405.454C1615.53 421.753 1641.8 414.189 1646.4 434.441C1643.31 468.894 1671.92 469.467 1688.61 490.866C1701.27 488.035 1668.33 467.918 1661.43 465.892C1646.23 456.035 1656.77 433.123 1643.48 421.753C1582.88 401.391 1626.77 382.213 1582.6 349.774C1582.09 308.111 1556.75 271.682 1563.72 228.519C1522.29 165.616 1509.84 49.7781 1417.55 45.1543C1372.01 54.1944 1466.08 32.9178 1497.33 101.506C1518.12 157.162 1565.55 207.816 1559.74 268.669C1562.38 295.984 1581.66 319.884 1579.01 347.944C1576.8 366.793 1566.81 385.434 1573.04 404.527C1599.6 451.216 1592 505.993 1616.75 554.305C1617.79 556.574 1621.14 554.598 1620.11 552.341C1610.75 533.004 1606.04 512.02 1601.75 491.134C1590.13 472.09 1602.04 449.264 1589.42 430.269C1801.63 564.87 1630.14 527.697 1580.71 683.978C1579.98 686.369 1583.73 687.394 1584.46 685.003C1590.86 664.055 1601.4 644.682 1614.15 626.943C1636.89 590.063 1678.11 567.469 1699.24 530.418C1721.12 563.833 1710.18 604.544 1717 641.644C1717.49 644.096 1721.23 643.059 1720.74 640.607L1720.73 640.632Z" fill="white"/>
<path d="M1253.7 402.221C1243.25 376.601 1228.6 346.296 1251.57 322.445C1253.22 320.579 1250.49 317.822 1248.83 319.7C1218.62 348.712 1248.91 383.006 1250.11 414.36C1245.13 425.522 1230.08 422.058 1220.7 426.315C1209.69 425.974 1201.31 461.036 1211.57 452.35C1202.59 417.617 1264.93 437.222 1253.7 402.221Z" fill="white"/>
<path d="M1349.43 484.327C1333.02 447.568 1306.02 412.957 1303.64 371.648C1296.94 364.511 1300.84 384.007 1301.52 387.435C1287.77 402.99 1305.25 435.686 1303.48 456.206C1284.52 487.23 1265.1 505.92 1287.23 543.277C1285.89 560.918 1281.47 578.9 1287.11 596.541C1295.5 600.689 1285.56 577.302 1288.1 571.641C1296.13 546.888 1282.01 527.6 1280.79 503.749C1324.21 431.879 1299.49 465.356 1302.01 389.741C1310.83 424.181 1331.07 454.351 1346.07 486.279C1347.21 488.511 1350.56 486.547 1349.43 484.314V484.327Z" fill="white"/>
<path d="M1554.31 335.829C1549.86 295.814 1527.49 262.374 1511.52 226.652C1502.13 194.066 1520.32 151.916 1490.56 126.833C1462.81 110.058 1425.99 127.833 1398.02 107.85C1390.93 87.2196 1410.21 61.0264 1399.53 43.5562C1312.78 32.9423 1240.04 100.286 1208.1 175.62C1195.67 204.156 1175.45 230.349 1168.98 260.995C1179.32 289.775 1159.06 307.648 1152.99 333.768C1174.93 431.428 1158.37 398.83 1149.44 487.877C1139.71 503.346 1108.58 497.1 1108.39 520.292C1113.58 530.625 1108.72 538.543 1106.27 549.779C1101.37 550.584 1104.23 582.792 1103.69 592.039C1111.41 598.518 1104.97 562.747 1108.99 556.501C1178.37 604.593 1168.26 701.338 1201.57 772.464C1200.04 732.448 1167.43 665.3 1160.23 614.768C1161.67 615.585 1163.89 613.926 1162.87 612.084C1152.07 594.833 1152.05 573.056 1146.86 553.622C1137.04 552.292 1151.95 585.33 1151.5 594.235C1135.39 566.871 1100.86 560.515 1115.19 526.465C1100.43 495.123 1169.55 510.337 1154.13 466.344C1187.45 376.113 1148.84 384.983 1161.17 318.737C1174.92 301.304 1178.42 283.101 1172.81 261.861C1202.2 170.813 1293.87 11.141 1398.78 55.0485C1399.28 51.9253 1396.81 42.6656 1394.32 49.6439C1401.11 131.31 1353.83 86.878 1311.91 112.839C1277.23 155.795 1252.38 144.876 1234.21 204.351C1228.33 229.873 1232 255.908 1230.7 281.723C1229.1 298.632 1217.69 311.795 1210.72 326.655C1198.15 349.518 1207.75 376.455 1197.75 399.842C1193.32 409.175 1177.31 449.642 1190.56 446.043C1188.06 415.068 1213.13 388.63 1206.97 356.325C1207.2 330.62 1227.32 312.161 1233.5 288.433C1237.63 260.507 1231.05 231.825 1238.2 204.034C1248.86 179.158 1257.86 154.356 1285.55 145.877C1300.36 135.153 1307.86 115.682 1325.8 109.301C1351.76 99.9929 1387.03 122.856 1393.46 88.3786C1391.41 92.3314 1395.87 107.606 1391.08 103.799C1388.97 102.445 1387.02 105.8 1389.11 107.154C1407.28 118.854 1428.86 124.222 1450.57 123.368C1525.16 111.217 1493.75 198.202 1512.24 238.999C1473.15 274.818 1495.09 357.411 1438.21 385.605C1382.15 431.855 1286.22 376.528 1272.58 312.369C1268.92 286.639 1263.09 260.934 1261.3 235.058C1271.17 209.511 1285.57 184.172 1280.35 155.32C1280.07 152.867 1276.19 152.843 1276.47 155.32C1282.69 185.307 1264.52 210.195 1257.33 237.23C1261.58 268.083 1265.05 299.596 1272.97 329.778C1297.14 379.493 1372.69 428.622 1426.29 397.341C1493.63 370.745 1479.81 290.897 1512.55 239.645C1530.04 269.938 1545.69 301.792 1550.56 336.866C1550.96 339.331 1554.7 338.281 1554.3 335.829H1554.31Z" fill="white"/>
<path d="M1549.11 458.498C1545.41 437.758 1536.12 418.397 1534.67 397.145C1529.83 387.592 1540.92 346.295 1532.49 349.138C1518.18 406.282 1562.29 460.291 1536.49 515.923C1532.69 522.56 1524.13 565.698 1536.17 555.682C1527.62 524.182 1556.46 491.743 1549.11 458.51V458.498Z" fill="white"/>
<path d="M1509.6 583.011C1451.76 541.19 1521.58 471.65 1499.64 416.312C1489.05 408.467 1508.77 473.322 1492.13 489.633C1479.11 520.889 1473.46 566.59 1507.64 586.366C1509.83 587.562 1511.8 584.219 1509.6 583.011Z" fill="white"/>
<path d="M1476.16 373.6C1463.57 367.402 1480.95 415.775 1466.24 422.509C1407.1 446.14 1442.61 493.256 1455.15 531.393C1452.49 572.934 1421.17 506.383 1402.36 503.285C1387.51 505.81 1373.53 512.971 1359.05 517.241C1368.24 494.159 1398.67 506.359 1409.08 485.265C1413.71 477.592 1417 466.392 1426.05 462.757C1428.35 461.829 1427.35 458.072 1425.02 459.011C1416.75 462.342 1412.72 470.284 1408.79 477.762C1396.99 502.821 1363.3 493.647 1350.55 520.206C1339.31 515.643 1303.8 468.259 1299.77 477.811C1315.78 493.195 1331.13 509.568 1348.43 523.476C1339.18 544.899 1306.45 524.83 1294.28 515.424C1283.99 522.622 1343.3 548.876 1349.9 529.063C1390.97 593.869 1394.6 633.372 1389.41 708.463C1407.24 661.566 1389.48 571.531 1351.05 527.245C1364.01 516.68 1386.83 511.093 1404.05 507.408C1417.69 513.96 1454.92 576.85 1457.59 540.128C1458.04 559.465 1448.48 579.107 1431.81 589.318C1429.69 590.624 1431.63 593.979 1433.78 592.673C1459.09 577.192 1468.78 542.19 1455.29 515.863C1396.08 418.63 1490.47 459.56 1476.16 373.624V373.6Z" fill="white"/>
<path d="M1332.43 540.311C1333.54 599.273 1322.3 662.419 1321.05 718.734C1329.32 666.702 1342.12 583.266 1332.43 540.311Z" fill="white"/>
<path d="M1369.58 578.521C1362.42 564.235 1347.26 583.926 1359.95 588.769C1364.75 590.355 1373.52 581.998 1369.58 578.521ZM1360.34 582.047C1360.1 580.205 1364.02 580.668 1365.33 581.12C1364.06 582.279 1361.71 583.853 1360.34 582.047Z" fill="white"/>
<path d="M1363.58 679.562C1359.97 669.241 1349.23 681.306 1348.55 687.858C1353.36 697.459 1372.4 689.505 1363.58 679.562ZM1359.68 681.782C1359.52 683.38 1355.13 683.039 1357.2 681.855C1357.77 681.685 1360.09 680.513 1359.68 681.782ZM1361.26 686.516C1359.86 689.456 1350.78 688.761 1353.5 685.088C1355.69 687.26 1359.58 687.37 1361.84 685.271C1361.74 685.747 1361.53 686.138 1361.25 686.516H1361.26Z" fill="white"/>
<path d="M1459.59 378.565C1451.35 372.928 1458.59 406.966 1451.32 413.237C1446.57 422.924 1436.32 435.843 1430.39 445.005C1428.96 447.067 1432.33 449.007 1433.74 446.97C1452.59 418.666 1461.06 414.957 1459.61 378.577L1459.59 378.565Z" fill="white"/>
<path d="M1482.4 221.309C1446.26 166.775 1365.04 239.402 1444.41 220.406C1459.26 211.83 1481.63 235.473 1482.4 221.309ZM1466.93 216.941C1450.35 211.33 1432.61 220.248 1415.97 222.041C1416.98 195.311 1469.44 202.253 1478.82 222.944C1474.64 221.419 1471 218.735 1466.94 216.929L1466.93 216.941Z" fill="white"/>
<path d="M1369.68 205.057C1347.59 194.407 1280.43 190.246 1288.48 222.369C1306.4 200.738 1376.99 238.802 1369.68 205.057ZM1365.44 215.622C1341.43 215.22 1314.49 206.558 1291.03 216.122C1297.7 194.626 1370.27 196.224 1365.44 215.622Z" fill="white"/>
<path d="M1363.48 243.023C1352.2 236.679 1341.24 228.151 1327.99 226.761C1339.13 226.273 1349.45 230.982 1358.1 237.704C1360.14 239.168 1362.08 235.801 1360.07 234.349C1346.23 220.856 1303.55 215.378 1301.68 236.911C1298.71 238.204 1294.38 244.524 1300.59 242.865C1310.47 240.925 1320.93 250.014 1331.45 251.404C1335.06 250.66 1370.43 246.415 1363.5 243.023H1363.48ZM1329.53 230.823C1354.59 232.263 1324.8 255.711 1325.24 234.19C1325.09 231.763 1327.37 230.116 1329.53 230.823ZM1315.09 227.554C1317.29 226.651 1319.89 226.858 1322.24 226.797C1316.56 227.383 1311.12 229.945 1306.46 233.263C1309.08 230.957 1312 228.81 1315.09 227.554ZM1345.11 244.658C1331.06 253.283 1318.82 239.729 1305.13 239.107C1317.71 229.689 1320.89 228.139 1323.52 243.572C1329.46 250.672 1345.31 246.097 1343.33 235.825C1347.42 237.985 1351.38 240.364 1355.37 242.718C1351.89 242.95 1348.48 243.462 1345.11 244.658Z" fill="white"/>
<path d="M1469.45 235.545C1451.74 225.687 1428.14 222.552 1413.31 239.168C1411.6 240.986 1414.37 243.706 1416.08 241.889C1434.74 216.525 1474.1 246.707 1469.45 235.545Z" fill="white"/>
<path d="M1468.57 244.757C1454.92 236.607 1440.88 227.054 1425.3 237.754C1421.97 242.195 1409.57 240.755 1411.22 246.977C1407.54 253.821 1448.89 258.298 1454.02 253.162C1457.03 249.515 1474.33 250.527 1468.57 244.769V244.757ZM1447.49 238.547C1449.27 241.145 1447.99 244.134 1445.94 246.111C1430.25 257.298 1429.5 229.848 1447.49 238.547ZM1417.49 246.684C1421.72 245.171 1425.66 242.487 1429.76 240.426C1429.37 244.317 1430.73 248.282 1433.2 250.832C1428.06 249.027 1422.96 246.794 1417.49 246.696V246.684ZM1455.34 247.794C1452.76 248.953 1450.09 249.917 1447.37 250.6C1450.05 248.185 1452.6 244.439 1452.24 240.34C1455.15 241.694 1457.96 243.463 1460.62 245.44C1458.85 246.123 1457.1 247.001 1455.35 247.794H1455.34Z" fill="white"/>
<path d="M1378.54 245.916C1378.59 240.682 1365.76 218.271 1364.21 228.714C1371.06 230.617 1373.88 253.748 1378.54 245.916Z" fill="white"/>
<path d="M1408.19 229.995C1399.59 231.812 1383.67 265.814 1395.49 261.19C1390.44 249.563 1416.93 229.873 1408.19 229.995Z" fill="white"/>
<path d="M1416.9 291.299C1415.71 288.225 1405.83 276.305 1406.99 285.077C1411.88 289.091 1422.3 303.828 1409.25 302.669C1405.42 291.445 1393.81 304.78 1386.56 304.255C1381.67 306.463 1373.11 298.253 1367.68 295.703C1367.56 295.63 1367.42 295.557 1367.29 295.508C1367.24 295.496 1367.19 295.484 1367.14 295.471C1365.45 294.776 1364.1 294.739 1363.36 295.923C1362.52 296.35 1361.7 296.935 1360.78 297.118C1360.49 297.179 1360.49 297.143 1360.25 297.021C1359.97 296.874 1359.77 296.655 1359.61 296.313C1359.36 295.789 1359.43 294.947 1359.71 294.276C1360.54 292.312 1362.7 290.994 1364.3 289.725C1366.12 288.286 1368.2 286.931 1369.39 284.882C1370.57 282.832 1367.41 280.99 1366.23 283.04C1365.64 284.04 1364.71 284.76 1363.81 285.48C1362.72 286.346 1361.63 287.212 1360.54 288.078C1358.47 289.725 1356.34 291.653 1355.89 294.41C1355.47 297.021 1356.76 299.949 1359.5 300.644C1360.96 301.01 1362.33 300.571 1363.62 299.9C1364.08 299.656 1364.54 299.351 1365.01 299.156L1366.97 299.497C1377.85 310.392 1389.92 309.757 1403.05 302.267C1409.89 313.832 1426.46 301.498 1416.88 291.323L1416.9 291.299Z" fill="white"/>
<path d="M1436.49 329.485C1407.35 328.57 1379.78 319.03 1350.36 323.702C1345.96 325.691 1330.02 315.516 1333.3 323.556C1371.16 368.281 1397.12 373.868 1436.49 329.485ZM1391.85 328.155C1394.52 327.289 1397.11 327.167 1399.64 327.484C1395.67 328.497 1391.62 329.217 1387.55 329.351C1388.98 329.07 1390.41 328.619 1391.85 328.155ZM1373.06 325.813C1376.53 326.472 1379.39 328.717 1382.83 329.4C1376.73 329.717 1371.22 327.131 1365.44 325.679C1367.99 325.386 1370.53 325.313 1373.06 325.813ZM1351.61 327.655C1377.45 335.207 1402.12 329.9 1428 333.438C1402.34 346.614 1371.18 343.393 1347.31 327.545C1348.73 327.667 1350.17 327.704 1351.61 327.643V327.655ZM1393.25 356.24C1374.57 359.375 1358.44 346.284 1347.78 332.364C1368.51 344.881 1393.32 349.688 1416.59 341.929C1409.66 348.188 1402.83 354.593 1393.25 356.252V356.24Z" fill="white"/>
</svg>
