<svg width="909" height="194" viewBox="0 0 909 194" fill="none" xmlns="http://www.w3.org/2000/svg">
<mask id="path-1-outside-1_467_1122" maskUnits="userSpaceOnUse" x="213" y="24" width="444" height="86" fill="black">
<rect fill="white" x="213" y="24" width="444" height="86"/>
<path d="M214.989 107V27H231.903V60.0078H266.239V27H283.114V107H266.239V73.9531H231.903V107H214.989ZM370.575 67C370.575 75.724 368.922 83.1458 365.614 89.2656C362.333 95.3854 357.854 100.06 352.177 103.289C346.526 106.492 340.172 108.094 333.114 108.094C326.005 108.094 319.625 106.479 313.974 103.25C308.323 100.021 303.856 95.3464 300.575 89.2266C297.294 83.1068 295.653 75.6979 295.653 67C295.653 58.276 297.294 50.8542 300.575 44.7344C303.856 38.6146 308.323 33.9531 313.974 30.75C319.625 27.5208 326.005 25.9062 333.114 25.9062C340.172 25.9062 346.526 27.5208 352.177 30.75C357.854 33.9531 362.333 38.6146 365.614 44.7344C368.922 50.8542 370.575 58.276 370.575 67ZM353.427 67C353.427 61.349 352.58 56.5833 350.888 52.7031C349.221 48.8229 346.864 45.8802 343.817 43.875C340.771 41.8698 337.203 40.8672 333.114 40.8672C329.026 40.8672 325.458 41.8698 322.411 43.875C319.364 45.8802 316.994 48.8229 315.302 52.7031C313.635 56.5833 312.802 61.349 312.802 67C312.802 72.651 313.635 77.4167 315.302 81.2969C316.994 85.1771 319.364 88.1198 322.411 90.125C325.458 92.1302 329.026 93.1328 333.114 93.1328C337.203 93.1328 340.771 92.1302 343.817 90.125C346.864 88.1198 349.221 85.1771 350.888 81.2969C352.58 77.4167 353.427 72.651 353.427 67ZM383.104 107V27H400.019V93.0547H434.315V107H383.104ZM473.876 107H445.517V27H474.11C482.157 27 489.084 28.6016 494.892 31.8047C500.699 34.9818 505.165 39.5521 508.29 45.5156C511.441 51.4792 513.017 58.6146 513.017 66.9219C513.017 75.2552 511.441 82.4167 508.29 88.4062C505.165 94.3958 500.673 98.9922 494.813 102.195C488.98 105.398 482.001 107 473.876 107ZM462.431 92.5078H473.173C478.173 92.5078 482.379 91.6224 485.79 89.8516C489.228 88.0547 491.806 85.2812 493.524 81.5312C495.269 77.7552 496.142 72.8854 496.142 66.9219C496.142 61.0104 495.269 56.1797 493.524 52.4297C491.806 48.6797 489.241 45.9193 485.829 44.1484C482.418 42.3776 478.212 41.4922 473.212 41.4922H462.431V92.5078ZM525.546 107V27H579.452V40.9453H542.46V60.0078H576.679V73.9531H542.46V93.0547H579.608V107H525.546ZM589.853 40.9453V27H655.556V40.9453H631.063V107H614.345V40.9453H589.853Z"/>
</mask>
<path d="M214.989 107H213.989V108H214.989V107ZM214.989 27V26H213.989V27H214.989ZM231.903 27H232.903V26H231.903V27ZM231.903 60.0078H230.903V61.0078H231.903V60.0078ZM266.239 60.0078V61.0078H267.239V60.0078H266.239ZM266.239 27V26H265.239V27H266.239ZM283.114 27H284.114V26H283.114V27ZM283.114 107V108H284.114V107H283.114ZM266.239 107H265.239V108H266.239V107ZM266.239 73.9531H267.239V72.9531H266.239V73.9531ZM231.903 73.9531V72.9531H230.903V73.9531H231.903ZM231.903 107V108H232.903V107H231.903ZM215.989 107V27H213.989V107H215.989ZM214.989 28H231.903V26H214.989V28ZM230.903 27V60.0078H232.903V27H230.903ZM231.903 61.0078H266.239V59.0078H231.903V61.0078ZM267.239 60.0078V27H265.239V60.0078H267.239ZM266.239 28H283.114V26H266.239V28ZM282.114 27V107H284.114V27H282.114ZM283.114 106H266.239V108H283.114V106ZM267.239 107V73.9531H265.239V107H267.239ZM266.239 72.9531H231.903V74.9531H266.239V72.9531ZM230.903 73.9531V107H232.903V73.9531H230.903ZM231.903 106H214.989V108H231.903V106ZM365.614 89.2656L364.734 88.7902L364.733 88.7931L365.614 89.2656ZM352.177 103.289L352.67 104.159L352.671 104.158L352.177 103.289ZM313.974 103.25L314.47 102.382L313.974 103.25ZM300.575 89.2266L299.694 89.6991L300.575 89.2266ZM300.575 44.7344L301.457 45.2069L300.575 44.7344ZM313.974 30.75L314.467 31.62L314.47 31.6182L313.974 30.75ZM352.177 30.75L351.681 31.6183L351.685 31.6209L352.177 30.75ZM365.614 44.7344L364.733 45.2069L364.734 45.2098L365.614 44.7344ZM350.888 52.7031L349.969 53.0978L349.971 53.103L350.888 52.7031ZM343.817 43.875L343.268 44.7103L343.817 43.875ZM322.411 43.875L322.961 44.7103L322.411 43.875ZM315.302 52.7031L314.385 52.3033L314.383 52.3085L315.302 52.7031ZM315.302 81.2969L314.383 81.6915L314.385 81.6967L315.302 81.2969ZM322.411 90.125L322.961 89.2897L322.411 90.125ZM343.817 90.125L343.268 89.2897L343.817 90.125ZM350.888 81.2969L349.971 80.897L349.969 80.9022L350.888 81.2969ZM369.575 67C369.575 75.5994 367.945 82.849 364.734 88.7902L366.494 89.7411C369.898 83.4427 371.575 75.8486 371.575 67H369.575ZM364.733 88.7931C361.535 94.7578 357.185 99.2898 351.682 102.42L352.671 104.158C358.523 100.83 363.131 96.013 366.496 89.7382L364.733 88.7931ZM351.684 102.419C346.196 105.53 340.014 107.094 333.114 107.094V109.094C340.329 109.094 346.856 107.455 352.67 104.159L351.684 102.419ZM333.114 107.094C326.162 107.094 319.956 105.517 314.47 102.382L313.478 104.118C319.293 107.442 325.847 109.094 333.114 109.094V107.094ZM314.47 102.382C308.993 99.252 304.655 94.7199 301.457 88.754L299.694 89.6991C303.058 95.9728 307.652 100.79 313.478 104.118L314.47 102.382ZM301.457 88.754C298.27 82.8118 296.653 75.5739 296.653 67H294.653C294.653 75.8219 296.317 83.4018 299.694 89.6991L301.457 88.754ZM296.653 67C296.653 58.3995 298.271 51.1488 301.457 45.2069L299.694 44.2618C296.317 50.5595 294.653 58.1526 294.653 67H296.653ZM301.457 45.2069C304.655 39.2416 308.991 34.7234 314.467 31.62L313.481 29.88C307.654 33.1828 303.058 37.9876 299.694 44.2618L301.457 45.2069ZM314.47 31.6182C319.956 28.4833 326.162 26.9062 333.114 26.9062V24.9062C325.847 24.9062 319.293 26.5584 313.478 29.8818L314.47 31.6182ZM333.114 26.9062C340.013 26.9062 346.193 28.4826 351.681 31.6182L352.673 29.8818C346.858 26.559 340.33 24.9062 333.114 24.9062V26.9062ZM351.685 31.6209C357.186 34.7247 361.535 39.2428 364.733 45.2069L366.496 44.2618C363.131 37.9864 358.521 33.1815 352.668 29.8791L351.685 31.6209ZM364.734 45.2098C367.945 51.151 369.575 58.4006 369.575 67H371.575C371.575 58.1514 369.898 50.5573 366.494 44.2589L364.734 45.2098ZM354.427 67C354.427 61.255 353.567 56.3443 351.804 52.3033L349.971 53.103C351.594 56.8224 352.427 61.4429 352.427 67H354.427ZM351.807 52.3085C350.075 48.2775 347.602 45.1687 344.367 43.0397L343.268 44.7103C346.126 46.5918 348.367 49.3683 349.969 53.0978L351.807 52.3085ZM344.367 43.0397C341.138 40.9143 337.374 39.8672 333.114 39.8672V41.8672C337.032 41.8672 340.403 42.8252 343.268 44.7103L344.367 43.0397ZM333.114 39.8672C328.855 39.8672 325.091 40.9143 321.861 43.0397L322.961 44.7103C325.825 42.8252 329.197 41.8672 333.114 41.8672V39.8672ZM321.861 43.0397C318.628 45.1677 316.143 48.2746 314.385 52.3033L316.218 53.103C317.846 49.3712 320.101 46.5927 322.961 44.7103L321.861 43.0397ZM314.383 52.3085C312.648 56.3479 311.802 61.2567 311.802 67H313.802C313.802 61.4413 314.622 56.8188 316.221 53.0978L314.383 52.3085ZM311.802 67C311.802 72.7433 312.648 77.6521 314.383 81.6915L316.221 80.9022C314.622 77.1812 313.802 72.5587 313.802 67H311.802ZM314.385 81.6967C316.143 85.7254 318.628 88.8323 321.861 90.9603L322.961 89.2897C320.101 87.4073 317.846 84.6288 316.218 80.897L314.385 81.6967ZM321.861 90.9603C325.091 93.0857 328.855 94.1328 333.114 94.1328V92.1328C329.197 92.1328 325.825 91.1748 322.961 89.2897L321.861 90.9603ZM333.114 94.1328C337.374 94.1328 341.138 93.0857 344.367 90.9603L343.268 89.2897C340.403 91.1748 337.032 92.1328 333.114 92.1328V94.1328ZM344.367 90.9603C347.602 88.8313 350.075 85.7225 351.807 81.6915L349.969 80.9022C348.367 84.6317 346.126 87.4082 343.268 89.2897L344.367 90.9603ZM351.804 81.6967C353.567 77.6557 354.427 72.745 354.427 67H352.427C352.427 72.5571 351.594 77.1776 349.971 80.897L351.804 81.6967ZM383.104 107H382.104V108H383.104V107ZM383.104 27V26H382.104V27H383.104ZM400.019 27H401.019V26H400.019V27ZM400.019 93.0547H399.019V94.0547H400.019V93.0547ZM434.315 93.0547H435.315V92.0547H434.315V93.0547ZM434.315 107V108H435.315V107H434.315ZM384.104 107V27H382.104V107H384.104ZM383.104 28H400.019V26H383.104V28ZM399.019 27V93.0547H401.019V27H399.019ZM400.019 94.0547H434.315V92.0547H400.019V94.0547ZM433.315 93.0547V107H435.315V93.0547H433.315ZM434.315 106H383.104V108H434.315V106ZM445.517 107H444.517V108H445.517V107ZM445.517 27V26H444.517V27H445.517ZM494.892 31.8047L494.409 32.6803L494.412 32.682L494.892 31.8047ZM508.29 45.5156L507.404 45.9798L507.406 45.9828L508.29 45.5156ZM508.29 88.4062L507.405 87.9407L507.403 87.9437L508.29 88.4062ZM494.813 102.195L494.334 101.318L494.332 101.319L494.813 102.195ZM462.431 92.5078H461.431V93.5078H462.431V92.5078ZM485.79 89.8516L486.251 90.7391L486.253 90.7378L485.79 89.8516ZM493.524 81.5312L492.617 81.1118L492.615 81.1146L493.524 81.5312ZM493.524 52.4297L492.615 52.8463L492.618 52.8515L493.524 52.4297ZM485.829 44.1484L486.29 43.2609L485.829 44.1484ZM462.431 41.4922V40.4922H461.431V41.4922H462.431ZM473.876 106H445.517V108H473.876V106ZM446.517 107V27H444.517V107H446.517ZM445.517 28H474.11V26H445.517V28ZM474.11 28C482.024 28 488.778 29.5745 494.409 32.6803L495.375 30.9291C489.391 27.6286 482.29 26 474.11 26V28ZM494.412 32.682C500.043 35.7627 504.369 40.1878 507.404 45.9798L509.176 45.0515C505.961 38.9164 501.355 34.2009 495.372 30.9274L494.412 32.682ZM507.406 45.9828C510.465 51.7727 512.017 58.7402 512.017 66.9219H514.017C514.017 58.4889 512.417 51.1856 509.174 45.0484L507.406 45.9828ZM512.017 66.9219C512.017 75.13 510.465 82.1241 507.405 87.9407L509.175 88.8718C512.417 82.7092 514.017 75.3805 514.017 66.9219H512.017ZM507.403 87.9437C504.369 93.7599 500.017 98.2109 494.334 101.318L495.293 103.073C501.328 99.7735 505.961 95.0317 509.177 88.8688L507.403 87.9437ZM494.332 101.319C488.676 104.425 481.87 106 473.876 106V108C482.132 108 489.285 106.372 495.295 103.072L494.332 101.319ZM462.431 93.5078H473.173V91.5078H462.431V93.5078ZM473.173 93.5078C478.287 93.5078 482.661 92.6027 486.251 90.7391L485.329 88.964C482.097 90.6421 478.059 91.5078 473.173 91.5078V93.5078ZM486.253 90.7378C489.9 88.8314 492.629 85.8858 494.433 81.9479L492.615 81.1146C490.983 84.6767 488.555 87.278 485.327 88.9653L486.253 90.7378ZM494.432 81.9507C496.258 77.999 497.142 72.9721 497.142 66.9219H495.142C495.142 72.7988 494.28 77.5114 492.617 81.1118L494.432 81.9507ZM497.142 66.9219C497.142 60.9227 496.258 55.9341 494.431 52.0078L492.618 52.8515C494.281 56.4253 495.142 61.0981 495.142 66.9219H497.142ZM494.433 52.013C492.629 48.0763 489.914 45.1421 486.29 43.2609L485.368 45.036C488.567 46.6964 490.982 49.283 492.615 52.8463L494.433 52.013ZM486.29 43.2609C482.7 41.3973 478.326 40.4922 473.212 40.4922V42.4922C478.098 42.4922 482.136 43.3579 485.368 45.036L486.29 43.2609ZM473.212 40.4922H462.431V42.4922H473.212V40.4922ZM461.431 41.4922V92.5078H463.431V41.4922H461.431ZM525.546 107H524.546V108H525.546V107ZM525.546 27V26H524.546V27H525.546ZM579.452 27H580.452V26H579.452V27ZM579.452 40.9453V41.9453H580.452V40.9453H579.452ZM542.46 40.9453V39.9453H541.46V40.9453H542.46ZM542.46 60.0078H541.46V61.0078H542.46V60.0078ZM576.679 60.0078H577.679V59.0078H576.679V60.0078ZM576.679 73.9531V74.9531H577.679V73.9531H576.679ZM542.46 73.9531V72.9531H541.46V73.9531H542.46ZM542.46 93.0547H541.46V94.0547H542.46V93.0547ZM579.608 93.0547H580.608V92.0547H579.608V93.0547ZM579.608 107V108H580.608V107H579.608ZM526.546 107V27H524.546V107H526.546ZM525.546 28H579.452V26H525.546V28ZM578.452 27V40.9453H580.452V27H578.452ZM579.452 39.9453H542.46V41.9453H579.452V39.9453ZM541.46 40.9453V60.0078H543.46V40.9453H541.46ZM542.46 61.0078H576.679V59.0078H542.46V61.0078ZM575.679 60.0078V73.9531H577.679V60.0078H575.679ZM576.679 72.9531H542.46V74.9531H576.679V72.9531ZM541.46 73.9531V93.0547H543.46V73.9531H541.46ZM542.46 94.0547H579.608V92.0547H542.46V94.0547ZM578.608 93.0547V107H580.608V93.0547H578.608ZM579.608 106H525.546V108H579.608V106ZM589.853 40.9453H588.853V41.9453H589.853V40.9453ZM589.853 27V26H588.853V27H589.853ZM655.556 27H656.556V26H655.556V27ZM655.556 40.9453V41.9453H656.556V40.9453H655.556ZM631.063 40.9453V39.9453H630.063V40.9453H631.063ZM631.063 107V108H632.063V107H631.063ZM614.345 107H613.345V108H614.345V107ZM614.345 40.9453H615.345V39.9453H614.345V40.9453ZM590.853 40.9453V27H588.853V40.9453H590.853ZM589.853 28H655.556V26H589.853V28ZM654.556 27V40.9453H656.556V27H654.556ZM655.556 39.9453H631.063V41.9453H655.556V39.9453ZM630.063 40.9453V107H632.063V40.9453H630.063ZM631.063 106H614.345V108H631.063V106ZM615.345 107V40.9453H613.345V107H615.345ZM614.345 39.9453H589.853V41.9453H614.345V39.9453Z" fill="#FF5C00" mask="url(#path-1-outside-1_467_1122)"/>
<path d="M232.76 135V55H249.674V88.0078H284.01V55H300.885V135H284.01V101.953H249.674V135H232.76ZM388.346 95C388.346 103.724 386.692 111.146 383.385 117.266C380.104 123.385 375.624 128.06 369.947 131.289C364.296 134.492 357.942 136.094 350.885 136.094C343.775 136.094 337.395 134.479 331.744 131.25C326.093 128.021 321.627 123.346 318.346 117.227C315.064 111.107 313.424 103.698 313.424 95C313.424 86.276 315.064 78.8542 318.346 72.7344C321.627 66.6146 326.093 61.9531 331.744 58.75C337.395 55.5208 343.775 53.9062 350.885 53.9062C357.942 53.9062 364.296 55.5208 369.947 58.75C375.624 61.9531 380.104 66.6146 383.385 72.7344C386.692 78.8542 388.346 86.276 388.346 95ZM371.197 95C371.197 89.349 370.351 84.5833 368.658 80.7031C366.992 76.8229 364.635 73.8802 361.588 71.875C358.541 69.8698 354.973 68.8672 350.885 68.8672C346.796 68.8672 343.229 69.8698 340.182 71.875C337.135 73.8802 334.765 76.8229 333.072 80.7031C331.406 84.5833 330.572 89.349 330.572 95C330.572 100.651 331.406 105.417 333.072 109.297C334.765 113.177 337.135 116.12 340.182 118.125C343.229 120.13 346.796 121.133 350.885 121.133C354.973 121.133 358.541 120.13 361.588 118.125C364.635 116.12 366.992 113.177 368.658 109.297C370.351 105.417 371.197 100.651 371.197 95ZM400.875 135V55H417.789V121.055H452.086V135H400.875ZM491.646 135H463.287V55H491.881C499.928 55 506.855 56.6016 512.662 59.8047C518.469 62.9818 522.936 67.5521 526.061 73.5156C529.212 79.4792 530.787 86.6146 530.787 94.9219C530.787 103.255 529.212 110.417 526.061 116.406C522.936 122.396 518.443 126.992 512.584 130.195C506.751 133.398 499.771 135 491.646 135ZM480.201 120.508H490.943C495.943 120.508 500.149 119.622 503.561 117.852C506.998 116.055 509.576 113.281 511.295 109.531C513.04 105.755 513.912 100.885 513.912 94.9219C513.912 89.0104 513.04 84.1797 511.295 80.4297C509.576 76.6797 507.011 73.9193 503.6 72.1484C500.188 70.3776 495.982 69.4922 490.982 69.4922H480.201V120.508ZM543.316 135V55H597.223V68.9453H560.23V88.0078H594.449V101.953H560.23V121.055H597.379V135H543.316ZM607.623 68.9453V55H673.326V68.9453H648.834V135H632.115V68.9453H607.623Z" fill="#ACACAC" fill-opacity="0.69"/>
<mask id="path-4-outside-2_467_1122" maskUnits="userSpaceOnUse" x="280" y="79" width="444" height="86" fill="black">
<rect fill="white" x="280" y="79" width="444" height="86"/>
<path d="M281.989 162V82H298.903V115.008H333.239V82H350.114V162H333.239V128.953H298.903V162H281.989ZM437.575 122C437.575 130.724 435.922 138.146 432.614 144.266C429.333 150.385 424.854 155.06 419.177 158.289C413.526 161.492 407.172 163.094 400.114 163.094C393.005 163.094 386.625 161.479 380.974 158.25C375.323 155.021 370.856 150.346 367.575 144.227C364.294 138.107 362.653 130.698 362.653 122C362.653 113.276 364.294 105.854 367.575 99.7344C370.856 93.6146 375.323 88.9531 380.974 85.75C386.625 82.5208 393.005 80.9062 400.114 80.9062C407.172 80.9062 413.526 82.5208 419.177 85.75C424.854 88.9531 429.333 93.6146 432.614 99.7344C435.922 105.854 437.575 113.276 437.575 122ZM420.427 122C420.427 116.349 419.58 111.583 417.888 107.703C416.221 103.823 413.864 100.88 410.817 98.875C407.771 96.8698 404.203 95.8672 400.114 95.8672C396.026 95.8672 392.458 96.8698 389.411 98.875C386.364 100.88 383.994 103.823 382.302 107.703C380.635 111.583 379.802 116.349 379.802 122C379.802 127.651 380.635 132.417 382.302 136.297C383.994 140.177 386.364 143.12 389.411 145.125C392.458 147.13 396.026 148.133 400.114 148.133C404.203 148.133 407.771 147.13 410.817 145.125C413.864 143.12 416.221 140.177 417.888 136.297C419.58 132.417 420.427 127.651 420.427 122ZM450.104 162V82H467.019V148.055H501.315V162H450.104ZM540.876 162H512.517V82H541.11C549.157 82 556.084 83.6016 561.892 86.8047C567.699 89.9818 572.165 94.5521 575.29 100.516C578.441 106.479 580.017 113.615 580.017 121.922C580.017 130.255 578.441 137.417 575.29 143.406C572.165 149.396 567.673 153.992 561.813 157.195C555.98 160.398 549.001 162 540.876 162ZM529.431 147.508H540.173C545.173 147.508 549.379 146.622 552.79 144.852C556.228 143.055 558.806 140.281 560.524 136.531C562.269 132.755 563.142 127.885 563.142 121.922C563.142 116.01 562.269 111.18 560.524 107.43C558.806 103.68 556.241 100.919 552.829 99.1484C549.418 97.3776 545.212 96.4922 540.212 96.4922H529.431V147.508ZM592.546 162V82H646.452V95.9453H609.46V115.008H643.679V128.953H609.46V148.055H646.608V162H592.546ZM656.853 95.9453V82H722.556V95.9453H698.063V162H681.345V95.9453H656.853Z"/>
</mask>
<path d="M281.989 162H280.989V163H281.989V162ZM281.989 82V81H280.989V82H281.989ZM298.903 82H299.903V81H298.903V82ZM298.903 115.008H297.903V116.008H298.903V115.008ZM333.239 115.008V116.008H334.239V115.008H333.239ZM333.239 82V81H332.239V82H333.239ZM350.114 82H351.114V81H350.114V82ZM350.114 162V163H351.114V162H350.114ZM333.239 162H332.239V163H333.239V162ZM333.239 128.953H334.239V127.953H333.239V128.953ZM298.903 128.953V127.953H297.903V128.953H298.903ZM298.903 162V163H299.903V162H298.903ZM282.989 162V82H280.989V162H282.989ZM281.989 83H298.903V81H281.989V83ZM297.903 82V115.008H299.903V82H297.903ZM298.903 116.008H333.239V114.008H298.903V116.008ZM334.239 115.008V82H332.239V115.008H334.239ZM333.239 83H350.114V81H333.239V83ZM349.114 82V162H351.114V82H349.114ZM350.114 161H333.239V163H350.114V161ZM334.239 162V128.953H332.239V162H334.239ZM333.239 127.953H298.903V129.953H333.239V127.953ZM297.903 128.953V162H299.903V128.953H297.903ZM298.903 161H281.989V163H298.903V161ZM432.614 144.266L431.734 143.79L431.733 143.793L432.614 144.266ZM419.177 158.289L419.67 159.159L419.671 159.158L419.177 158.289ZM380.974 158.25L381.47 157.382L380.974 158.25ZM367.575 144.227L366.694 144.699L367.575 144.227ZM367.575 99.7344L368.457 100.207L367.575 99.7344ZM380.974 85.75L381.467 86.62L381.47 86.6182L380.974 85.75ZM419.177 85.75L418.681 86.6183L418.685 86.6209L419.177 85.75ZM432.614 99.7344L431.733 100.207L431.734 100.21L432.614 99.7344ZM417.888 107.703L416.969 108.098L416.971 108.103L417.888 107.703ZM410.817 98.875L410.268 99.7103L410.817 98.875ZM389.411 98.875L389.961 99.7103L389.411 98.875ZM382.302 107.703L381.385 107.303L381.383 107.308L382.302 107.703ZM382.302 136.297L381.383 136.692L381.385 136.697L382.302 136.297ZM389.411 145.125L389.961 144.29L389.411 145.125ZM410.817 145.125L410.268 144.29L410.817 145.125ZM417.888 136.297L416.971 135.897L416.969 135.902L417.888 136.297ZM436.575 122C436.575 130.599 434.945 137.849 431.734 143.79L433.494 144.741C436.898 138.443 438.575 130.849 438.575 122H436.575ZM431.733 143.793C428.535 149.758 424.185 154.29 418.682 157.42L419.671 159.158C425.523 155.83 430.131 151.013 433.496 144.738L431.733 143.793ZM418.684 157.419C413.196 160.53 407.014 162.094 400.114 162.094V164.094C407.329 164.094 413.856 162.455 419.67 159.159L418.684 157.419ZM400.114 162.094C393.162 162.094 386.956 160.517 381.47 157.382L380.478 159.118C386.293 162.442 392.847 164.094 400.114 164.094V162.094ZM381.47 157.382C375.993 154.252 371.655 149.72 368.457 143.754L366.694 144.699C370.058 150.973 374.652 155.79 380.478 159.118L381.47 157.382ZM368.457 143.754C365.27 137.812 363.653 130.574 363.653 122H361.653C361.653 130.822 363.317 138.402 366.694 144.699L368.457 143.754ZM363.653 122C363.653 113.399 365.271 106.149 368.457 100.207L366.694 99.2618C363.317 105.56 361.653 113.153 361.653 122H363.653ZM368.457 100.207C371.655 94.2416 375.991 89.7234 381.467 86.62L380.481 84.88C374.654 88.1828 370.058 92.9876 366.694 99.2618L368.457 100.207ZM381.47 86.6182C386.956 83.4833 393.162 81.9062 400.114 81.9062V79.9062C392.847 79.9062 386.293 81.5584 380.478 84.8818L381.47 86.6182ZM400.114 81.9062C407.013 81.9062 413.193 83.4826 418.681 86.6182L419.673 84.8818C413.858 81.559 407.33 79.9062 400.114 79.9062V81.9062ZM418.685 86.6209C424.186 89.7247 428.535 94.2428 431.733 100.207L433.496 99.2618C430.131 92.9864 425.521 88.1815 419.668 84.8791L418.685 86.6209ZM431.734 100.21C434.945 106.151 436.575 113.401 436.575 122H438.575C438.575 113.151 436.898 105.557 433.494 99.2589L431.734 100.21ZM421.427 122C421.427 116.255 420.567 111.344 418.804 107.303L416.971 108.103C418.594 111.822 419.427 116.443 419.427 122H421.427ZM418.807 107.308C417.075 103.277 414.602 100.169 411.367 98.0397L410.268 99.7103C413.126 101.592 415.367 104.368 416.969 108.098L418.807 107.308ZM411.367 98.0397C408.138 95.9143 404.374 94.8672 400.114 94.8672V96.8672C404.032 96.8672 407.403 97.8252 410.268 99.7103L411.367 98.0397ZM400.114 94.8672C395.855 94.8672 392.091 95.9143 388.861 98.0397L389.961 99.7103C392.825 97.8252 396.197 96.8672 400.114 96.8672V94.8672ZM388.861 98.0397C385.628 100.168 383.143 103.275 381.385 107.303L383.218 108.103C384.846 104.371 387.101 101.593 389.961 99.7103L388.861 98.0397ZM381.383 107.308C379.648 111.348 378.802 116.257 378.802 122H380.802C380.802 116.441 381.622 111.819 383.221 108.098L381.383 107.308ZM378.802 122C378.802 127.743 379.648 132.652 381.383 136.692L383.221 135.902C381.622 132.181 380.802 127.559 380.802 122H378.802ZM381.385 136.697C383.143 140.725 385.628 143.832 388.861 145.96L389.961 144.29C387.101 142.407 384.846 139.629 383.218 135.897L381.385 136.697ZM388.861 145.96C392.091 148.086 395.855 149.133 400.114 149.133V147.133C396.197 147.133 392.825 146.175 389.961 144.29L388.861 145.96ZM400.114 149.133C404.374 149.133 408.138 148.086 411.367 145.96L410.268 144.29C407.403 146.175 404.032 147.133 400.114 147.133V149.133ZM411.367 145.96C414.602 143.831 417.075 140.723 418.807 136.692L416.969 135.902C415.367 139.632 413.126 142.408 410.268 144.29L411.367 145.96ZM418.804 136.697C420.567 132.656 421.427 127.745 421.427 122H419.427C419.427 127.557 418.594 132.178 416.971 135.897L418.804 136.697ZM450.104 162H449.104V163H450.104V162ZM450.104 82V81H449.104V82H450.104ZM467.019 82H468.019V81H467.019V82ZM467.019 148.055H466.019V149.055H467.019V148.055ZM501.315 148.055H502.315V147.055H501.315V148.055ZM501.315 162V163H502.315V162H501.315ZM451.104 162V82H449.104V162H451.104ZM450.104 83H467.019V81H450.104V83ZM466.019 82V148.055H468.019V82H466.019ZM467.019 149.055H501.315V147.055H467.019V149.055ZM500.315 148.055V162H502.315V148.055H500.315ZM501.315 161H450.104V163H501.315V161ZM512.517 162H511.517V163H512.517V162ZM512.517 82V81H511.517V82H512.517ZM561.892 86.8047L561.409 87.6803L561.412 87.682L561.892 86.8047ZM575.29 100.516L574.404 100.98L574.406 100.983L575.29 100.516ZM575.29 143.406L574.405 142.941L574.403 142.944L575.29 143.406ZM561.813 157.195L561.334 156.318L561.332 156.319L561.813 157.195ZM529.431 147.508H528.431V148.508H529.431V147.508ZM552.79 144.852L553.251 145.739L553.253 145.738L552.79 144.852ZM560.524 136.531L559.617 136.112L559.615 136.115L560.524 136.531ZM560.524 107.43L559.615 107.846L559.618 107.852L560.524 107.43ZM552.829 99.1484L553.29 98.2609L552.829 99.1484ZM529.431 96.4922V95.4922H528.431V96.4922H529.431ZM540.876 161H512.517V163H540.876V161ZM513.517 162V82H511.517V162H513.517ZM512.517 83H541.11V81H512.517V83ZM541.11 83C549.024 83 555.778 84.5745 561.409 87.6803L562.375 85.9291C556.391 82.6286 549.29 81 541.11 81V83ZM561.412 87.682C567.043 90.7627 571.369 95.1878 574.404 100.98L576.176 100.051C572.961 93.9164 568.355 89.2009 562.372 85.9274L561.412 87.682ZM574.406 100.983C577.465 106.773 579.017 113.74 579.017 121.922H581.017C581.017 113.489 579.417 106.186 576.174 100.048L574.406 100.983ZM579.017 121.922C579.017 130.13 577.465 137.124 574.405 142.941L576.175 143.872C579.417 137.709 581.017 130.38 581.017 121.922H579.017ZM574.403 142.944C571.369 148.76 567.017 153.211 561.334 156.318L562.293 158.073C568.328 154.773 572.961 150.032 576.177 143.869L574.403 142.944ZM561.332 156.319C555.676 159.425 548.87 161 540.876 161V163C549.132 163 556.285 161.372 562.295 158.072L561.332 156.319ZM529.431 148.508H540.173V146.508H529.431V148.508ZM540.173 148.508C545.287 148.508 549.661 147.603 553.251 145.739L552.329 143.964C549.097 145.642 545.059 146.508 540.173 146.508V148.508ZM553.253 145.738C556.9 143.831 559.629 140.886 561.433 136.948L559.615 136.115C557.983 139.677 555.555 142.278 552.327 143.965L553.253 145.738ZM561.432 136.951C563.258 132.999 564.142 127.972 564.142 121.922H562.142C562.142 127.799 561.28 132.511 559.617 136.112L561.432 136.951ZM564.142 121.922C564.142 115.923 563.258 110.934 561.431 107.008L559.618 107.852C561.281 111.425 562.142 116.098 562.142 121.922H564.142ZM561.433 107.013C559.629 103.076 556.914 100.142 553.29 98.2609L552.368 100.036C555.567 101.696 557.982 104.283 559.615 107.846L561.433 107.013ZM553.29 98.2609C549.7 96.3973 545.326 95.4922 540.212 95.4922V97.4922C545.098 97.4922 549.136 98.3579 552.368 100.036L553.29 98.2609ZM540.212 95.4922H529.431V97.4922H540.212V95.4922ZM528.431 96.4922V147.508H530.431V96.4922H528.431ZM592.546 162H591.546V163H592.546V162ZM592.546 82V81H591.546V82H592.546ZM646.452 82H647.452V81H646.452V82ZM646.452 95.9453V96.9453H647.452V95.9453H646.452ZM609.46 95.9453V94.9453H608.46V95.9453H609.46ZM609.46 115.008H608.46V116.008H609.46V115.008ZM643.679 115.008H644.679V114.008H643.679V115.008ZM643.679 128.953V129.953H644.679V128.953H643.679ZM609.46 128.953V127.953H608.46V128.953H609.46ZM609.46 148.055H608.46V149.055H609.46V148.055ZM646.608 148.055H647.608V147.055H646.608V148.055ZM646.608 162V163H647.608V162H646.608ZM593.546 162V82H591.546V162H593.546ZM592.546 83H646.452V81H592.546V83ZM645.452 82V95.9453H647.452V82H645.452ZM646.452 94.9453H609.46V96.9453H646.452V94.9453ZM608.46 95.9453V115.008H610.46V95.9453H608.46ZM609.46 116.008H643.679V114.008H609.46V116.008ZM642.679 115.008V128.953H644.679V115.008H642.679ZM643.679 127.953H609.46V129.953H643.679V127.953ZM608.46 128.953V148.055H610.46V128.953H608.46ZM609.46 149.055H646.608V147.055H609.46V149.055ZM645.608 148.055V162H647.608V148.055H645.608ZM646.608 161H592.546V163H646.608V161ZM656.853 95.9453H655.853V96.9453H656.853V95.9453ZM656.853 82V81H655.853V82H656.853ZM722.556 82H723.556V81H722.556V82ZM722.556 95.9453V96.9453H723.556V95.9453H722.556ZM698.063 95.9453V94.9453H697.063V95.9453H698.063ZM698.063 162V163H699.063V162H698.063ZM681.345 162H680.345V163H681.345V162ZM681.345 95.9453H682.345V94.9453H681.345V95.9453ZM657.853 95.9453V82H655.853V95.9453H657.853ZM656.853 83H722.556V81H656.853V83ZM721.556 82V95.9453H723.556V82H721.556ZM722.556 94.9453H698.063V96.9453H722.556V94.9453ZM697.063 95.9453V162H699.063V95.9453H697.063ZM698.063 161H681.345V163H698.063V161ZM682.345 162V95.9453H680.345V162H682.345ZM681.345 94.9453H656.853V96.9453H681.345V94.9453Z" fill="#69E48C" mask="url(#path-4-outside-2_467_1122)"/>
</svg>
