<?xml version="1.0" encoding="UTF-8"?>
<svg id="Layer_1" data-name="Layer 1" xmlns="http://www.w3.org/2000/svg" viewBox="0 0 659.12 659.12">
  <defs>
    <style>
      .cls-1 {
        fill: #52e17a;
        stroke-width: 0px;
      }

      .cls-2 {
        fill: none;
        stroke: #52e17a;
        stroke-miterlimit: 10;
        stroke-width: 1.64px;
      }
    </style>
  </defs>
  <rect class="cls-2" x=".82" y=".82" width="657.47" height="657.47"/>
  <path class="cls-1" d="M329.92,419.03c-21.78-21.72-27.8-53.15-33.02-82.29-9.81-4.14,12.63,64.41,19.01,69.59,1.51,2.46,14.56,21.69,14.01,12.7Z"/>
  <path class="cls-1" d="M398.68,348.14c1.96,31.07-14.17,57.08-30.35,82.13.8,10.29,18.84-27.03,21.36-29.77,5.72-2.96,18.2-60.94,8.99-52.36Z"/>
  <g>
    <path class="cls-1" d="M250.82,244.62s-.02.01-.03.02c0,0,0,0,0,.01.05-.02.12-.06.04-.03Z"/>
    <path class="cls-1" d="M250.75,244.68c-.04.19-.02.09.03-.03,0,0,0,0-.01,0,0,0-.01.02-.02.02Z"/>
    <path class="cls-1" d="M250.75,244.66s0,0,.01,0c0,0,0,0,0,0,0,0-.01,0-.02.01,0,0,0,0,0,0,0,0,0,0,0,0,0,0,0,0,0,0,0,0,0,0,0,0,0,0,0,0,0,0,0,0,0,.01,0,.02,0,0,0,0,0,0,0,0,0-.01,0-.02Z"/>
    <path class="cls-1" d="M614.58,522.29c-6.79-20.85-14.53-41.4-20.36-62.54-5.46-14.81-4.21-31.95-11.64-45.17-46.03-28.09-96.2-50.04-149.22-60.93-1.9-.44-2.71,2.49-.81,2.93,22.3,5.13,44.51,10.88,65.88,19.17,28.34,11.51,56.14,25.36,82.2,41.21-47.81-12.45-96.26-24.97-145.92-26.13,2.2-63.88-30.74-30.34-21.38-101.19,2.49,2.77,6.74,8.69,10.32,4.27,6.75.87,7.11-.78,8.57-7.07,1.03-1.34,2.53,1.25,4.08.46,4.58-8.95,13.89-13.59,23.03-17.94,2.27-6.74-13.86-4.64-14.33-11.86,6.04-11.7,6.19-25.96,8.78-38.83.66-5.71.74-13.39-2.9-18.38-2.45-19.5-.95-39.99-7.68-58.67-6.54-15.46-20.96-25.23-31.06-38.11-7.22-9.54-13.52-20.13-23.54-27.09-24.47-15.92-62.63-6.64-88.68,1.93-27.96,17.47-46.65,45.12-54.1,77.03-5.82,15.46-.31,32.37-5.03,47.83-9.65,5.59-1.5,61.24,13.75,57.74.29-.04.53-.14.73-.28.04,6.87-.47,13.75-2.22,20.63.73,6.53-9.05,15.37-4.5,20.32,4.12,0,5.85,6.43,10.25,4.81,1.48-1.03,2.66-1.25,4.07.05,13.79-3.81-.16,33.67-1.15,40.97-2.04,13.94,3.23,27.6,4.81,41.36,4.07,19.13-1.54,39.46,6.04,57.88-17.06-6.36-36.48.02-53.36,4.53,8.73-46.63,8.87-99.83,47.7-133.29.59-9.65-17.04,14.75-18.85,17.29-27.29-8.52-55.38,14.31-81.51,21.72-23.57,6.2-50.68,7.23-69.02,25.18-32.25,40.84-52.93,90.1-80.42,134.27-.97,1.7,1.66,3.23,2.63,1.53,12.67-22.22,25.34-44.44,38.01-66.66,17.35-26.15,27.15-61.26,56.1-77.1-30.72,29.87-34.11,78.09-33.67,118.69-.19,2.48.39,12.38,3.52,7.21-1.42-44.28.27-105.69,42.85-130.37,33.98-11.4,70.11-13.4,105.76-12.27,9.35-6.14-47.28-2.45-51.64-2.51,21.03-9.06,42.62-21.35,66.31-18.16-24.45,33.53-22.51,77.23-31.15,116.27.76,4.89,21.22-5.21,26.72-4.32,60.25-15.76,18.45,53.06,8.12,80.11-27.15,69.53,30.14-51.03,26.68-68.34,18.66,36.61,76.95,62.02,106.22,23.54-1.9,15.24,2.46,29.67,5.96,44.28,2.12,14.12-.25,28.43.65,42.62-.48,3.76,4.86,30.06,8.24,20.97-9.55-19.16-3.1-41.07-5.57-61.45-.2-12.74-18.17-48.83,3.26-49.26,13-.5,26.1,2.27,37.78,7.97.92.45,2.42-.07,2.29-1.31-3.55-31.24-2.59-62.72-1.53-94.07,50.26,1.28,99.16,14.25,147.58,26.62-1.7,22.65,11.49,43.67,5.78,66.55-7.76,36.75-12.99,74.01-12.49,111.67,0,1.95,3.03,1.96,3.04,0,.1-23.6,1.34-47.25,4.87-70.6,2.98-21.71,10.77-43.19,8.48-65.31,11.51,40.98,30.22,80.35,34.08,123.16,9.75,4.97-9.03-56.26-11.41-63.59ZM429.85,224.12c1.02-10.2,9.61-19.18,19.94-19.69,3.42,15.92-2.19,33.38-5.86,48.78-1.93,3.45-5.48,7.65-9.21,10.11,0-2.32-.45-4.65-1.09-6.87-.21-.7-.75-1.03-1.32-1.06-.06-.02-.12-.04-.18-.05-1.06-.15-2.26-.09-2.91.92-.64,1-.27,2.18.59,2.9.35.29.52.34.68.59.19.3.23.45.31.89.04.21.06.53.06.9,0,.5-.02,1.01-.08,1.51-.1.75-.3,1.5-.55,2.22-3.27.58-6.23-1.05-7.85-6.71-3.72-2.21-3,3.72.84,7.41-.17.3-.24.67-.13,1.11,0,.03.03.06.04.09.06,2.38.65,4.71,3.02,5.76,2.11.94,4.61.53,6.11-1.29.97-1.18,1.59-2.63,1.97-4.13,2.58-1.24,5.44-3.57,8.53-7.46,2.28,4.96,8.35,5.73,12.82,7.83-7.2,4.31-17.59,7.4-20.24,16.21-4.82-3.17-6.56,2.81-7.13,6.44-2.37,1.94-4-1.69-7.67,1.88-2.75-2.45-7.52-5.46-5.91-9.61,4.13-24.31,10.76-48.44,11.94-73.11,5.58-4.46,13.63-17,21.71-7.91-13.9-2.81-28.12,29.12-18.42,22.35ZM293.34,86.29c14.19-11.66,33.52-12.09,50.96-14,24.46-5.62,47.9,4.25,60.39,26.16,36.28,41.43,40.87,41.15,42.91,98.78-8.02-4.7-16.64,2.1-20.99,8.75-2.52-94.35-47.16-172.32-145.82-107.47,4.04-4.22,8.03-8.53,12.55-12.23ZM319.24,82.41c72.46-21.99,97.08,44.35,102.93,103.6,5.24,39.08-8.1,77.38-14.29,115.63-6.59,33.74-63.21,69.84-90.66,39.11-14.45-7.56-30.82-13.88-37.74-29.98-13.85-26.23-24.32-55.64-22.72-85.68,10.59-60.25-17.36-121.13,62.47-142.69ZM269.9,109.79c-.69.89-1.25,2.35-2.17,2.34.72-.78,1.44-1.56,2.17-2.34ZM265.43,114.72c-.54,1.61-1.07,3.22-1.59,4.84-.36-.42-.92-.67-1.43-.59.89-1.5,1.91-2.9,3.02-4.25ZM251,149.39c-1.7,4.95-8.63,51.44-.71,44.9-1.6-23.13,2.3-46.58,11.47-67.89-10.33,25.77-1.52,52.81-5.28,79.13-2.52-.71-5.07-1.3-7.66-1.73-1.72-.29-3.44-.49-5.18-.69,5.41-17.5-1.24-36.65,7.36-53.72ZM254.55,257.91c-14.7-1.95-14.49-36.57-14.37-48.52.61-7.01,11.32-1.17,15.76-.86-2.78,11.47-2.25,22.83-1.53,34.13-.91-.76-1.98-1.31-3.19-1.26-.61.02-1.2.2-1.71.48-.25-.6-.46-1.22-.65-1.94-.4-1.52-.53-2.65-.5-4.26.02-.79-.71-1.55-1.52-1.52-.84.04-1.5.67-1.52,1.52-.07,3.42.84,6.82,2.59,9.76.78,1.3,2.71.73,2.82-.71,0,0,0-.03.02-.05,0,0,0,0,0,.01,0,0,0,0,0-.01,0,0,0,0,0-.02,0,0,0,0,0,0,0,0,0,0,0,0h0s0,0,.01-.01c0,0,0,0,0-.01,0,0,0,0,0,.01,0,0,.02,0,.02-.01,0,0,0,0,0,0,0,0,0,0,.01,0,0,0,0,0,0,0,.01,0,.02-.01.03-.02.08-.04.15-.08.17-.09.08-.02.15-.05.23-.07,0,0,0,0,.01,0,.03,0,.13,0,.21,0,.07.01.17.03.19.04.03,0,.23.1.25.1.1.05.2.11.29.17.02.01.14.1.2.14.05.05.17.14.18.16.11.1.21.2.32.31.21.21.4.43.59.65.29.34.75.47,1.2.43.25,3.86.48,7.71.58,11.55-.19-.07-.42-.11-.68-.07ZM268.78,303.37c-1.48-1.89-2.83.39-4.49.36-2.1-1.45-4.1-1.68-6.33-.21-2.86-.13-4.47-4.34-7.6-4.68,5.33-10.29,5.41-21.4,8.08-32.36,2.92,10.96,6.94,21.61,11.62,31.94-2.47,0-1.09,3.38-1.28,4.94ZM277.7,454.37c-3.57-13.68-8.18-27.79-6.22-42.71.46-19.5-5.9-38.25-7.31-57.54.96.28,2.3-.51,2.06-1.84-1.52-16.88,7.9-33,5.53-50.17,8.78,28.88,38.59,36.08,60,52.72,30.63,5.54,67.62-17.92,77.73-47.17.45,26.46.9,52.91,1.35,79.37,1.77,2.25,2.64.73,3.01-2.66.06.69.14,1.38.24,2.06.96,9.38,2.62,19.3-1.72,28.12-7.28,11.89-8.77,25.93-15.05,38.22-4.46,7.86-10.43,15.13-11.61,24.36-28.38,43.65-90.82,18-108-22.76ZM413.29,352.84c2.73,7.16,1.38,14.86.72,22.49-.26-9.25-1.28-20.48-.72-22.49ZM407.77,478.57c-6.85-.3-15.46-2.07-21.27,2.35,4.38-12.92,13.45-24.68,18.23-37.88,2.31-14.03,12-25.51,13.48-39.57-3.57-18.15,4.01-39.04-4.21-55.49-1.9-2.23-.44-6.42-.97-9.43,34.36,23.91,10.26,105.77,19.84,146.81-7.97-3.55-16.43-5.85-25.12-6.79Z"/>
  </g>
  <path class="cls-1" d="M412.33,181.81c-9.22-21.74-37.19-24.57-57.1-23.56-1.47.2-1.64,2.25-.49,2.85-1.53,9.82,8.14,11.64,15.7,10,25.26-6.9,41.7,17.88,41.89,10.71ZM390.29,168.39c-9.43-5.25-31.9,8.06-32.51-7.15,16.03-.06,33.97.68,45.86,12.85-4.08-2.64-8.61-4.59-13.35-5.7Z"/>
  <path class="cls-1" d="M318.91,155.06c-21.37-4.23-53.37,5.76-56.36,30.3,0,1.59,2,1.95,2.83.77,15.63-28.22,57.65-3.35,53.14-28.12,1.6-.09,2.16-2.61.39-2.95ZM315.69,163.35c-6.44,10.51-32.64-4.38-49.15,16.64,8.18-17.49,30.69-24.83,48.86-22.45.24,1.9.66,3.89.28,5.81Z"/>
  <path class="cls-1" d="M317.02,193.1c-25.4-21.89-65.83,15.24-33.57-1.96-11.24,9.81-16.65,11.25,1.93,13.16,5.52,1.77,35.11-4.21,31.64-11.21ZM300.99,198.15c-4.94,6.64-13.74-3.89-7.78-7.52,3.98,2.33,10.48-1.87,7.78,7.52ZM285.04,201.17c-2.42-.45-4.85-.98-7.3-1.13,3.72-2.85,6.78-6.58,10.92-8.89-.87,3.73.12,8.13,3.26,10.5-2.29.14-4.56-.05-6.88-.48ZM305.67,197.95c-.52.19-1.05.38-1.57.57.82-2.86.91-6.69-1.66-8.68,4.14.92,8.1,2.6,11.67,4.95-2.8,1.08-5.61,2.14-8.44,3.17Z"/>
  <path class="cls-1" d="M403,195.84c-11.6-19.98-32.17-13.44-47.52-2.92-.91,1.19-2.74,3.8-.5,4.67,15.08,5.49,32.46,4.27,45.88.62,1.29,1.63,3.43-.75,2.15-2.37ZM381.4,191.37c7.08,8.32-17.15,7.62-7.01-3.13,2.22-.02,4.35.39,6.4,1.1-.27.69-.16,1.55.61,2.03ZM369.07,189.51c.19-.09.38-.17.57-.25-1.64,2.56-.86,6.31,1.12,8.35-4.19-.65-8.35-1.61-12.39-2.62,3.45-2.1,7.07-3.82,10.71-5.48ZM384.11,198.3c1.66-1.71,2.21-4.6,1.23-6.85,2.58,1.47,5.05,3.29,7.41,5.17-2.83.93-5.71,1.45-8.64,1.68ZM396.19,195.26c-4.84-3.94-10.09-7.91-15.9-9.57,7.14-1.17,12.94,3.37,17.52,8.8-.53.28-1.08.52-1.62.77Z"/>
  <path class="cls-1" d="M320.42,179.95c-1.12-1.58-3.76-.07-2.62,1.53,6.87,7.62,5.45,18.74,7.38,27.04,6.24-6.28-.14-21.44-4.75-28.57Z"/>
  <path class="cls-1" d="M349.14,180.34c-1.43,4.67-4.64,8.53-6.37,13.08-1.42,2.48-4.72,22.2.89,15.91-3.74-7.49,14.48-35.73,5.48-28.99Z"/>
  <path class="cls-1" d="M361.86,239.26c-.5-3-12.72-12.87-10.02-5.43,9.53,3.97,13.96,19.72-1.17,15.26-6.89-3.48-11.3,2.02-16.77,5-5.27,1.67-7.99-3.45-11.64-6.01-4.2-1.05-9.39,3.1-12.92-1.4-5.23-6.26,4.35-9.18,6.09-14.3.59-1.87-2.34-2.67-2.93-.81-.88,2.77-4.2,4.13-5.94,6.31-6.46,10.77,6.16,15.91,14.81,13.25,3.13,3.24,6.45,6.78,11.4,6.21,5.52-.07,7.95-6.71,13.43-6.28,9.08,4.48,23.23-.18,15.66-11.82Z"/>
  <path class="cls-1" d="M371.48,276.91c-21.28-8.81-51.81-12.88-71.76-.67,11.75,12.12,40.22,20.8,57.81,10.42,4.42-2.51,8.67-6.32,13.95-6.71,1.94-.14,1.95-3.18,0-3.04ZM326.31,271.89c10.66,2.12,21.81-.52,32.26,3.25-16.78,4.91-33.9,1.34-50.94.48,6.07-2.24,12.19-4.73,18.68-3.73ZM345.98,287.71c-13.29,2.65-26.54-2.28-37.82-9.04,19.63,2.9,38.88,1.57,58.24-.53-6.88,3.05-12.73,8.38-20.41,9.58Z"/>
  <path class="cls-1" d="M443.48,183.25c-11.1-15.83-7.01-36.77-14.7-53.92-.77-1.79-3.39-.24-2.62,1.53,3.24,3.79,10.35,65.67,17.32,52.39Z"/>
  <path class="cls-1" d="M253.91,208.81c-6-1.57-11.31,2.1-12.06,8.24-.14,2.28-2.53,7.15.59,7.97,3.29-1.91,1.13-8.39,3.96-11.48,1.59-2.53,4.95-2.04,7.51-1.7,1.95.05,1.97-3.02,0-3.04Z"/>
  <path class="cls-1" d="M448.33,211.21c-.72-1.79-3.65-1.01-2.93.81,2.14,5.36.43,11.07-1.36,16.27-1.76,5.11-3.65,10.17-5.6,15.21-2.76-1.11-5.84-1.5-8.65-.3-2.87,1.23-4.92,3.89-5.05,7.04-.08,1.95,2.95,1.95,3.04,0,.09-2.03,1.65-3.73,3.52-4.39,2.4-.85,5.04-.14,7.21,1,.94.49,1.87.03,2.23-.91,2.29-5.86,4.51-11.75,6.52-17.71,1.82-5.43,3.28-11.49,1.07-17.03Z"/>
</svg>