<?xml version="1.0" encoding="UTF-8"?>
<svg id="Layer_1" data-name="Layer 1" xmlns="http://www.w3.org/2000/svg" viewBox="0 0 91 91">
  <defs>
    <style>
      .cls-1 {
        fill: none;
        stroke: #6ec173;
        stroke-miterlimit: 10;
      }
    </style>
  </defs>
  <circle class="cls-1" cx="18.29" cy="18.3" r="9.68"/>
  <rect class="cls-1" x="9.99" y="33.05" width="16.6" height="51.64" rx="3" ry="3"/>
  <path class="cls-1" d="M33.82,81.93v-46.11c0-1.53,1.24-2.77,2.77-2.77h9.92c1.53,0,2.77,1.24,2.77,2.77v3.53s4.99-7.21,16.05-7.21,18.44,7.38,18.44,19.37v30.43c0,1.53-1.24,2.77-2.77,2.77h-10.68c-1.54,0-2.78-1.25-2.77-2.79l.16-23.04s.76-12.79-7.73-12.85c-8.49-.06-10.34,6.39-10.34,10.08v25.82c0,1.53-1.24,2.77-2.77,2.77h-10.29c-1.53,0-2.77-1.24-2.77-2.77Z"/>
  <rect class="cls-1" x=".5" y=".5" width="90" height="90" transform="translate(0 91) rotate(-90)"/>
</svg>