<?xml version="1.0" encoding="UTF-8"?>
<svg id="Layer_1" data-name="Layer 1" xmlns="http://www.w3.org/2000/svg" xmlns:xlink="http://www.w3.org/1999/xlink" viewBox="0 0 469.28 123.24">
  <defs>
    <style>
      .cls-1 {
        fill: #ff5c00;
      }

      .cls-1, .cls-2, .cls-3, .cls-4, .cls-5 {
        stroke-width: 0px;
      }

      .cls-2 {
        fill: rgba(172, 172, 172, .69);
      }

      .cls-6 {
        mask: url(#mask);
      }

      .cls-3 {
        fill: #000;
      }

      .cls-4 {
        fill: #69e48c;
      }

      .cls-5 {
        fill: #fff;
      }

      .cls-7 {
        mask: url(#mask-1);
      }
    </style>
    <mask id="mask" x="-.45" y="-.65" width="373" height="70" maskUnits="userSpaceOnUse">
      <g id="path-1-outside-1_380_7" data-name="path-1-outside-1 380 7">
        <rect class="cls-5" x="-.45" y="-.65" width="373" height="70"/>
        <path class="cls-3" d="M1.06,67.35v-8.21L33.73,13.3H1V1.89h50.11v8.21L18.42,55.94h32.76v11.41H1.06ZM61.8,67.35V1.89h44.11v11.41h-30.27v15.6h28v11.41h-28v15.63h30.39v11.41h-44.23ZM116.9,67.35V1.89h13.84v54.04h28.06v11.41h-41.9ZM167.97,67.35V1.89h44.1v11.41h-30.27v15.6h28v11.41h-28v15.63h30.4v11.41h-44.23ZM277.82,1.89v65.45h-11.95l-28.48-41.2h-.48v41.2h-13.84V1.89h12.14l28.25,41.16h.58V1.89h13.78ZM349.41,34.62c0,7.14-1.35,13.21-4.06,18.22-2.68,5.01-6.35,8.83-10.99,11.47-4.62,2.62-9.82,3.93-15.6,3.93s-11.04-1.32-15.66-3.96c-4.62-2.64-8.28-6.47-10.96-11.47-2.68-5.01-4.03-11.07-4.03-18.19s1.34-13.21,4.03-18.22c2.68-5.01,6.34-8.82,10.96-11.44,4.62-2.64,9.84-3.96,15.66-3.96s10.97,1.32,15.6,3.96c4.65,2.62,8.31,6.43,10.99,11.44,2.71,5.01,4.06,11.08,4.06,18.22ZM335.38,34.62c0-4.62-.69-8.52-2.08-11.7-1.36-3.17-3.29-5.58-5.78-7.22-2.49-1.64-5.41-2.46-8.76-2.46s-6.26.82-8.76,2.46c-2.49,1.64-4.43,4.05-5.82,7.22-1.36,3.17-2.05,7.07-2.05,11.7s.68,8.52,2.05,11.7c1.39,3.17,3.32,5.58,5.82,7.22,2.49,1.64,5.41,2.46,8.76,2.46s6.26-.82,8.76-2.46c2.49-1.64,4.42-4.05,5.78-7.22,1.39-3.17,2.08-7.07,2.08-11.7ZM363.23,68.18c-2.11,0-3.92-.75-5.43-2.24-1.49-1.51-2.24-3.32-2.24-5.43s.75-3.88,2.24-5.37c1.51-1.49,3.32-2.24,5.43-2.24s3.83.75,5.37,2.24,2.3,3.28,2.3,5.37c0,1.41-.36,2.7-1.09,3.87-.7,1.15-1.63,2.08-2.78,2.78-1.15.68-2.42,1.02-3.8,1.02Z"/>
      </g>
    </mask>
    <mask id="mask-1" x="96.93" y="53.35" width="373" height="70" maskUnits="userSpaceOnUse">
      <g id="path-4-outside-2_380_7" data-name="path-4-outside-2 380 7">
        <rect class="cls-5" x="96.93" y="53.35" width="373" height="70"/>
        <path class="cls-3" d="M98.44,121.35v-8.21l32.66-45.83h-32.73v-11.41h50.11v8.21l-32.7,45.83h32.76v11.41h-50.11ZM159.18,121.35V55.89h44.1v11.41h-30.27v15.6h28v11.41h-28v15.63h30.39v11.41h-44.23ZM214.28,121.35V55.89h13.84v54.04h28.06v11.41h-41.9ZM265.35,121.35V55.89h44.1v11.41h-30.27v15.6h28v11.41h-28v15.63h30.39v11.41h-44.23ZM375.2,55.89v65.45h-11.95l-28.48-41.2h-.48v41.2h-13.84V55.89h12.14l28.25,41.16h.58v-41.16h13.77ZM446.79,88.62c0,7.14-1.35,13.21-4.06,18.22-2.68,5.01-6.35,8.83-10.99,11.47-4.62,2.62-9.82,3.93-15.6,3.93s-11.04-1.32-15.66-3.96c-4.62-2.64-8.28-6.47-10.96-11.47-2.68-5.01-4.03-11.07-4.03-18.18s1.34-13.21,4.03-18.22c2.68-5.01,6.34-8.82,10.96-11.44,4.62-2.64,9.84-3.96,15.66-3.96s10.97,1.32,15.6,3.96c4.64,2.62,8.31,6.43,10.99,11.44,2.71,5.01,4.06,11.08,4.06,18.22ZM432.75,88.62c0-4.62-.69-8.52-2.08-11.7-1.36-3.17-3.29-5.58-5.78-7.22-2.49-1.64-5.41-2.46-8.76-2.46s-6.26.82-8.76,2.46c-2.49,1.64-4.43,4.05-5.82,7.22-1.36,3.17-2.05,7.07-2.05,11.7s.68,8.52,2.05,11.7c1.39,3.17,3.32,5.58,5.82,7.22,2.49,1.64,5.41,2.46,8.76,2.46s6.27-.82,8.76-2.46c2.49-1.64,4.42-4.05,5.78-7.22,1.39-3.18,2.08-7.07,2.08-11.7ZM460.61,122.18c-2.11,0-3.92-.75-5.43-2.24-1.49-1.51-2.24-3.32-2.24-5.43s.74-3.88,2.24-5.37c1.51-1.49,3.32-2.24,5.43-2.24s3.84.75,5.37,2.24c1.53,1.49,2.3,3.28,2.3,5.37,0,1.41-.36,2.7-1.09,3.87-.7,1.15-1.63,2.08-2.78,2.78-1.15.68-2.42,1.02-3.8,1.02Z"/>
      </g>
    </mask>
  </defs>
  <g class="cls-6">
    <path class="cls-1" d="M1.06,67.35H.06v1h1v-1ZM1.06,59.14l-.81-.58-.19.26v.32h1ZM33.73,13.3l.81.58,1.13-1.58h-1.94v1ZM1,13.3H0v1h1v-1ZM1,1.89V.89H0v1h1ZM51.11,1.89h1V.89h-1v1ZM51.11,10.11l.81.58.19-.26v-.32h-1ZM18.42,55.94l-.81-.58-1.13,1.58h1.94v-1ZM51.18,55.94h1v-1h-1v1ZM51.18,67.35v1h1v-1h-1ZM2.06,67.35v-8.21H.06v8.21h2ZM1.88,59.72L34.54,13.88l-1.63-1.16L.25,58.56l1.63,1.16ZM33.73,12.3H1v2h32.73v-2ZM2,13.3V1.89H0v11.41h2ZM1,2.89h50.11V.89H1v2ZM50.11,1.89v8.21h2V1.89h-2ZM50.3,9.53L17.6,55.36l1.63,1.16L51.93,10.69l-1.63-1.16ZM18.42,56.94h32.76v-2H18.42v2ZM50.18,55.94v11.41h2v-11.41h-2ZM51.18,66.35H1.06v2h50.11v-2ZM61.8,67.35h-1v1h1v-1ZM61.8,1.89V.89h-1v1h1ZM105.9,1.89h1V.89h-1v1ZM105.9,13.3v1h1v-1h-1ZM75.64,13.3v-1h-1v1h1ZM75.64,28.9h-1v1h1v-1ZM103.63,28.9h1v-1h-1v1ZM103.63,40.31v1h1v-1h-1ZM75.64,40.31v-1h-1v1h1ZM75.64,55.94h-1v1h1v-1ZM106.03,55.94h1v-1h-1v1ZM106.03,67.35v1h1v-1h-1ZM62.8,67.35V1.89h-2v65.45h2ZM61.8,2.89h44.11V.89h-44.11v2ZM104.9,1.89v11.41h2V1.89h-2ZM105.9,12.3h-30.27v2h30.27v-2ZM74.64,13.3v15.6h2v-15.6h-2ZM75.64,29.9h28v-2h-28v2ZM102.63,28.9v11.41h2v-11.41h-2ZM103.63,39.31h-28v2h28v-2ZM74.64,40.31v15.63h2v-15.63h-2ZM75.64,56.94h30.39v-2h-30.39v2ZM105.03,55.94v11.41h2v-11.41h-2ZM106.03,66.35h-44.23v2h44.23v-2ZM116.9,67.35h-1v1h1v-1ZM116.9,1.89V.89h-1v1h1ZM130.74,1.89h1V.89h-1v1ZM130.74,55.94h-1v1h1v-1ZM158.8,55.94h1v-1h-1v1ZM158.8,67.35v1h1v-1h-1ZM117.9,67.35V1.89h-2v65.45h2ZM116.9,2.89h13.84V.89h-13.84v2ZM129.74,1.89v54.04h2V1.89h-2ZM130.74,56.94h28.06v-2h-28.06v2ZM157.8,55.94v11.41h2v-11.41h-2ZM158.8,66.35h-41.9v2h41.9v-2ZM167.97,67.35h-1v1h1v-1ZM167.97,1.89V.89h-1v1h1ZM212.07,1.89h1V.89h-1v1ZM212.07,13.3v1h1v-1h-1ZM181.81,13.3v-1h-1v1h1ZM181.81,28.9h-1v1h1v-1ZM209.81,28.9h1v-1h-1v1ZM209.81,40.31v1h1v-1h-1ZM181.81,40.31v-1h-1v1h1ZM181.81,55.94h-1v1h1v-1ZM212.2,55.94h1v-1h-1v1ZM212.2,67.35v1h1v-1h-1ZM168.97,67.35V1.89h-2v65.45h2ZM167.97,2.89h44.1V.89h-44.1v2ZM211.07,1.89v11.41h2V1.89h-2ZM212.07,12.3h-30.27v2h30.27v-2ZM180.81,13.3v15.6h2v-15.6h-2ZM181.81,29.9h28v-2h-28v2ZM208.81,28.9v11.41h2v-11.41h-2ZM209.81,39.31h-28v2h28v-2ZM180.81,40.31v15.63h2v-15.63h-2ZM181.81,56.94h30.4v-2h-30.4v2ZM211.2,55.94v11.41h2v-11.41h-2ZM212.2,66.35h-44.23v2h44.23v-2ZM277.82,1.89h1V.89h-1v1ZM277.82,67.35v1h1v-1h-1ZM265.87,67.35l-.82.57.3.43h.53v-1ZM237.39,26.15l.82-.57-.3-.43h-.52v1ZM236.92,26.15v-1h-1v1h1ZM236.92,67.35v1h1v-1h-1ZM223.08,67.35h-1v1h1v-1ZM223.08,1.89V.89h-1v1h1ZM235.22,1.89l.82-.57-.3-.43h-.53v1ZM263.47,43.06l-.82.57.3.43h.53v-1ZM264.05,43.06v1h1v-1h-1ZM264.05,1.89V.89h-1v1h1ZM276.82,1.89v65.45h2V1.89h-2ZM277.82,66.35h-11.95v2h11.95v-2ZM266.69,66.78l-28.48-41.2-1.65,1.14,28.48,41.2,1.65-1.14ZM237.39,25.15h-.48v2h.48v-2ZM235.92,26.15v41.2h2V26.15h-2ZM236.92,66.35h-13.84v2h13.84v-2ZM224.08,67.35V1.89h-2v65.45h2ZM223.08,2.89h12.14V.89h-12.14v2ZM234.4,2.46l28.25,41.16,1.65-1.13L236.05,1.33l-1.65,1.13ZM263.47,44.06h.58v-2h-.58v2ZM265.05,43.06V1.89h-2v41.16h2ZM264.05,2.89h13.78V.89h-13.78v2ZM345.35,52.84l-.88-.48h0s.88.48.88.48ZM334.35,64.31l.49.87h0s-.49-.87-.49-.87ZM303.1,64.28l.5-.87-.5.87ZM292.13,52.81l-.88.47h0l.88-.47ZM292.13,16.4l.88.47h0l-.88-.47ZM303.1,4.96l.49.87h0s-.5-.87-.5-.87ZM334.35,4.96l-.5.87h0s.49-.87.49-.87ZM345.35,16.4l-.88.47h0s.88-.47.88-.47ZM333.3,22.92l-.92.39h0s.92-.39.92-.39ZM327.51,15.7l-.55.84h0l.55-.84ZM310,15.7l.55.84h0l-.55-.84ZM304.18,22.92l-.92-.4h0s.92.4.92.4ZM304.18,46.32l-.92.39h0s.92-.39.92-.39ZM310,53.54l.55-.84h0l-.55.84ZM327.51,53.54l-.55-.84h0l.55.84ZM333.3,46.32l-.92-.4h0s.92.4.92.4ZM348.41,34.62c0,7.01-1.33,12.91-3.94,17.74l1.76.95c2.8-5.19,4.18-11.43,4.18-18.69h-2ZM344.47,52.37c-2.6,4.85-6.14,8.53-10.61,11.08l.99,1.74c4.82-2.74,8.61-6.71,11.38-11.87l-1.76-.95ZM333.86,63.44c-4.46,2.53-9.49,3.8-15.1,3.8v2c5.93,0,11.3-1.35,16.09-4.06l-.99-1.74ZM318.76,67.24c-5.66,0-10.71-1.28-15.16-3.83l-.99,1.74c4.79,2.74,10.18,4.09,16.16,4.09v-2ZM303.59,63.41c-4.45-2.54-7.97-6.22-10.58-11.08l-1.76.94c2.77,5.16,6.55,9.13,11.35,11.87l.99-1.74ZM293.01,52.34c-2.59-4.83-3.91-10.72-3.91-17.71h-2c0,7.24,1.37,13.47,4.15,18.66l1.76-.94ZM289.11,34.62c0-7.01,1.32-12.92,3.91-17.74l-1.76-.94c-2.78,5.18-4.15,11.43-4.15,18.69h2ZM293.01,16.88c2.6-4.85,6.13-8.52,10.58-11.04l-.99-1.74c-4.8,2.72-8.58,6.68-11.35,11.84l1.76.94ZM303.59,5.83c4.46-2.55,9.51-3.83,15.16-3.83V0c-5.97,0-11.37,1.36-16.16,4.09l.99,1.74ZM318.76,2c5.61,0,10.64,1.28,15.1,3.83l.99-1.74c-4.79-2.74-10.16-4.09-16.09-4.09v2ZM333.86,5.83c4.47,2.52,8,6.19,10.61,11.04l1.76-.94c-2.77-5.16-6.56-9.12-11.38-11.84l-.98,1.74ZM344.47,16.88c2.61,4.83,3.94,10.73,3.94,17.74h2c0-7.26-1.38-13.51-4.18-18.69l-1.76.95ZM336.38,34.62c0-4.72-.71-8.76-2.16-12.1l-1.83.8c1.32,3.01,1.99,6.77,1.99,11.3h2ZM334.22,22.53c-1.43-3.33-3.47-5.9-6.15-7.66l-1.1,1.67c2.3,1.52,4.12,3.76,5.42,6.78l1.84-.79ZM328.06,14.87c-2.68-1.76-5.79-2.63-9.31-2.63v2c3.17,0,5.9.78,8.21,2.3l1.1-1.67ZM318.76,12.24c-3.52,0-6.63.86-9.31,2.63l1.1,1.67c2.31-1.52,5.03-2.3,8.21-2.3v-2ZM309.45,14.87c-2.68,1.76-4.73,4.34-6.18,7.66l1.83.8c1.32-3.03,3.14-5.27,5.45-6.79l-1.1-1.67ZM303.26,22.53c-1.43,3.33-2.13,7.38-2.13,12.09h2c0-4.53.67-8.29,1.96-11.3l-1.84-.79ZM301.14,34.62c0,4.72.69,8.76,2.13,12.09l1.84-.79c-1.3-3.02-1.96-6.77-1.96-11.3h-2ZM303.27,46.72c1.45,3.32,3.5,5.9,6.18,7.66l1.1-1.67c-2.31-1.52-4.13-3.76-5.45-6.79l-1.83.8ZM309.45,54.38c2.68,1.76,5.79,2.63,9.31,2.63v-2c-3.17,0-5.9-.78-8.21-2.3l-1.1,1.67ZM318.76,57c3.52,0,6.63-.86,9.31-2.63l-1.1-1.67c-2.31,1.52-5.03,2.3-8.21,2.3v2ZM328.06,54.38c2.68-1.76,4.72-4.34,6.15-7.66l-1.84-.79c-1.3,3.02-3.11,5.27-5.42,6.78l1.1,1.67ZM334.22,46.72c1.46-3.34,2.16-7.38,2.16-12.1h-2c0,4.53-.68,8.28-1.99,11.3l1.83.8ZM357.8,65.94l-.71.7h0s0,.01,0,.01l.7-.71ZM357.8,55.14l-.7-.71h0s.71.71.71.71ZM368.6,55.14l-.7.72h0l.7-.72ZM369.81,64.38l-.85-.53h0s.85.53.85.53ZM367.03,67.16l.51.86h.01s-.52-.86-.52-.86ZM363.23,67.18c-1.85,0-3.4-.64-4.73-1.95l-1.4,1.42c1.7,1.67,3.76,2.53,6.14,2.53v-2ZM358.51,65.24c-1.31-1.33-1.95-2.89-1.95-4.73h-2c0,2.37.85,4.44,2.53,6.14l1.42-1.4ZM356.56,60.51c0-1.82.64-3.36,1.95-4.66l-1.41-1.41c-1.68,1.68-2.53,3.72-2.53,6.08h2ZM358.5,55.85c1.33-1.31,2.89-1.95,4.73-1.95v-2c-2.38,0-4.44.85-6.14,2.53l1.4,1.42ZM363.23,53.9c1.77,0,3.32.63,4.67,1.95l1.39-1.43c-1.71-1.66-3.75-2.52-6.07-2.52v2ZM367.9,55.86c1.35,1.31,2,2.84,2,4.65h2c0-2.37-.88-4.41-2.6-6.09l-1.39,1.43ZM369.9,60.51c0,1.22-.31,2.33-.94,3.34l1.7,1.05c.82-1.33,1.24-2.81,1.24-4.39h-2ZM368.96,63.86c-.62,1.02-1.43,1.83-2.45,2.45l1.04,1.71c1.29-.79,2.33-1.83,3.11-3.11l-1.71-1.04ZM366.52,66.3c-.99.59-2.08.88-3.29.88v2c1.56,0,3-.39,4.31-1.16l-1.02-1.72Z"/>
  </g>
  <path class="cls-2" d="M49.75,94.35v-8.21l32.66-45.83h-32.73v-11.41h50.11v8.21l-32.7,45.83h32.76v11.41h-50.11ZM110.49,94.35V28.89h44.1v11.41h-30.27v15.6h28v11.41h-28v15.63h30.39v11.41h-44.23ZM165.59,94.35V28.89h13.84v54.04h28.06v11.41h-41.9ZM216.66,94.35V28.89h44.1v11.41h-30.27v15.6h28v11.41h-28v15.63h30.39v11.41h-44.23ZM326.51,28.89v65.45h-11.95l-28.48-41.2h-.48v41.2h-13.84V28.89h12.15l28.25,41.16h.58V28.89h13.77ZM398.1,61.62c0,7.14-1.35,13.21-4.06,18.22-2.68,5.01-6.35,8.83-10.99,11.47-4.62,2.62-9.82,3.93-15.6,3.93s-11.04-1.32-15.66-3.96c-4.62-2.64-8.28-6.47-10.96-11.47-2.68-5.01-4.03-11.07-4.03-18.19s1.34-13.21,4.03-18.22c2.68-5.01,6.34-8.82,10.96-11.44,4.62-2.64,9.84-3.96,15.66-3.96s10.97,1.32,15.6,3.96c4.65,2.62,8.31,6.43,10.99,11.44,2.71,5.01,4.06,11.08,4.06,18.22ZM384.07,61.62c0-4.62-.69-8.52-2.08-11.7-1.36-3.17-3.29-5.58-5.78-7.22-2.49-1.64-5.41-2.46-8.76-2.46s-6.26.82-8.76,2.46c-2.49,1.64-4.43,4.05-5.82,7.22-1.36,3.17-2.05,7.07-2.05,11.7s.68,8.52,2.05,11.7c1.38,3.17,3.32,5.58,5.82,7.22,2.49,1.64,5.41,2.46,8.76,2.46s6.26-.82,8.76-2.46c2.49-1.64,4.42-4.05,5.78-7.22,1.39-3.17,2.08-7.07,2.08-11.7ZM411.92,95.18c-2.11,0-3.92-.75-5.43-2.24-1.49-1.51-2.24-3.32-2.24-5.43s.74-3.88,2.24-5.37c1.51-1.49,3.32-2.24,5.43-2.24s3.84.75,5.37,2.24c1.53,1.49,2.3,3.28,2.3,5.37,0,1.41-.36,2.69-1.09,3.87-.7,1.15-1.63,2.08-2.78,2.78-1.15.68-2.42,1.02-3.8,1.02Z"/>
  <g class="cls-7">
    <path class="cls-4" d="M98.44,121.35h-1v1h1v-1ZM98.44,113.14l-.82-.58-.18.26v.32h1ZM131.11,67.3l.82.58,1.13-1.58h-1.94v1ZM98.38,67.3h-1v1h1v-1ZM98.38,55.89v-1h-1v1h1ZM148.49,55.89h1v-1h-1v1ZM148.49,64.11l.81.58.19-.26v-.32h-1ZM115.8,109.94l-.81-.58-1.13,1.58h1.94v-1ZM148.56,109.94h1v-1h-1v1ZM148.56,121.35v1h1v-1h-1ZM99.44,121.35v-8.21h-2v8.21h2ZM99.26,113.72l32.66-45.83-1.63-1.16-32.66,45.83,1.63,1.16ZM131.11,66.3h-32.73v2h32.73v-2ZM99.38,67.3v-11.41h-2v11.41h2ZM98.38,56.89h50.11v-2h-50.11v2ZM147.49,55.89v8.21h2v-8.21h-2ZM147.68,63.53l-32.7,45.83,1.63,1.16,32.7-45.83-1.63-1.16ZM115.8,110.94h32.76v-2h-32.76v2ZM147.56,109.94v11.41h2v-11.41h-2ZM148.56,120.35h-50.11v2h50.11v-2ZM159.18,121.35h-1v1h1v-1ZM159.18,55.89v-1h-1v1h1ZM203.28,55.89h1v-1h-1v1ZM203.28,67.3v1h1v-1h-1ZM173.01,67.3v-1h-1v1h1ZM173.01,82.9h-1v1h1v-1ZM201.01,82.9h1v-1h-1v1ZM201.01,94.31v1h1v-1h-1ZM173.01,94.31v-1h-1v1h1ZM173.01,109.94h-1v1h1v-1ZM203.41,109.94h1v-1h-1v1ZM203.41,121.35v1h1v-1h-1ZM160.18,121.35V55.89h-2v65.45h2ZM159.18,56.89h44.1v-2h-44.1v2ZM202.28,55.89v11.41h2v-11.41h-2ZM203.28,66.3h-30.27v2h30.27v-2ZM172.01,67.3v15.6h2v-15.6h-2ZM173.01,83.9h28v-2h-28v2ZM200.01,82.9v11.41h2v-11.41h-2ZM201.01,93.31h-28v2h28v-2ZM172.01,94.31v15.63h2v-15.63h-2ZM173.01,110.94h30.39v-2h-30.39v2ZM202.41,109.94v11.41h2v-11.41h-2ZM203.41,120.35h-44.23v2h44.23v-2ZM214.28,121.35h-1v1h1v-1ZM214.28,55.89v-1h-1v1h1ZM228.12,55.89h1v-1h-1v1ZM228.12,109.94h-1v1h1v-1ZM256.18,109.94h1v-1h-1v1ZM256.18,121.35v1h1v-1h-1ZM215.28,121.35V55.89h-2v65.45h2ZM214.28,56.89h13.84v-2h-13.84v2ZM227.12,55.89v54.04h2v-54.04h-2ZM228.12,110.94h28.06v-2h-28.06v2ZM255.18,109.94v11.41h2v-11.41h-2ZM256.18,120.35h-41.9v2h41.9v-2ZM265.35,121.35h-1v1h1v-1ZM265.35,55.89v-1h-1v1h1ZM309.45,55.89h1v-1h-1v1ZM309.45,67.3v1h1v-1h-1ZM279.19,67.3v-1h-1v1h1ZM279.19,82.9h-1v1h1v-1ZM307.18,82.9h1v-1h-1v1ZM307.18,94.31v1h1v-1h-1ZM279.19,94.31v-1h-1v1h1ZM279.19,109.94h-1v1h1v-1ZM309.58,109.94h1v-1h-1v1ZM309.58,121.35v1h1v-1h-1ZM266.35,121.35V55.89h-2v65.45h2ZM265.35,56.89h44.1v-2h-44.1v2ZM308.45,55.89v11.41h2v-11.41h-2ZM309.45,66.3h-30.27v2h30.27v-2ZM278.19,67.3v15.6h2v-15.6h-2ZM279.19,83.9h28v-2h-28v2ZM306.18,82.9v11.41h2v-11.41h-2ZM307.18,93.31h-28v2h28v-2ZM278.19,94.31v15.63h2v-15.63h-2ZM279.19,110.94h30.39v-2h-30.39v2ZM308.58,109.94v11.41h2v-11.41h-2ZM309.58,120.35h-44.23v2h44.23v-2ZM375.2,55.89h1v-1h-1v1ZM375.2,121.35v1h1v-1h-1ZM363.25,121.35l-.82.57.3.43h.52v-1ZM334.77,80.15l.82-.57-.3-.43h-.52v1ZM334.29,80.15v-1h-1v1h1ZM334.29,121.35v1h1v-1h-1ZM320.45,121.35h-1v1h1v-1ZM320.45,55.89v-1h-1v1h1ZM332.6,55.89l.83-.57-.3-.43h-.53v1ZM360.85,97.06l-.82.57.3.43h.53v-1ZM361.43,97.06v1h1v-1h-1ZM361.43,55.89v-1h-1v1h1ZM374.2,55.89v65.45h2V55.89h-2ZM375.2,120.35h-11.95v2h11.95v-2ZM364.07,120.78l-28.48-41.2-1.65,1.14,28.48,41.2,1.65-1.14ZM334.77,79.15h-.48v2h.48v-2ZM333.29,80.15v41.2h2v-41.2h-2ZM334.29,120.35h-13.84v2h13.84v-2ZM321.45,121.35V55.89h-2v65.45h2ZM320.45,56.89h12.14v-2h-12.14v2ZM331.77,56.46l28.25,41.16,1.65-1.13-28.25-41.16-1.65,1.13ZM360.85,98.06h.58v-2h-.58v2ZM362.43,97.06v-41.16h-2v41.16h2ZM361.43,56.89h13.77v-2h-13.77v2ZM442.73,106.84l-.88-.47h0s.88.47.88.47ZM431.73,118.31l.49.87h0s-.49-.87-.49-.87ZM400.48,118.28l.5-.87-.5.87ZM389.51,106.81l-.88.47h0l.88-.47ZM389.51,70.4l.88.47h0l-.88-.47ZM400.48,58.96l.49.87h0s-.5-.87-.5-.87ZM431.73,58.96l-.5.87h0s.49-.87.49-.87ZM442.73,70.4l-.88.47h0s.88-.47.88-.47ZM430.68,76.92l-.92.39h0s.92-.39.92-.39ZM424.89,69.7l-.55.84h0l.55-.84ZM407.38,69.7l.55.84h0l-.55-.84ZM401.56,76.92l-.92-.4h0s.92.4.92.4ZM401.56,100.32l-.92.39h0s.92-.39.92-.39ZM407.38,107.54l.55-.83h0l-.55.83ZM424.89,107.54l-.55-.83h0l.55.83ZM430.68,100.32l-.92-.4h0s.92.4.92.4ZM445.79,88.62c0,7.01-1.33,12.91-3.94,17.74l1.76.95c2.8-5.18,4.18-11.43,4.18-18.69h-2ZM441.85,106.37c-2.6,4.85-6.14,8.53-10.61,11.08l.99,1.74c4.82-2.74,8.61-6.71,11.38-11.87l-1.76-.94ZM431.24,117.44c-4.46,2.53-9.49,3.8-15.1,3.8v2c5.93,0,11.3-1.35,16.09-4.06l-.99-1.74ZM416.13,121.24c-5.66,0-10.7-1.28-15.16-3.83l-.99,1.74c4.79,2.74,10.18,4.1,16.16,4.1v-2ZM400.97,117.41c-4.45-2.54-7.97-6.22-10.58-11.08l-1.76.94c2.77,5.16,6.55,9.13,11.35,11.87l.99-1.74ZM390.39,106.34c-2.59-4.83-3.91-10.72-3.91-17.71h-2c0,7.24,1.36,13.47,4.15,18.66l1.76-.94ZM386.49,88.62c0-7.01,1.32-12.92,3.91-17.75l-1.76-.94c-2.78,5.18-4.15,11.43-4.15,18.69h2ZM390.39,70.88c2.6-4.85,6.13-8.52,10.57-11.04l-.99-1.74c-4.8,2.72-8.58,6.68-11.35,11.84l1.76.94ZM400.97,59.83c4.46-2.55,9.51-3.83,15.16-3.83v-2c-5.97,0-11.37,1.36-16.16,4.09l.99,1.74ZM416.13,56c5.62,0,10.64,1.28,15.1,3.83l.99-1.74c-4.79-2.74-10.16-4.09-16.09-4.09v2ZM431.24,59.83c4.47,2.52,8,6.19,10.6,11.04l1.76-.94c-2.77-5.16-6.56-9.12-11.39-11.84l-.98,1.74ZM441.85,70.88c2.61,4.83,3.94,10.73,3.94,17.74h2c0-7.26-1.38-13.51-4.18-18.69l-1.76.95ZM433.75,88.62c0-4.72-.71-8.76-2.16-12.1l-1.83.8c1.32,3.01,1.99,6.77,1.99,11.3h2ZM431.6,76.53c-1.43-3.33-3.47-5.9-6.15-7.66l-1.1,1.67c2.3,1.52,4.12,3.76,5.42,6.78l1.84-.79ZM425.44,68.87c-2.67-1.76-5.79-2.63-9.31-2.63v2c3.17,0,5.9.78,8.21,2.3l1.1-1.67ZM416.13,66.24c-3.52,0-6.63.86-9.31,2.63l1.1,1.67c2.31-1.52,5.03-2.3,8.21-2.3v-2ZM406.83,68.87c-2.68,1.76-4.73,4.34-6.18,7.66l1.83.8c1.32-3.03,3.14-5.27,5.45-6.79l-1.1-1.67ZM400.64,76.53c-1.43,3.33-2.13,7.38-2.13,12.09h2c0-4.53.67-8.29,1.96-11.3l-1.84-.79ZM398.52,88.62c0,4.72.69,8.76,2.13,12.09l1.84-.79c-1.3-3.02-1.96-6.77-1.96-11.3h-2ZM400.64,100.72c1.45,3.32,3.5,5.89,6.18,7.66l1.1-1.67c-2.31-1.52-4.13-3.76-5.45-6.79l-1.83.8ZM406.83,108.38c2.67,1.76,5.79,2.62,9.31,2.62v-2c-3.17,0-5.9-.78-8.21-2.3l-1.1,1.67ZM416.13,111c3.52,0,6.63-.87,9.31-2.62l-1.1-1.67c-2.31,1.52-5.03,2.3-8.21,2.3v2ZM425.44,108.38c2.68-1.77,4.73-4.34,6.15-7.66l-1.84-.79c-1.3,3.02-3.11,5.27-5.42,6.78l1.1,1.67ZM431.59,100.72c1.45-3.33,2.16-7.38,2.16-12.1h-2c0,4.53-.68,8.28-1.99,11.3l1.83.8ZM455.18,119.94l-.71.7h0s0,0,0,0l.7-.71ZM455.18,109.14l-.7-.71h0s.71.71.71.71ZM465.98,109.14l-.7.72h0l.7-.72ZM467.19,118.38l-.85-.53h0s.85.53.85.53ZM464.41,121.16l.51.86h.01s-.52-.86-.52-.86ZM460.61,121.18c-1.84,0-3.4-.64-4.73-1.95l-1.4,1.42c1.7,1.67,3.76,2.52,6.14,2.52v-2ZM455.89,119.24c-1.31-1.33-1.95-2.89-1.95-4.73h-2c0,2.37.85,4.44,2.52,6.14l1.42-1.4ZM453.94,114.51c0-1.82.64-3.36,1.94-4.66l-1.41-1.41c-1.68,1.68-2.53,3.72-2.53,6.08h2ZM455.88,109.85c1.33-1.31,2.89-1.95,4.73-1.95v-2c-2.37,0-4.44.85-6.14,2.52l1.4,1.42ZM460.61,107.9c1.77,0,3.32.63,4.67,1.95l1.4-1.43c-1.71-1.66-3.75-2.52-6.07-2.52v2ZM465.28,109.86c1.35,1.31,2,2.84,2,4.65h2c0-2.37-.88-4.41-2.6-6.09l-1.4,1.43ZM467.28,114.51c0,1.22-.31,2.33-.94,3.34l1.7,1.05c.82-1.33,1.24-2.81,1.24-4.39h-2ZM466.34,117.86c-.62,1.01-1.43,1.83-2.45,2.45l1.04,1.71c1.29-.79,2.33-1.83,3.11-3.11l-1.71-1.04ZM463.9,120.3c-.99.59-2.08.88-3.29.88v2c1.56,0,3-.39,4.31-1.16l-1.02-1.72Z"/>
  </g>
</svg>