<?xml version="1.0" encoding="UTF-8"?>
<svg id="Layer_1" data-name="Layer 1" xmlns="http://www.w3.org/2000/svg" viewBox="0 0 374 372">
  <defs>
    <style>
      .cls-1 {
        fill: none;
        stroke: #6ec173;
        stroke-miterlimit: 10;
      }

      .cls-2 {
        fill: #f15e22;
        stroke-width: 0px;
      }
    </style>
  </defs>
  <rect class="cls-1" x=".5" y="281.5" width="90" height="90" transform="translate(-281 372) rotate(-90)"/>
  <rect class="cls-1" x="141.5" y="281.5" width="90" height="90" transform="translate(-140 513) rotate(-90)"/>
  <rect class="cls-1" x="283.5" y="281.5" width="90" height="90" transform="translate(2 655) rotate(-90)"/>
  <rect class="cls-1" x=".5" y="140.5" width="90" height="90" transform="translate(-140 231) rotate(-90)"/>
  <rect class="cls-1" x="141.5" y="141.5" width="90" height="90" transform="translate(0 373) rotate(-90)"/>
  <rect class="cls-2" x="283.5" y="141.5" width="90" height="90" rx="45" ry="45" transform="translate(142 515) rotate(-90)"/>
  <rect class="cls-1" x=".5" y=".5" width="90" height="90" transform="translate(0 91) rotate(-90)"/>
  <rect class="cls-1" x="141.5" y=".5" width="90" height="90" transform="translate(141 232) rotate(-90)"/>
  <rect class="cls-1" x="283.5" y=".5" width="90" height="90" transform="translate(283 374) rotate(-90)"/>
</svg>