<?xml version="1.0" encoding="UTF-8"?>
<svg id="Layer_1" data-name="Layer 1" xmlns="http://www.w3.org/2000/svg" viewBox="0 0 659.12 659.12">
  <defs>
    <style>
      .cls-1 {
        fill: #52e17a;
        stroke-width: 0px;
      }

      .cls-2 {
        fill: none;
        stroke: #52e17a;
        stroke-miterlimit: 10;
        stroke-width: 1.64px;
      }
    </style>
  </defs>
  <path class="cls-1" d="M587.49,521.01c-1.13-108.08-23.13-120.65-108.82-174.76-27.09-41.96,4.51-89.9,15.23-18.01,7.36,13.36,28.89,7.16,32.66,23.76-2.53,28.24,20.92,28.71,34.6,46.25,10.38-2.32-16.62-18.81-22.28-20.47-12.46-8.08-3.82-26.86-14.71-36.18-49.67-16.69-13.7-32.41-49.9-59-.42-34.15-21.19-64.01-15.48-99.39-33.96-51.56-44.16-146.51-119.81-150.3-37.33,7.41,39.78-10.03,65.39,46.19,17.04,45.62,55.92,87.14,51.16,137.02,2.16,22.39,17.97,41.98,15.79,64.98-1.81,15.45-10,30.73-4.89,46.38,21.77,38.27,15.54,83.17,35.83,122.77.85,1.86,3.6.24,2.75-1.61-7.67-15.85-11.53-33.05-15.05-50.17-9.52-15.61.24-34.32-10.1-49.89,173.94,110.33,33.37,79.86-7.14,207.96-.6,1.96,2.47,2.8,3.07.84,5.25-17.17,13.89-33.05,24.34-47.59,18.64-30.23,52.42-48.75,69.74-79.12,17.94,27.39,8.97,60.76,14.56,91.17.4,2.01,3.47,1.16,3.07-.85Z"/>
  <path class="cls-1" d="M204.67,325.59c-8.56-21-20.57-45.84-1.74-65.39,1.35-1.53-.89-3.79-2.25-2.25-24.76,23.78.07,51.89,1.05,77.59-4.08,9.15-16.42,6.31-24.11,9.8-9.02-.28-15.89,28.46-7.48,21.34-7.36-28.47,43.74-12.4,34.53-41.09Z"/>
  <path class="cls-1" d="M283.14,392.89c-13.45-30.13-35.58-58.5-37.53-92.36-5.49-5.85-2.3,10.13-1.74,12.94-11.27,12.75,3.06,39.55,1.61,56.37-15.54,25.43-31.46,40.75-13.32,71.37-1.1,14.46-4.72,29.2-.1,43.66,6.88,3.4-1.27-15.77.81-20.41,6.58-20.29-4.99-36.1-5.99-55.65,35.59-58.91,15.33-31.47,17.39-93.45,7.23,28.23,23.82,52.96,36.12,79.13.93,1.83,3.68.22,2.75-1.61Z"/>
  <path class="cls-1" d="M451.08,271.17c-3.65-32.8-21.99-60.21-35.08-89.49-7.69-26.71,7.22-61.26-17.18-81.82-22.74-13.75-52.92.82-75.85-15.56-5.81-16.91,9.99-38.38,1.24-52.7-71.11-8.7-130.73,46.5-156.91,108.25-10.19,23.39-26.77,44.86-32.07,69.98,8.48,23.59-8.13,38.24-13.11,59.65,17.99,80.05,4.41,53.33-2.91,126.32-7.97,12.68-33.49,7.56-33.64,26.57,4.25,8.47.27,14.96-1.74,24.17-4.02.66-1.67,27.06-2.12,34.64,6.33,5.31,1.05-24.01,4.35-29.13,56.87,39.42,48.58,118.72,75.88,177.02-1.25-32.8-27.98-87.84-33.88-129.26,1.18.67,3-.69,2.16-2.2-8.85-14.14-8.87-31.99-13.12-47.92-8.05-1.09,4.17,25.99,3.8,33.29-13.2-22.43-41.51-27.64-29.76-55.55-12.1-25.69,44.56-13.22,31.92-49.28,27.31-73.96-4.34-66.69,5.77-120.99,11.27-14.29,14.14-29.21,9.54-46.62C162.46,135.91,237.6,5.03,323.59,41.02c.41-2.56-1.61-10.15-3.65-4.43,5.56,66.94-33.19,30.52-67.55,51.8-28.43,35.21-48.8,26.26-63.69,75.01-4.82,20.92-1.81,42.26-2.88,63.42-1.31,13.86-10.66,24.65-16.38,36.83-10.3,18.74-2.43,40.82-10.63,59.99-3.63,7.65-16.75,40.82-5.89,37.87-2.05-25.39,18.5-47.06,13.45-73.54.19-21.07,16.68-36.2,21.75-55.65,3.38-22.89-2.01-46.4,3.85-69.18,8.74-20.39,16.11-40.72,38.81-47.67,12.14-8.79,18.29-24.75,32.99-29.98,21.28-7.63,50.19,11.11,55.46-17.15-1.68,3.24,1.98,15.76-1.95,12.64-1.73-1.11-3.33,1.64-1.61,2.75,14.89,9.59,32.58,13.99,50.37,13.29,61.14-9.96,35.4,61.34,50.55,94.78-32.04,29.36-14.05,97.06-60.68,120.17-45.95,37.91-124.58-7.44-135.76-60.03-3-21.09-7.78-42.16-9.25-63.37,8.09-20.94,19.9-41.71,15.62-65.36-.23-2.01-3.41-2.03-3.18,0,5.1,24.58-9.8,44.98-15.69,67.14,3.48,25.29,6.33,51.12,12.82,75.86,19.81,40.75,81.74,81.02,125.67,55.38,55.2-21.8,43.87-87.25,70.71-129.26,14.33,24.83,27.16,50.94,31.15,79.69.33,2.02,3.4,1.16,3.07-.85Z"/>
  <path class="cls-1" d="M446.82,371.72c-3.04-17-10.65-32.87-11.84-50.29-3.97-7.83,5.12-41.68-1.79-39.35-11.73,46.84,24.43,91.11,3.28,136.71-3.11,5.44-10.13,40.8-.26,32.59-7.01-25.82,16.63-52.41,10.61-79.65Z"/>
  <path class="cls-1" d="M414.43,473.78c-47.41-34.28,9.82-91.28-8.16-136.64-8.68-6.43,7.48,46.73-6.16,60.1-10.67,25.62-15.3,63.08,12.71,79.29,1.8.98,3.41-1.76,1.61-2.75Z"/>
  <path class="cls-1" d="M387.02,302.13c-10.32-5.08,3.93,34.57-8.13,40.09-48.48,19.37-19.37,57.99-9.09,89.25-2.18,34.05-27.85-20.5-43.27-23.04-12.17,2.07-23.63,7.94-35.5,11.44,7.53-18.92,32.47-8.92,41.01-26.21,3.79-6.29,6.49-15.47,13.91-18.45,1.88-.76,1.06-3.84-.85-3.07-6.78,2.73-10.08,9.24-13.3,15.37-9.67,20.54-37.29,13.02-47.74,34.79-9.21-3.74-38.32-42.58-41.62-34.75,13.12,12.61,25.7,26.03,39.88,37.43-7.58,17.56-34.41,1.11-44.38-6.6-8.44,5.9,40.18,27.42,45.59,11.18,33.66,53.12,36.64,85.5,32.38,147.05,14.62-38.44.06-112.24-31.44-148.54,10.62-8.66,29.33-13.24,43.44-16.26,11.18,5.37,41.7,56.92,43.89,26.82.37,15.85-7.47,31.95-21.13,40.32-1.74,1.07-.15,3.82,1.61,2.75,20.75-12.69,28.69-41.38,17.63-62.96-48.53-79.7,28.84-46.15,17.11-116.59Z"/>
  <path class="cls-1" d="M269.21,438.78c.91,48.33-8.31,100.09-9.33,146.25,6.78-42.65,17.27-111.04,9.33-146.25Z"/>
  <path class="cls-1" d="M299.66,470.1c-5.87-11.71-18.3,4.43-7.9,8.4,3.94,1.3,11.13-5.55,7.9-8.4ZM292.08,472.99c-.19-1.51,3.02-1.13,4.09-.76-1.04.95-2.96,2.24-4.09.76Z"/>
  <path class="cls-1" d="M294.74,552.92c-2.96-8.46-11.76,1.43-12.32,6.8,3.94,7.87,19.55,1.35,12.32-6.8ZM291.54,554.74c-.13,1.31-3.73,1.03-2.03.06.47-.14,2.37-1.1,2.03-.06ZM292.84,558.62c-1.15,2.41-8.59,1.84-6.36-1.17,1.79,1.78,4.98,1.87,6.83.15-.08.39-.25.71-.48,1.02Z"/>
  <path class="cls-1" d="M373.44,306.2c-6.76-4.62-.82,23.28-6.78,28.42-3.9,7.94-12.3,18.53-17.16,26.04-1.17,1.69,1.59,3.28,2.75,1.61,15.45-23.2,22.39-26.24,21.2-56.06Z"/>
  <path class="cls-1" d="M392.13,177.3c-29.62-44.7-96.19,14.83-31.14-.74,12.18-7.03,30.51,12.35,31.14.74ZM379.45,173.72c-13.59-4.6-28.13,2.71-41.77,4.18.83-21.91,43.83-16.22,51.52.74-3.43-1.25-6.41-3.45-9.74-4.93Z"/>
  <path class="cls-1" d="M299.74,163.98c-18.11-8.73-73.16-12.14-66.56,14.19,14.69-17.73,72.55,13.47,66.56-14.19ZM296.26,172.64c-19.68-.33-41.76-7.43-60.99.41,5.47-17.62,64.95-16.31,60.99-.41Z"/>
  <path class="cls-1" d="M294.66,195.1c-9.25-5.2-18.23-12.19-29.09-13.33,9.13-.4,17.59,3.46,24.68,8.97,1.67,1.2,3.26-1.56,1.61-2.75-11.34-11.06-46.33-15.55-47.86,2.1-2.43,1.06-5.98,6.24-.89,4.88,8.1-1.59,16.67,5.86,25.29,7,2.96-.61,31.95-4.09,26.27-6.87ZM266.83,185.1c20.54,1.18-3.88,20.4-3.52,2.76-.12-1.99,1.75-3.34,3.52-2.76ZM254.99,182.42c1.81-.74,3.94-.57,5.86-.62-4.65.48-9.11,2.58-12.93,5.3,2.15-1.89,4.54-3.65,7.07-4.68ZM279.6,196.44c-11.52,7.07-21.55-4.04-32.77-4.55,10.31-7.72,12.92-8.99,15.07,3.66,4.87,5.82,17.86,2.07,16.24-6.35,3.35,1.77,6.6,3.72,9.87,5.65-2.85.19-5.65.61-8.41,1.59Z"/>
  <path class="cls-1" d="M381.52,188.97c-14.52-8.08-33.86-10.65-46.02,2.97-1.4,1.49.87,3.72,2.27,2.23,15.3-20.79,47.56,3.95,43.75-5.2Z"/>
  <path class="cls-1" d="M380.8,196.52c-11.19-6.68-22.7-14.51-35.47-5.74-2.73,3.64-12.89,2.46-11.54,7.56-3.02,5.61,30.88,9.28,35.08,5.07,2.47-2.99,16.65-2.16,11.93-6.88ZM363.52,191.43c1.46,2.13.41,4.58-1.27,6.2-12.86,9.17-13.48-13.33,1.27-6.2ZM338.93,198.1c3.47-1.24,6.7-3.44,10.06-5.13-.32,3.19.79,6.44,2.82,8.53-4.22-1.48-8.4-3.31-12.88-3.39ZM369.95,199.01c-2.11.95-4.3,1.74-6.53,2.3,2.2-1.98,4.29-5.05,3.99-8.41,2.39,1.11,4.69,2.56,6.87,4.18-1.45.56-2.88,1.28-4.32,1.93Z"/>
  <path class="cls-1" d="M307,197.47c.04-4.29-10.47-22.66-11.74-14.1,5.61,1.56,7.92,20.52,11.74,14.1Z"/>
  <path class="cls-1" d="M331.31,184.42c-7.05,1.49-20.1,29.36-10.41,25.57-4.14-9.53,17.57-25.67,10.41-25.57Z"/>
  <path class="cls-1" d="M338.45,234.67c-.98-2.52-9.08-12.29-8.13-5.1,4.01,3.29,12.55,15.37,1.86,14.42-3.14-9.2-12.66,1.73-18.6,1.3-4.01,1.81-11.03-4.92-15.48-7.01-.1-.06-.21-.12-.32-.16-.04-.01-.08-.02-.12-.03-1.39-.57-2.49-.6-3.1.37-.69.35-1.36.83-2.11.98-.24.05-.24.02-.44-.08-.23-.12-.39-.3-.52-.58-.21-.43-.15-1.12.08-1.67.68-1.61,2.45-2.69,3.76-3.73,1.49-1.18,3.2-2.29,4.17-3.97.97-1.68-1.62-3.19-2.59-1.51-.48.82-1.24,1.41-1.98,2-.89.71-1.79,1.42-2.68,2.13-1.7,1.35-3.44,2.93-3.81,5.19-.35,2.14.71,4.54,2.96,5.11,1.19.3,2.32-.06,3.37-.61.38-.2.76-.45,1.14-.61l1.61.28c8.92,8.93,18.81,8.41,29.57,2.27,5.61,9.48,19.19-.63,11.34-8.97Z"/>
  <path class="cls-1" d="M354.5,265.97c-23.88-.75-46.48-8.57-70.6-4.74-3.6,1.63-16.67-6.71-13.98-.12,31.03,36.66,52.31,41.24,84.58,4.86ZM317.91,264.88c2.19-.71,4.31-.81,6.39-.55-3.26.83-6.58,1.42-9.91,1.53,1.17-.23,2.34-.6,3.52-.98ZM302.51,262.96c2.84.54,5.19,2.38,8.01,2.94-5,.26-9.52-1.86-14.26-3.05,2.09-.24,4.18-.3,6.25.11ZM284.93,264.47c21.18,6.19,41.4,1.84,62.61,4.74-21.03,10.8-46.57,8.16-66.14-4.83,1.17.1,2.35.13,3.53.08ZM319.06,287.9c-15.31,2.57-28.53-8.16-37.27-19.57,16.99,10.26,37.33,14.2,56.4,7.84-5.68,5.13-11.28,10.38-19.13,11.74Z"/>
  <rect class="cls-2" x=".82" y=".82" width="657.47" height="657.47"/>
</svg>