<?xml version="1.0" encoding="UTF-8"?>
<svg id="Layer_1" data-name="Layer 1" xmlns="http://www.w3.org/2000/svg" viewBox="0 0 659.12 659.12">
  <defs>
    <style>
      .cls-1 {
        fill: #52e17a;
        stroke-width: 0px;
      }

      .cls-2 {
        fill: none;
        stroke: #52e17a;
        stroke-miterlimit: 10;
        stroke-width: 1.64px;
      }
    </style>
  </defs>
  <rect class="cls-2" x=".82" y=".82" width="657.47" height="657.47"/>
  <g>
    <path class="cls-1" d="M637.27,576.83c-3.73-14.23-7.55-28.71-13.9-42.03,4.66,1.47-6.88-36.85-6.05-37.65-1.88-12.79-6.99-25.61-20.34-29.64-6.71-9.37,3.45-26.35-9.74-34.22-27.55-6.19-19.72-18.16-18.95-40.58-.22-11.05-5.2-20.94-10.2-30.51-8.32-21.91-4.93-46.42-8.21-69.35.22-20.82-21.92-30.46-26.54-49.55-12.85-59.71-8.24-52.4-47.37-99.14-15.97-43.31-52.48-79.07-99.75-84.25-4.29-1.37-19.94-1.79-13.29,2.56,45.91.03,88.96,30.55,105.2,73.34,6.63,19.55,24.72,30.82,35.43,47.61,13.48,23.43,8.55,53.4,23.77,76.1,27.44,22.94,18.2,59.32,23.65,90.8,2.59,16.24,15.63,29.4,13.93,46.61-7.65,49.5,12.88,23.32,25.84,47.4,2.48,14.45-4.87,24.81,13.48,30.82,12.56,14.4,11.02,36.93,16.56,54.58-23.29-43.86-76.45-53.74-113.52-81.91-14.57-9.7-24.54-30.01-43.15-31.72-2.14-2.32-13.11-3.7-7.36,1,28.89,8.26,9.97,44.75-9.5,53.26-28.3,15-63.98,18.32-94.9,10.48-4.06.24-28.73-15.1-24.17-6.38,36.59,19.74,83.81,17.83,120.43-.92,17.54-9.57,36.1-33.91,20.92-52.86,18.84,9.81,30.37,29.86,49.76,39.42-36.55,63.55-119.66,83.3-183.79,55.16,1.78-12.56-5.59-24.74-11.8-34.65,12.92-39.34-25.12-73.45-18.85-112.5,28.55,25.12,53.05,28.85,84.07,4.9,15.44-11.17,34.67-16.18,49.37-28.41-3.47,25.85,1.86,77.9,29.8,88.87,2.08.75,2.97-2.55.91-3.3-27.47-13.51-25.97-51.99-29.03-78.38,3.51-13.09,13.23-23.93,10.81-38.58,17.48-.69,12.65-22.04,10.88-31.95,14.39-15.25,25.33-38.06,23.69-59.37-.22-10.04-14.19-23.35-21.01-10.47-1.52,14.46-15.61,14.5-19.75,1.41-2.27-8.09-2.66-16.75-6.97-24.18-9.66-14.15-15.42-27.78-16.74-44.7-3.92-6.74-12.41-7.98-18.52-12-17.57-12.91-34.58-30.21-58.33-28.11-27.36,6.38,27.94-47.34,14.25-43.15-54.39,71.74-10.43,27.96,27.56,62.89,6.58,5.46,13.08,11.02,20.94,14.56,8.95,2.47,13.7,9.12,12.3,18.37,1.29,16.59,15.65,28.09,19.36,43.89,1.85,7.89,1.96,17.38,9.05,22.69,7.55,6.12,17.95,2.24,18.91-7.66,8.86,3.88,10.44,11.06,10.22,20.86,8.49,8.44.68-29.18-9.72-22.33,1.44-5.32,7.17-5.36,10.44-1.66,13.95,19.63-4.26,51.16-18.25,66.49-1.58-4.88-7.76-1.04-4.93,2.89-10.36,2.31-7.2,14.63-7.28,22.49,10.1,44.47-43.32,51.1-69.85,72.33-21.95,16.47-47.44,9.18-66.17-8.24-20.87-13.46-38.16-32.12-42.81-57.22-21.95-73.27-36.45-146.27,27.38-202.59,8.7-8.2,21.21-7.1,32.18-5.55,1.4-.4,2.47-1.56,3.1-2.94,1.73-14.72,10.95-28.11,23.93-35.19,4.57-8.7-41.86-1.47-45.66,2.8-24.96,16.24-51.5,32.74-72.13,54.28-10.07,19.11-7.65,42.36-22.71,59.63-11.46,17.76-4.98,41.97-25.07,54.14-15.53,22.84,15.23,39.86-11.67,65.26-8.7,10.6-.51,23.64-4.45,35.42-4.55,14.69-14.36,27.88-14.74,43.58.55,22.79-10.98,44.18-4.4,67.4-.07,7.23-6.17,12.11-8.84,18.41-5.46,12.9-1.26,27.67-6.73,40.55-2.99,6.41-6.82,12.6-7.22,19.87-1.42,14.76,5.34,29.63.85,44.18-2.38,7.63-6.89,15.09-4.92,23.35.51,2.14,3.81,1.23,3.3-.91-1.73-7.28,2.61-14.36,4.77-21.06,4.49-13.6-.74-27.59-.78-41.4-.18-14.43,11.53-25.72,10.54-40.51.41-10.03.54-20.84,7.04-29.1,8.65-9.24,4.02-21.33,3.33-32.4-1.2-16.44,8.73-31.57,6.54-48.01.36-12.52,6.52-23.87,11.7-35.1,6.97-11.6,1.92-24.2,3.79-36.37,3.73-10.28,14.22-17.26,15.64-28.55-1.17-27.72-15.64-32.94,11.32-54.88,6.55-16.59,5.73-35.85,18.01-50.54,13.61-16.87,6.44-42.28,22.88-57.19,31.41-21.9,61.49-57.56,103.19-52.86-11.4,8.04-19.08,20.8-20.87,34.7-15.54-3.32-32.14-.05-41.04,14.18-14.33,16.59-30.79,32.53-35.48,54.87-3.62-11.72-5.44,23.17-8.88,25.57-3.83,12.55-17.41,21.57-15.7,35.6,13.86,36.55-.66,54.13-23.89,80.95-15.7,33.94,24.92,45.75-4.54,105.18-1.24,2.49-5.32,11.81.6,7.48,30.71-68.1,1.35-61.35,4.62-106.58,12.67-21.1,37.8-39.3,31.76-67.26-1.65-8.5-6.83-17.34-4.91-26.2,4.32-11.81,14.37-20.92,17.23-33.57-3.18,49.16,9.55,150.26,55.42,176.74-10.34,37.36,28.65,71.74,18.9,110.19-2.04,10.07-11.09,15.35-17.03,22.84-10.85,23.36,17.46,46.28.46,77.19,5.45,13.66,11.58-36.17,6.96-40.12-11.53-30.1-9.24-29.29,10.29-52.35,26.75,38.8-10.27,38.53,8.45,63.72,10.72,17.01-17.26,17.82-.54,48.23,10.18,4.58-12.55-19.27,6-35.37,4.79-10.58-8.46-17.94-8.28-27.97,1.55-5.57,6.98-9.7,7.43-15.73,64.46,33.52,150.54,7.45,187.02-55.18,50.73,26.37,99.33,46.14,109.96,109.22.35,2.63,3,12.25,5.06,5.77ZM450.09,293.5c-.46-4.17,1.01-8.04,5.57-8.75,3.65,6.37,6.26,25.49-5.08,23.73-.28-4.99-.65-9.98-.49-14.98Z"/>
    <path class="cls-1" d="M308.64,188.75c-16.4-7.55-38.98-6-50.76,9.58-3.61,2.1-8.24,15.97-1.19,13.27,5-6.99,12.73-15.39,21.7-15.91,10.85,6.46,38.51,16.61,30.26-6.94ZM302.86,200.53c-21.6-3.34-27.21-17.54-45.79,4.87,6.68-11.34,19.43-19.51,32.9-17.28,5.34.39,10.61,1.35,15.77,2.78,1.11,3.59,2.14,9.28-2.89,9.62Z"/>
    <path class="cls-1" d="M394.72,199.75c-18.54-4.26-30.77.33-41.19,15.9-1.79,1.25-.09,4.21,1.72,2.95,5.64-3.7,7.47-11.13,13.44-14.4,3.66-4.95,33.32,1.94,26.03-4.45Z"/>
    <path class="cls-1" d="M408.12,213.06c-17.66-6.36-37.67-6.67-51.23,8-1.81,1.23-.1,4.19,1.73,2.95,8.29-1.56,18.18,5.03,27.35,2.09,6.92-2.25,16.99-3.31,21.09-9.79,2.16.81,3.28-2.61,1.07-3.25ZM380.4,212.34c2.97-.31,5.92-.26,8.85.04-.46,3.54-1.88,8.78-5.51,10.04-4.37-1.11-8.63-4.39-7.99-9.23,1.53-.41,3.09-.69,4.66-.86ZM372.51,222.43c-3.08-.66-6.15-1.38-9.22-2.11,2.78-2.41,5.71-4.71,9.17-6.03-.5,3.66,1.88,7.02,4.92,8.87-1.63-.14-3.25-.39-4.87-.74ZM400.81,217.44c-3.68,1.59-7.4,3.13-11.26,4.27,1.74-2.67,2.77-5.71,3.06-8.88,3.75.61,7.46,1.54,11.13,2.55-.47,1.11-1.89,1.61-2.94,2.06Z"/>
    <path class="cls-1" d="M315.4,215.75c-17.07-15.98-40.71-10.15-51.7,9.45-1.49,1.62.93,4.04,2.42,2.42,24.65-39.36,49.77-.3,49.28-11.87Z"/>
    <path class="cls-1" d="M317.44,227.44c-12.51-19.03-34.34-11.06-49.06.19-2.05.75-1.16,4.06.91,3.29,14.41-.62,30.37,6.47,45.23-1.08,1.4.1,4.14-.09,2.92-2.41ZM299.57,219.42c.06,3.66-.37,10.69-5.6,9.24-5.78.3-5.42-4.41-5.43-8.65,3.51-1.14,7.44-1.3,11.03-.59ZM280.18,224.34c1.64-1.16,3.33-2.19,5.1-3.03-.01,2.83-.58,6.32,1.87,8.35-3.71-.69-7.36-1.74-11.09-2.39,1.39-.95,2.74-1.94,4.12-2.92ZM300.74,229.77c1.37-2.92,2.25-6.21,2.24-9.41,3.68,1.31,7.04,3.53,9.68,6.49-3.9,1.23-7.88,2.3-11.92,2.92Z"/>
    <path class="cls-1" d="M364.04,266.8c-.2-7.17-10.46-6.88-11.36-13.12.09-2.2-3.33-2.2-3.42,0-.09,8.81,18.29,9.89,9.17,20.18-6.75-9.17-16.78,9.71-22.59,8.07-5-.77-14.6-12.5-17.76-5.93.24,1.19-1.23,2.12-2.19,1.42-3.14-4.19,1.24-10.38,4.4-13.45,1.47-7.42-7.1,1.57-7.45,4.6-4.91,6.35,3.04,18.55,8.36,9.17,19.97,12.03,14.01,9.12,31.67-2.38,3.42,8.01,13.23-2.71,11.17-8.56Z"/>
    <path class="cls-1" d="M388.67,301.92c-16.12,2.71-31.51-9.38-46.9-1.07-15.44-5.58-24.03,4-37.53,8.41-7.26,5.53,26.03,19.45,31.7,17.98,20.45.77,38.59-9.33,53.58-22.14,1.39-.8.88-3.35-.86-3.19ZM319.14,306.12c7.69-6.17,16.08-1.61,24.48-2.17,11.8-6.96,23.72,1.28,36.02,1.56-6.34,1.72-12.86-1.19-19.22.11-7.23,1.87-14.02,5.94-21.59,2.89-10.1-1.54-19.27,7.61-29.25,2.9,3.34-1.35,6.37-3.49,9.55-5.28ZM366.13,317.04c-16.56,7.67-36.79,10.31-52.35-1.05,10.94.84,20.59-7.17,31.73-2.81,11.08-3.08,21.54-5.13,33.13-4.04-3.42,3.71-7.83,6.15-12.51,7.91Z"/>
    <path class="cls-1" d="M395.44,298.2c-1.14-10.08-21.21-18.06-5.81-4.28,4.4,6.17,3.77,14.58,3.73,21.82,6.01,7.11,3.05-14.63,2.08-17.54Z"/>
    <path class="cls-1" d="M151.95,406.96c-77.26,4.46-95.05,92.84-130.45,146.38-1.24,1.83,1.72,3.54,2.95,1.73,43.58-69.63,44.94-125.07,127.5-148.11Z"/>
    <path class="cls-1" d="M423.33,357.05c-7.68,31.43-15.41,63.15-29.14,92.59,5.61,11.8,25.16-63.03,27.23-70.67,0-3.53,9.66-27.63,1.9-21.92Z"/>
    <path class="cls-1" d="M342.65,417.85c-1.96-3.72-28.19-47.28-28.17-34.62,4.97,1.89,29.34,47.39,28.17,34.62Z"/>
    <path class="cls-1" d="M468.79,255.94c-2.95-1.68-6.38-2.38-9.74-2.03-4.47-14.54,3.07-12.33,3.37-23.42-.5-2.14-3.8-1.24-3.3.91.67,2.9-2.1,5.45-3.48,7.72-3.95,8.82,3.01,13.75-3.39,23.91,3.23,7.54,3.84-6.25,7.39-5.77,2.6-1.11,12.73,5,9.14-1.32Z"/>
    <path class="cls-1" d="M416.33,185.67c-9.44-14.5-93.69-13.63-60.75,10.97,16.31,3.76,31.03-17.14,47.75-7.22,5.62,3.2,10.79,7.43,15.61,11.71,7.15.91.95-13.03-2.61-15.46ZM401.52,184.79c-16.14-9.61-44.81,24.15-50.06.34,19.3-7.71,57.21-12.09,67.02,11.1-5.31-4.24-10.64-8.79-16.96-11.44Z"/>
    <path class="cls-1" d="M237.82,492.49c-13.91-6.04-16.34-26.51-.25-31.36,2.11-.6,1.21-3.9-.91-3.3-14.75,3.7-18.86,24.35-6.56,33.35,2.02,1.57,6.99,3.22,5.89,6.58-11.5,10.33-23.59,25.54-10.59,40.46-26.09,18.49-23.13,49.99-12.29,76.39,1.92,7.51-3.66,15.4.51,22.5,1.14,1.88,4.09.17,2.95-1.73,2.56-40-27.15-63.84,12.51-95.92-19.42-34,17.78-31.12,8.74-46.97Z"/>
  </g>
</svg>