<svg width="903" height="205" viewBox="0 0 903 205" fill="none" xmlns="http://www.w3.org/2000/svg">
<mask id="path-1-outside-1_464_1115" maskUnits="userSpaceOnUse" x="37" y="24" width="763" height="86" fill="black">
<rect fill="white" x="37" y="24" width="763" height="86"/>
<path d="M58.0508 27L77.3867 87.7812H78.1289L97.5039 27H116.254L88.6758 107H66.8789L39.2617 27H58.0508ZM142.797 27V107H125.883V27H142.797ZM182.172 107V27H236.078V40.9453H199.086V60.0078H233.305V73.9531H199.086V93.0547H236.234V107H182.172ZM249.525 107V27H281.088C287.13 27 292.286 28.0807 296.557 30.2422C300.854 32.3776 304.122 35.4115 306.361 39.3438C308.627 43.25 309.76 47.8464 309.76 53.1328C309.76 58.4453 308.614 63.0156 306.322 66.8437C304.031 70.6458 300.71 73.5625 296.361 75.5937C292.038 77.625 286.804 78.6406 280.658 78.6406H259.525V65.0469H277.924C281.153 65.0469 283.835 64.6042 285.971 63.7188C288.106 62.8333 289.695 61.5052 290.736 59.7344C291.804 57.9635 292.338 55.763 292.338 53.1328C292.338 50.4766 291.804 48.237 290.736 46.4141C289.695 44.5911 288.093 43.2109 285.932 42.2734C283.796 41.3099 281.101 40.8281 277.846 40.8281H266.439V107H249.525ZM292.729 70.5938L312.611 107H293.939L274.486 70.5938H292.729ZM346.313 107V96.9609L386.234 40.9453H346.234V27H407.484V37.0391L367.523 93.0547H407.563V107H346.313ZM420.541 107V27H474.447V40.9453H437.455V60.0078H471.674V73.9531H437.455V93.0547H474.604V107H420.541ZM487.895 107V27H504.809V93.0547H539.105V107H487.895ZM550.307 107V27H604.213V40.9453H567.221V60.0078H601.439V73.9531H567.221V93.0547H604.369V107H550.307ZM684.574 27V107H669.965L635.16 56.6484H634.574V107H617.66V27H632.504L667.035 77.3125H667.738V27H684.574ZM772.064 67C772.064 75.724 770.411 83.1458 767.104 89.2656C763.822 95.3854 759.343 100.06 753.666 103.289C748.015 106.492 741.661 108.094 734.604 108.094C727.494 108.094 721.114 106.479 715.463 103.25C709.812 100.021 705.346 95.3464 702.064 89.2266C698.783 83.1068 697.143 75.6979 697.143 67C697.143 58.276 698.783 50.8542 702.064 44.7344C705.346 38.6146 709.812 33.9531 715.463 30.75C721.114 27.5208 727.494 25.9062 734.604 25.9062C741.661 25.9062 748.015 27.5208 753.666 30.75C759.343 33.9531 763.822 38.6146 767.104 44.7344C770.411 50.8542 772.064 58.276 772.064 67ZM754.916 67C754.916 61.349 754.07 56.5833 752.377 52.7031C750.71 48.8229 748.354 45.8802 745.307 43.875C742.26 41.8698 738.692 40.8672 734.604 40.8672C730.515 40.8672 726.947 41.8698 723.9 43.875C720.854 45.8802 718.484 48.8229 716.791 52.7031C715.124 56.5833 714.291 61.349 714.291 67C714.291 72.651 715.124 77.4167 716.791 81.2969C718.484 85.1771 720.854 88.1198 723.9 90.125C726.947 92.1302 730.515 93.1328 734.604 93.1328C738.692 93.1328 742.26 92.1302 745.307 90.125C748.354 88.1198 750.71 85.1771 752.377 81.2969C754.07 77.4167 754.916 72.651 754.916 67ZM788.959 108.016C786.381 108.016 784.167 107.104 782.318 105.281C780.495 103.432 779.584 101.219 779.584 98.6406C779.584 96.0885 780.495 93.901 782.318 92.0781C784.167 90.2552 786.381 89.3437 788.959 89.3437C791.459 89.3437 793.646 90.2552 795.521 92.0781C797.396 93.901 798.334 96.0885 798.334 98.6406C798.334 100.359 797.891 101.935 797.006 103.367C796.146 104.773 795.014 105.906 793.607 106.766C792.201 107.599 790.652 108.016 788.959 108.016Z"/>
</mask>
<path d="M58.0508 27L59.0037 26.6968L58.782 26H58.0508V27ZM77.3867 87.7812L76.4338 88.0844L76.6555 88.7812H77.3867V87.7812ZM78.1289 87.7812V88.7812H78.8597L79.0817 88.085L78.1289 87.7812ZM97.5039 27V26H96.7731L96.5511 26.6963L97.5039 27ZM116.254 27L117.199 27.3259L117.656 26H116.254V27ZM88.6758 107V108H89.3888L89.6212 107.326L88.6758 107ZM66.8789 107L65.9336 107.326L66.1662 108H66.8789V107ZM39.2617 27V26H37.8586L38.3165 27.3263L39.2617 27ZM57.0978 27.3032L76.4338 88.0844L78.3397 87.4781L59.0037 26.6968L57.0978 27.3032ZM77.3867 88.7812H78.1289V86.7812H77.3867V88.7812ZM79.0817 88.085L98.4567 27.3037L96.5511 26.6963L77.1761 87.4775L79.0817 88.085ZM97.5039 28H116.254V26H97.5039V28ZM115.309 26.6741L87.7304 106.674L89.6212 107.326L117.199 27.3259L115.309 26.6741ZM88.6758 106H66.8789V108H88.6758V106ZM67.8242 106.674L40.207 26.6737L38.3165 27.3263L65.9336 107.326L67.8242 106.674ZM39.2617 28H58.0508V26H39.2617V28ZM142.797 27H143.797V26H142.797V27ZM142.797 107V108H143.797V107H142.797ZM125.883 107H124.883V108H125.883V107ZM125.883 27V26H124.883V27H125.883ZM141.797 27V107H143.797V27H141.797ZM142.797 106H125.883V108H142.797V106ZM126.883 107V27H124.883V107H126.883ZM125.883 28H142.797V26H125.883V28ZM182.172 107H181.172V108H182.172V107ZM182.172 27V26H181.172V27H182.172ZM236.078 27H237.078V26H236.078V27ZM236.078 40.9453V41.9453H237.078V40.9453H236.078ZM199.086 40.9453V39.9453H198.086V40.9453H199.086ZM199.086 60.0078H198.086V61.0078H199.086V60.0078ZM233.305 60.0078H234.305V59.0078H233.305V60.0078ZM233.305 73.9531V74.9531H234.305V73.9531H233.305ZM199.086 73.9531V72.9531H198.086V73.9531H199.086ZM199.086 93.0547H198.086V94.0547H199.086V93.0547ZM236.234 93.0547H237.234V92.0547H236.234V93.0547ZM236.234 107V108H237.234V107H236.234ZM183.172 107V27H181.172V107H183.172ZM182.172 28H236.078V26H182.172V28ZM235.078 27V40.9453H237.078V27H235.078ZM236.078 39.9453H199.086V41.9453H236.078V39.9453ZM198.086 40.9453V60.0078H200.086V40.9453H198.086ZM199.086 61.0078H233.305V59.0078H199.086V61.0078ZM232.305 60.0078V73.9531H234.305V60.0078H232.305ZM233.305 72.9531H199.086V74.9531H233.305V72.9531ZM198.086 73.9531V93.0547H200.086V73.9531H198.086ZM199.086 94.0547H236.234V92.0547H199.086V94.0547ZM235.234 93.0547V107H237.234V93.0547H235.234ZM236.234 106H182.172V108H236.234V106ZM249.525 107H248.525V108H249.525V107ZM249.525 27V26H248.525V27H249.525ZM296.557 30.2422L296.105 31.1344L296.112 31.1377L296.557 30.2422ZM306.361 39.3438L305.492 39.8387L305.496 39.8455L306.361 39.3438ZM306.322 66.8438L307.179 67.36L307.18 67.3574L306.322 66.8438ZM296.361 75.5938L295.938 74.6877L295.936 74.6887L296.361 75.5938ZM259.525 78.6406H258.525V79.6406H259.525V78.6406ZM259.525 65.0469V64.0469H258.525V65.0469H259.525ZM285.971 63.7188L286.354 64.6425L285.971 63.7188ZM290.736 59.7344L289.88 59.218L289.874 59.2274L290.736 59.7344ZM290.736 46.4141L289.868 46.9102L289.873 46.9195L290.736 46.4141ZM285.932 42.2734L285.52 43.1849L285.527 43.1879L285.534 43.1909L285.932 42.2734ZM266.439 40.8281V39.8281H265.439V40.8281H266.439ZM266.439 107V108H267.439V107H266.439ZM292.729 70.5938L293.606 70.1144L293.322 69.5938H292.729V70.5938ZM312.611 107V108H314.297L313.489 106.521L312.611 107ZM293.939 107L293.057 107.471L293.34 108H293.939V107ZM274.486 70.5938V69.5938H272.818L273.604 71.065L274.486 70.5938ZM250.525 107V27H248.525V107H250.525ZM249.525 28H281.088V26H249.525V28ZM281.088 28C287.013 28 292.006 29.0599 296.105 31.1344L297.008 29.3499C292.566 27.1015 287.246 26 281.088 26V28ZM296.112 31.1377C300.242 33.1903 303.357 36.0897 305.492 39.8386L307.23 38.8489C304.886 34.7332 301.465 31.5649 297.002 29.3467L296.112 31.1377ZM305.496 39.8455C307.659 43.575 308.76 47.9922 308.76 53.1328H310.76C310.76 47.7005 309.594 42.925 307.226 38.842L305.496 39.8455ZM308.76 53.1328C308.76 58.2991 307.647 62.6845 305.464 66.3301L307.18 67.3574C309.581 63.3467 310.76 58.5915 310.76 53.1328H308.76ZM305.466 66.3275C303.285 69.9456 300.122 72.7333 295.938 74.6877L296.785 76.4998C301.298 74.3917 304.776 71.346 307.179 67.36L305.466 66.3275ZM295.936 74.6887C291.779 76.6422 286.698 77.6406 280.658 77.6406V79.6406C286.91 79.6406 292.298 78.6078 296.787 76.4988L295.936 74.6887ZM280.658 77.6406H259.525V79.6406H280.658V77.6406ZM260.525 78.6406V65.0469H258.525V78.6406H260.525ZM259.525 66.0469H277.924V64.0469H259.525V66.0469ZM277.924 66.0469C281.236 66.0469 284.059 65.594 286.354 64.6425L285.588 62.795C283.612 63.6143 281.07 64.0469 277.924 64.0469V66.0469ZM286.354 64.6425C288.663 63.6848 290.433 62.2227 291.598 60.2414L289.874 59.2274C288.957 60.7878 287.549 61.9819 285.588 62.795L286.354 64.6425ZM291.593 60.2507C292.777 58.287 293.338 55.8962 293.338 53.1328H291.338C291.338 55.6299 290.831 57.6401 289.88 59.218L291.593 60.2507ZM293.338 53.1328C293.338 50.344 292.777 47.9196 291.599 45.9087L289.873 46.9195C290.831 48.5543 291.338 50.6091 291.338 53.1328H293.338ZM291.605 45.9179C290.443 43.8848 288.664 42.3684 286.33 41.356L285.534 43.1909C287.522 44.0534 288.947 45.2975 289.868 46.9102L291.605 45.9179ZM286.343 41.3619C284.038 40.322 281.191 39.8281 277.846 39.8281V41.8281C281.011 41.8281 283.554 42.2978 285.52 43.1849L286.343 41.3619ZM277.846 39.8281H266.439V41.8281H277.846V39.8281ZM265.439 40.8281V107H267.439V40.8281H265.439ZM266.439 106H249.525V108H266.439V106ZM291.851 71.0731L311.734 107.479L313.489 106.521L293.606 70.1144L291.851 71.0731ZM312.611 106H293.939V108H312.611V106ZM294.821 106.529L275.368 70.1225L273.604 71.065L293.057 107.471L294.821 106.529ZM274.486 71.5938H292.729V69.5938H274.486V71.5938ZM346.312 107H345.312V108H346.312V107ZM346.312 96.9609L345.498 96.3806L345.312 96.6411V96.9609H346.312ZM386.234 40.9453L387.049 41.5257L388.175 39.9453H386.234V40.9453ZM346.234 40.9453H345.234V41.9453H346.234V40.9453ZM346.234 27V26H345.234V27H346.234ZM407.484 27H408.484V26H407.484V27ZM407.484 37.0391L408.298 37.6198L408.484 37.3592V37.0391H407.484ZM367.523 93.0547L366.709 92.4739L365.582 94.0547H367.523V93.0547ZM407.562 93.0547H408.562V92.0547H407.562V93.0547ZM407.562 107V108H408.562V107H407.562ZM347.312 107V96.9609H345.312V107H347.312ZM347.127 97.5413L387.049 41.5257L385.42 40.3649L345.498 96.3806L347.127 97.5413ZM386.234 39.9453H346.234V41.9453H386.234V39.9453ZM347.234 40.9453V27H345.234V40.9453H347.234ZM346.234 28H407.484V26H346.234V28ZM406.484 27V37.0391H408.484V27H406.484ZM406.67 36.4583L366.709 92.4739L368.338 93.6354L408.298 37.6198L406.67 36.4583ZM367.523 94.0547H407.562V92.0547H367.523V94.0547ZM406.562 93.0547V107H408.562V93.0547H406.562ZM407.562 106H346.312V108H407.562V106ZM420.541 107H419.541V108H420.541V107ZM420.541 27V26H419.541V27H420.541ZM474.447 27H475.447V26H474.447V27ZM474.447 40.9453V41.9453H475.447V40.9453H474.447ZM437.455 40.9453V39.9453H436.455V40.9453H437.455ZM437.455 60.0078H436.455V61.0078H437.455V60.0078ZM471.674 60.0078H472.674V59.0078H471.674V60.0078ZM471.674 73.9531V74.9531H472.674V73.9531H471.674ZM437.455 73.9531V72.9531H436.455V73.9531H437.455ZM437.455 93.0547H436.455V94.0547H437.455V93.0547ZM474.604 93.0547H475.604V92.0547H474.604V93.0547ZM474.604 107V108H475.604V107H474.604ZM421.541 107V27H419.541V107H421.541ZM420.541 28H474.447V26H420.541V28ZM473.447 27V40.9453H475.447V27H473.447ZM474.447 39.9453H437.455V41.9453H474.447V39.9453ZM436.455 40.9453V60.0078H438.455V40.9453H436.455ZM437.455 61.0078H471.674V59.0078H437.455V61.0078ZM470.674 60.0078V73.9531H472.674V60.0078H470.674ZM471.674 72.9531H437.455V74.9531H471.674V72.9531ZM436.455 73.9531V93.0547H438.455V73.9531H436.455ZM437.455 94.0547H474.604V92.0547H437.455V94.0547ZM473.604 93.0547V107H475.604V93.0547H473.604ZM474.604 106H420.541V108H474.604V106ZM487.895 107H486.895V108H487.895V107ZM487.895 27V26H486.895V27H487.895ZM504.809 27H505.809V26H504.809V27ZM504.809 93.0547H503.809V94.0547H504.809V93.0547ZM539.105 93.0547H540.105V92.0547H539.105V93.0547ZM539.105 107V108H540.105V107H539.105ZM488.895 107V27H486.895V107H488.895ZM487.895 28H504.809V26H487.895V28ZM503.809 27V93.0547H505.809V27H503.809ZM504.809 94.0547H539.105V92.0547H504.809V94.0547ZM538.105 93.0547V107H540.105V93.0547H538.105ZM539.105 106H487.895V108H539.105V106ZM550.307 107H549.307V108H550.307V107ZM550.307 27V26H549.307V27H550.307ZM604.213 27H605.213V26H604.213V27ZM604.213 40.9453V41.9453H605.213V40.9453H604.213ZM567.221 40.9453V39.9453H566.221V40.9453H567.221ZM567.221 60.0078H566.221V61.0078H567.221V60.0078ZM601.439 60.0078H602.439V59.0078H601.439V60.0078ZM601.439 73.9531V74.9531H602.439V73.9531H601.439ZM567.221 73.9531V72.9531H566.221V73.9531H567.221ZM567.221 93.0547H566.221V94.0547H567.221V93.0547ZM604.369 93.0547H605.369V92.0547H604.369V93.0547ZM604.369 107V108H605.369V107H604.369ZM551.307 107V27H549.307V107H551.307ZM550.307 28H604.213V26H550.307V28ZM603.213 27V40.9453H605.213V27H603.213ZM604.213 39.9453H567.221V41.9453H604.213V39.9453ZM566.221 40.9453V60.0078H568.221V40.9453H566.221ZM567.221 61.0078H601.439V59.0078H567.221V61.0078ZM600.439 60.0078V73.9531H602.439V60.0078H600.439ZM601.439 72.9531H567.221V74.9531H601.439V72.9531ZM566.221 73.9531V93.0547H568.221V73.9531H566.221ZM567.221 94.0547H604.369V92.0547H567.221V94.0547ZM603.369 93.0547V107H605.369V93.0547H603.369ZM604.369 106H550.307V108H604.369V106ZM684.574 27H685.574V26H684.574V27ZM684.574 107V108H685.574V107H684.574ZM669.965 107L669.142 107.569L669.44 108H669.965V107ZM635.16 56.6484L635.983 56.0798L635.685 55.6484H635.16V56.6484ZM634.574 56.6484V55.6484H633.574V56.6484H634.574ZM634.574 107V108H635.574V107H634.574ZM617.66 107H616.66V108H617.66V107ZM617.66 27V26H616.66V27H617.66ZM632.504 27L633.328 26.4341L633.03 26H632.504V27ZM667.035 77.3125L666.211 77.8784L666.509 78.3125H667.035V77.3125ZM667.738 77.3125V78.3125H668.738V77.3125H667.738ZM667.738 27V26H666.738V27H667.738ZM683.574 27V107H685.574V27H683.574ZM684.574 106H669.965V108H684.574V106ZM670.787 106.431L635.983 56.0798L634.338 57.217L669.142 107.569L670.787 106.431ZM635.16 55.6484H634.574V57.6484H635.16V55.6484ZM633.574 56.6484V107H635.574V56.6484H633.574ZM634.574 106H617.66V108H634.574V106ZM618.66 107V27H616.66V107H618.66ZM617.66 28H632.504V26H617.66V28ZM631.679 27.5659L666.211 77.8784L667.86 76.7466L633.328 26.4341L631.679 27.5659ZM667.035 78.3125H667.738V76.3125H667.035V78.3125ZM668.738 77.3125V27H666.738V77.3125H668.738ZM667.738 28H684.574V26H667.738V28ZM767.104 89.2656L766.224 88.7902L766.222 88.7931L767.104 89.2656ZM753.666 103.289L754.159 104.159L754.16 104.158L753.666 103.289ZM715.463 103.25L715.959 102.382L715.463 103.25ZM702.064 89.2266L701.183 89.6991L702.064 89.2266ZM702.064 44.7344L702.946 45.2069L702.064 44.7344ZM715.463 30.75L715.956 31.62L715.959 31.6182L715.463 30.75ZM753.666 30.75L753.17 31.6183L753.175 31.6209L753.666 30.75ZM767.104 44.7344L766.222 45.2069L766.224 45.2098L767.104 44.7344ZM752.377 52.7031L751.458 53.0978L751.46 53.103L752.377 52.7031ZM745.307 43.875L744.757 44.7103L745.307 43.875ZM723.9 43.875L724.45 44.7103L723.9 43.875ZM716.791 52.7031L715.874 52.3033L715.872 52.3085L716.791 52.7031ZM716.791 81.2969L715.872 81.6915L715.874 81.6967L716.791 81.2969ZM723.9 90.125L724.45 89.2897L723.9 90.125ZM745.307 90.125L744.757 89.2897L745.307 90.125ZM752.377 81.2969L751.46 80.897L751.458 80.9022L752.377 81.2969ZM771.064 67C771.064 75.5994 769.435 82.849 766.224 88.7902L767.983 89.7411C771.387 83.4427 773.064 75.8486 773.064 67H771.064ZM766.222 88.7931C763.024 94.7578 758.674 99.2898 753.172 102.42L754.16 104.158C760.012 100.83 764.62 96.013 767.985 89.7382L766.222 88.7931ZM753.173 102.419C747.685 105.53 741.503 107.094 734.604 107.094V109.094C741.818 109.094 748.345 107.455 754.159 104.159L753.173 102.419ZM734.604 107.094C727.652 107.094 721.445 105.517 715.959 102.382L714.967 104.118C720.783 107.442 727.337 109.094 734.604 109.094V107.094ZM715.959 102.382C710.482 99.252 706.145 94.7199 702.946 88.754L701.183 89.6991C704.547 95.9728 709.142 100.79 714.967 104.118L715.959 102.382ZM702.946 88.754C699.76 82.8118 698.143 75.5739 698.143 67H696.143C696.143 75.8219 697.807 83.4018 701.183 89.6991L702.946 88.754ZM698.143 67C698.143 58.3995 699.76 51.1488 702.946 45.2069L701.183 44.2618C697.807 50.5595 696.143 58.1526 696.143 67H698.143ZM702.946 45.2069C706.144 39.2416 710.481 34.7234 715.956 31.62L714.97 29.88C709.143 33.1828 704.547 37.9876 701.183 44.2618L702.946 45.2069ZM715.959 31.6182C721.445 28.4833 727.652 26.9062 734.604 26.9062V24.9062C727.337 24.9062 720.783 26.5584 714.967 29.8818L715.959 31.6182ZM734.604 26.9062C741.502 26.9062 747.683 28.4826 753.17 31.6182L754.162 29.8818C748.347 26.559 741.82 24.9062 734.604 24.9062V26.9062ZM753.175 31.6209C758.676 34.7247 763.024 39.2428 766.222 45.2069L767.985 44.2618C764.62 37.9864 760.01 33.1815 754.157 29.8791L753.175 31.6209ZM766.224 45.2098C769.435 51.151 771.064 58.4006 771.064 67H773.064C773.064 58.1514 771.387 50.5573 767.983 44.2589L766.224 45.2098ZM755.916 67C755.916 61.255 755.056 56.3443 753.294 52.3033L751.46 53.103C753.083 56.8224 753.916 61.4429 753.916 67H755.916ZM753.296 52.3085C751.564 48.2775 749.091 45.1687 745.856 43.0397L744.757 44.7103C747.616 46.5918 749.856 49.3683 751.458 53.0978L753.296 52.3085ZM745.856 43.0397C742.627 40.9143 738.863 39.8672 734.604 39.8672V41.8672C738.521 41.8672 741.893 42.8252 744.757 44.7103L745.856 43.0397ZM734.604 39.8672C730.344 39.8672 726.58 40.9143 723.351 43.0397L724.45 44.7103C727.315 42.8252 730.686 41.8672 734.604 41.8672V39.8672ZM723.351 43.0397C720.117 45.1677 717.632 48.2746 715.874 52.3033L717.708 53.103C719.336 49.3712 721.59 46.5927 724.45 44.7103L723.351 43.0397ZM715.872 52.3085C714.137 56.3479 713.291 61.2567 713.291 67H715.291C715.291 61.4413 716.112 56.8188 717.71 53.0978L715.872 52.3085ZM713.291 67C713.291 72.7433 714.137 77.6521 715.872 81.6915L717.71 80.9022C716.112 77.1812 715.291 72.5587 715.291 67H713.291ZM715.874 81.6967C717.632 85.7254 720.117 88.8323 723.351 90.9603L724.45 89.2897C721.59 87.4073 719.336 84.6288 717.708 80.897L715.874 81.6967ZM723.351 90.9603C726.58 93.0857 730.344 94.1328 734.604 94.1328V92.1328C730.686 92.1328 727.315 91.1748 724.45 89.2897L723.351 90.9603ZM734.604 94.1328C738.863 94.1328 742.627 93.0857 745.856 90.9603L744.757 89.2897C741.893 91.1748 738.521 92.1328 734.604 92.1328V94.1328ZM745.856 90.9603C749.091 88.8313 751.564 85.7225 753.296 81.6915L751.458 80.9022C749.856 84.6317 747.616 87.4082 744.757 89.2897L745.856 90.9603ZM753.294 81.6967C755.056 77.6557 755.916 72.745 755.916 67H753.916C753.916 72.5571 753.083 77.1776 751.46 80.897L753.294 81.6967ZM782.318 105.281L781.606 105.983L781.611 105.988L781.616 105.993L782.318 105.281ZM782.318 92.0781L781.616 91.366L781.611 91.371L782.318 92.0781ZM795.521 92.0781L794.824 92.7951L795.521 92.0781ZM797.006 103.367L796.155 102.841L796.153 102.846L797.006 103.367ZM793.607 106.766L794.117 107.626L794.129 107.619L793.607 106.766ZM788.959 107.016C786.646 107.016 784.684 106.209 783.02 104.569L781.616 105.993C783.651 107.999 786.116 109.016 788.959 109.016V107.016ZM783.03 104.579C781.391 102.916 780.584 100.954 780.584 98.6406H778.584C778.584 101.484 779.6 103.949 781.606 105.983L783.03 104.579ZM780.584 98.6406C780.584 96.3568 781.388 94.4228 783.025 92.7852L781.611 91.371C779.603 93.3793 778.584 95.8203 778.584 98.6406H780.584ZM783.02 92.7902C784.684 91.1503 786.646 90.3438 788.959 90.3438V88.3438C786.116 88.3438 783.651 89.3601 781.616 91.366L783.02 92.7902ZM788.959 90.3438C791.186 90.3438 793.127 91.1444 794.824 92.7951L796.219 91.3611C794.166 89.366 791.732 88.3438 788.959 88.3438V90.3438ZM794.824 92.7951C796.511 94.435 797.334 96.3661 797.334 98.6406H799.334C799.334 95.811 798.282 93.3671 796.219 91.3611L794.824 92.7951ZM797.334 98.6406C797.334 100.178 796.941 101.57 796.155 102.841L797.856 103.893C798.842 102.299 799.334 100.541 799.334 98.6406H797.334ZM796.153 102.846C795.376 104.117 794.357 105.136 793.086 105.912L794.129 107.619C795.67 106.677 796.917 105.43 797.859 103.889L796.153 102.846ZM793.098 105.905C791.851 106.644 790.479 107.016 788.959 107.016V109.016C790.824 109.016 792.551 108.554 794.117 107.626L793.098 105.905Z" fill="#FF5C00" mask="url(#path-1-outside-1_464_1115)"/>
<path d="M88.5508 60L107.887 120.781H108.629L128.004 60H146.754L119.176 140H97.3789L69.7617 60H88.5508ZM173.297 60V140H156.383V60H173.297ZM212.672 140V60H266.578V73.9453H229.586V93.0078H263.805V106.953H229.586V126.055H266.734V140H212.672ZM280.025 140V60H311.588C317.63 60 322.786 61.0807 327.057 63.2422C331.354 65.3776 334.622 68.4115 336.861 72.3438C339.127 76.25 340.26 80.8464 340.26 86.1328C340.26 91.4453 339.114 96.0156 336.822 99.8437C334.531 103.646 331.21 106.562 326.861 108.594C322.538 110.625 317.304 111.641 311.158 111.641H290.025V98.0469H308.424C311.653 98.0469 314.335 97.6042 316.471 96.7188C318.606 95.8333 320.195 94.5052 321.236 92.7344C322.304 90.9635 322.838 88.763 322.838 86.1328C322.838 83.4766 322.304 81.237 321.236 79.4141C320.195 77.5911 318.593 76.2109 316.432 75.2734C314.296 74.3099 311.601 73.8281 308.346 73.8281H296.939V140H280.025ZM323.229 103.594L343.111 140H324.439L304.986 103.594H323.229ZM376.813 140V129.961L416.734 73.9453H376.734V60H437.984V70.0391L398.023 126.055H438.063V140H376.813ZM451.041 140V60H504.947V73.9453H467.955V93.0078H502.174V106.953H467.955V126.055H505.104V140H451.041ZM518.395 140V60H535.309V126.055H569.605V140H518.395ZM580.807 140V60H634.713V73.9453H597.721V93.0078H631.939V106.953H597.721V126.055H634.869V140H580.807ZM715.074 60V140H700.465L665.66 89.6484H665.074V140H648.16V60H663.004L697.535 110.312H698.238V60H715.074ZM802.564 100C802.564 108.724 800.911 116.146 797.604 122.266C794.322 128.385 789.843 133.06 784.166 136.289C778.515 139.492 772.161 141.094 765.104 141.094C757.994 141.094 751.614 139.479 745.963 136.25C740.312 133.021 735.846 128.346 732.564 122.227C729.283 116.107 727.643 108.698 727.643 100C727.643 91.276 729.283 83.8542 732.564 77.7344C735.846 71.6146 740.312 66.9531 745.963 63.75C751.614 60.5208 757.994 58.9062 765.104 58.9062C772.161 58.9062 778.515 60.5208 784.166 63.75C789.843 66.9531 794.322 71.6146 797.604 77.7344C800.911 83.8542 802.564 91.276 802.564 100ZM785.416 100C785.416 94.349 784.57 89.5833 782.877 85.7031C781.21 81.8229 778.854 78.8802 775.807 76.875C772.76 74.8698 769.192 73.8672 765.104 73.8672C761.015 73.8672 757.447 74.8698 754.4 76.875C751.354 78.8802 748.984 81.8229 747.291 85.7031C745.624 89.5833 744.791 94.349 744.791 100C744.791 105.651 745.624 110.417 747.291 114.297C748.984 118.177 751.354 121.12 754.4 123.125C757.447 125.13 761.015 126.133 765.104 126.133C769.192 126.133 772.76 125.13 775.807 123.125C778.854 121.12 781.21 118.177 782.877 114.297C784.57 110.417 785.416 105.651 785.416 100ZM819.459 141.016C816.881 141.016 814.667 140.104 812.818 138.281C810.995 136.432 810.084 134.219 810.084 131.641C810.084 129.089 810.995 126.901 812.818 125.078C814.667 123.255 816.881 122.344 819.459 122.344C821.959 122.344 824.146 123.255 826.021 125.078C827.896 126.901 828.834 129.089 828.834 131.641C828.834 133.359 828.391 134.935 827.506 136.367C826.646 137.773 825.514 138.906 824.107 139.766C822.701 140.599 821.152 141.016 819.459 141.016Z" fill="#ACACAC" fill-opacity="0.69"/>
<mask id="path-4-outside-2_464_1115" maskUnits="userSpaceOnUse" x="98" y="90" width="763" height="86" fill="black">
<rect fill="white" x="98" y="90" width="763" height="86"/>
<path d="M119.051 93L138.387 153.781H139.129L158.504 93H177.254L149.676 173H127.879L100.262 93H119.051ZM203.797 93V173H186.883V93H203.797ZM243.172 173V93H297.078V106.945H260.086V126.008H294.305V139.953H260.086V159.055H297.234V173H243.172ZM310.525 173V93H342.088C348.13 93 353.286 94.0807 357.557 96.2422C361.854 98.3776 365.122 101.411 367.361 105.344C369.627 109.25 370.76 113.846 370.76 119.133C370.76 124.445 369.614 129.016 367.322 132.844C365.031 136.646 361.71 139.562 357.361 141.594C353.038 143.625 347.804 144.641 341.658 144.641H320.525V131.047H338.924C342.153 131.047 344.835 130.604 346.971 129.719C349.106 128.833 350.695 127.505 351.736 125.734C352.804 123.964 353.338 121.763 353.338 119.133C353.338 116.477 352.804 114.237 351.736 112.414C350.695 110.591 349.093 109.211 346.932 108.273C344.796 107.31 342.101 106.828 338.846 106.828H327.439V173H310.525ZM353.729 136.594L373.611 173H354.939L335.486 136.594H353.729ZM407.313 173V162.961L447.234 106.945H407.234V93H468.484V103.039L428.523 159.055H468.563V173H407.313ZM481.541 173V93H535.447V106.945H498.455V126.008H532.674V139.953H498.455V159.055H535.604V173H481.541ZM548.895 173V93H565.809V159.055H600.105V173H548.895ZM611.307 173V93H665.213V106.945H628.221V126.008H662.439V139.953H628.221V159.055H665.369V173H611.307ZM745.574 93V173H730.965L696.16 122.648H695.574V173H678.66V93H693.504L728.035 143.312H728.738V93H745.574ZM833.064 133C833.064 141.724 831.411 149.146 828.104 155.266C824.822 161.385 820.343 166.06 814.666 169.289C809.015 172.492 802.661 174.094 795.604 174.094C788.494 174.094 782.114 172.479 776.463 169.25C770.812 166.021 766.346 161.346 763.064 155.227C759.783 149.107 758.143 141.698 758.143 133C758.143 124.276 759.783 116.854 763.064 110.734C766.346 104.615 770.812 99.9531 776.463 96.75C782.114 93.5208 788.494 91.9062 795.604 91.9062C802.661 91.9062 809.015 93.5208 814.666 96.75C820.343 99.9531 824.822 104.615 828.104 110.734C831.411 116.854 833.064 124.276 833.064 133ZM815.916 133C815.916 127.349 815.07 122.583 813.377 118.703C811.71 114.823 809.354 111.88 806.307 109.875C803.26 107.87 799.692 106.867 795.604 106.867C791.515 106.867 787.947 107.87 784.9 109.875C781.854 111.88 779.484 114.823 777.791 118.703C776.124 122.583 775.291 127.349 775.291 133C775.291 138.651 776.124 143.417 777.791 147.297C779.484 151.177 781.854 154.12 784.9 156.125C787.947 158.13 791.515 159.133 795.604 159.133C799.692 159.133 803.26 158.13 806.307 156.125C809.354 154.12 811.71 151.177 813.377 147.297C815.07 143.417 815.916 138.651 815.916 133ZM849.959 174.016C847.381 174.016 845.167 173.104 843.318 171.281C841.495 169.432 840.584 167.219 840.584 164.641C840.584 162.089 841.495 159.901 843.318 158.078C845.167 156.255 847.381 155.344 849.959 155.344C852.459 155.344 854.646 156.255 856.521 158.078C858.396 159.901 859.334 162.089 859.334 164.641C859.334 166.359 858.891 167.935 858.006 169.367C857.146 170.773 856.014 171.906 854.607 172.766C853.201 173.599 851.652 174.016 849.959 174.016Z"/>
</mask>
<path d="M119.051 93L120.004 92.6968L119.782 92H119.051V93ZM138.387 153.781L137.434 154.084L137.655 154.781H138.387V153.781ZM139.129 153.781V154.781H139.86L140.082 154.085L139.129 153.781ZM158.504 93V92H157.773L157.551 92.6963L158.504 93ZM177.254 93L178.199 93.3259L178.656 92H177.254V93ZM149.676 173V174H150.389L150.621 173.326L149.676 173ZM127.879 173L126.934 173.326L127.166 174H127.879V173ZM100.262 93V92H98.8586L99.3165 93.3263L100.262 93ZM118.098 93.3032L137.434 154.084L139.34 153.478L120.004 92.6968L118.098 93.3032ZM138.387 154.781H139.129V152.781H138.387V154.781ZM140.082 154.085L159.457 93.3037L157.551 92.6963L138.176 153.478L140.082 154.085ZM158.504 94H177.254V92H158.504V94ZM176.309 92.6741L148.73 172.674L150.621 173.326L178.199 93.3259L176.309 92.6741ZM149.676 172H127.879V174H149.676V172ZM128.824 172.674L101.207 92.6737L99.3165 93.3263L126.934 173.326L128.824 172.674ZM100.262 94H119.051V92H100.262V94ZM203.797 93H204.797V92H203.797V93ZM203.797 173V174H204.797V173H203.797ZM186.883 173H185.883V174H186.883V173ZM186.883 93V92H185.883V93H186.883ZM202.797 93V173H204.797V93H202.797ZM203.797 172H186.883V174H203.797V172ZM187.883 173V93H185.883V173H187.883ZM186.883 94H203.797V92H186.883V94ZM243.172 173H242.172V174H243.172V173ZM243.172 93V92H242.172V93H243.172ZM297.078 93H298.078V92H297.078V93ZM297.078 106.945V107.945H298.078V106.945H297.078ZM260.086 106.945V105.945H259.086V106.945H260.086ZM260.086 126.008H259.086V127.008H260.086V126.008ZM294.305 126.008H295.305V125.008H294.305V126.008ZM294.305 139.953V140.953H295.305V139.953H294.305ZM260.086 139.953V138.953H259.086V139.953H260.086ZM260.086 159.055H259.086V160.055H260.086V159.055ZM297.234 159.055H298.234V158.055H297.234V159.055ZM297.234 173V174H298.234V173H297.234ZM244.172 173V93H242.172V173H244.172ZM243.172 94H297.078V92H243.172V94ZM296.078 93V106.945H298.078V93H296.078ZM297.078 105.945H260.086V107.945H297.078V105.945ZM259.086 106.945V126.008H261.086V106.945H259.086ZM260.086 127.008H294.305V125.008H260.086V127.008ZM293.305 126.008V139.953H295.305V126.008H293.305ZM294.305 138.953H260.086V140.953H294.305V138.953ZM259.086 139.953V159.055H261.086V139.953H259.086ZM260.086 160.055H297.234V158.055H260.086V160.055ZM296.234 159.055V173H298.234V159.055H296.234ZM297.234 172H243.172V174H297.234V172ZM310.525 173H309.525V174H310.525V173ZM310.525 93V92H309.525V93H310.525ZM357.557 96.2422L357.105 97.1344L357.112 97.1377L357.557 96.2422ZM367.361 105.344L366.492 105.839L366.496 105.845L367.361 105.344ZM367.322 132.844L368.179 133.36L368.18 133.357L367.322 132.844ZM357.361 141.594L356.938 140.688L356.936 140.689L357.361 141.594ZM320.525 144.641H319.525V145.641H320.525V144.641ZM320.525 131.047V130.047H319.525V131.047H320.525ZM346.971 129.719L347.354 130.642L346.971 129.719ZM351.736 125.734L350.88 125.218L350.874 125.227L351.736 125.734ZM351.736 112.414L350.868 112.91L350.873 112.919L351.736 112.414ZM346.932 108.273L346.52 109.185L346.527 109.188L346.534 109.191L346.932 108.273ZM327.439 106.828V105.828H326.439V106.828H327.439ZM327.439 173V174H328.439V173H327.439ZM353.729 136.594L354.606 136.114L354.322 135.594H353.729V136.594ZM373.611 173V174H375.297L374.489 172.521L373.611 173ZM354.939 173L354.057 173.471L354.34 174H354.939V173ZM335.486 136.594V135.594H333.818L334.604 137.065L335.486 136.594ZM311.525 173V93H309.525V173H311.525ZM310.525 94H342.088V92H310.525V94ZM342.088 94C348.013 94 353.006 95.0599 357.105 97.1344L358.008 95.3499C353.566 93.1015 348.246 92 342.088 92V94ZM357.112 97.1377C361.242 99.1903 364.357 102.09 366.492 105.839L368.23 104.849C365.886 100.733 362.465 97.5649 358.002 95.3467L357.112 97.1377ZM366.496 105.845C368.659 109.575 369.76 113.992 369.76 119.133H371.76C371.76 113.7 370.594 108.925 368.226 104.842L366.496 105.845ZM369.76 119.133C369.76 124.299 368.647 128.685 366.464 132.33L368.18 133.357C370.581 129.347 371.76 124.591 371.76 119.133H369.76ZM366.466 132.328C364.285 135.946 361.122 138.733 356.938 140.688L357.785 142.5C362.298 140.392 365.776 137.346 368.179 133.36L366.466 132.328ZM356.936 140.689C352.779 142.642 347.698 143.641 341.658 143.641V145.641C347.91 145.641 353.298 144.608 357.787 142.499L356.936 140.689ZM341.658 143.641H320.525V145.641H341.658V143.641ZM321.525 144.641V131.047H319.525V144.641H321.525ZM320.525 132.047H338.924V130.047H320.525V132.047ZM338.924 132.047C342.236 132.047 345.059 131.594 347.354 130.642L346.588 128.795C344.612 129.614 342.07 130.047 338.924 130.047V132.047ZM347.354 130.642C349.663 129.685 351.433 128.223 352.598 126.241L350.874 125.227C349.957 126.788 348.549 127.982 346.588 128.795L347.354 130.642ZM352.593 126.251C353.777 124.287 354.338 121.896 354.338 119.133H352.338C352.338 121.63 351.831 123.64 350.88 125.218L352.593 126.251ZM354.338 119.133C354.338 116.344 353.777 113.92 352.599 111.909L350.873 112.919C351.831 114.554 352.338 116.609 352.338 119.133H354.338ZM352.605 111.918C351.443 109.885 349.664 108.368 347.33 107.356L346.534 109.191C348.522 110.053 349.947 111.298 350.868 112.91L352.605 111.918ZM347.343 107.362C345.038 106.322 342.191 105.828 338.846 105.828V107.828C342.011 107.828 344.554 108.298 346.52 109.185L347.343 107.362ZM338.846 105.828H327.439V107.828H338.846V105.828ZM326.439 106.828V173H328.439V106.828H326.439ZM327.439 172H310.525V174H327.439V172ZM352.851 137.073L372.734 173.479L374.489 172.521L354.606 136.114L352.851 137.073ZM373.611 172H354.939V174H373.611V172ZM355.821 172.529L336.368 136.122L334.604 137.065L354.057 173.471L355.821 172.529ZM335.486 137.594H353.729V135.594H335.486V137.594ZM407.312 173H406.312V174H407.312V173ZM407.312 162.961L406.498 162.381L406.312 162.641V162.961H407.312ZM447.234 106.945L448.049 107.526L449.175 105.945H447.234V106.945ZM407.234 106.945H406.234V107.945H407.234V106.945ZM407.234 93V92H406.234V93H407.234ZM468.484 93H469.484V92H468.484V93ZM468.484 103.039L469.298 103.62L469.484 103.359V103.039H468.484ZM428.523 159.055L427.709 158.474L426.582 160.055H428.523V159.055ZM468.562 159.055H469.562V158.055H468.562V159.055ZM468.562 173V174H469.562V173H468.562ZM408.312 173V162.961H406.312V173H408.312ZM408.127 163.541L448.049 107.526L446.42 106.365L406.498 162.381L408.127 163.541ZM447.234 105.945H407.234V107.945H447.234V105.945ZM408.234 106.945V93H406.234V106.945H408.234ZM407.234 94H468.484V92H407.234V94ZM467.484 93V103.039H469.484V93H467.484ZM467.67 102.458L427.709 158.474L429.338 159.635L469.298 103.62L467.67 102.458ZM428.523 160.055H468.562V158.055H428.523V160.055ZM467.562 159.055V173H469.562V159.055H467.562ZM468.562 172H407.312V174H468.562V172ZM481.541 173H480.541V174H481.541V173ZM481.541 93V92H480.541V93H481.541ZM535.447 93H536.447V92H535.447V93ZM535.447 106.945V107.945H536.447V106.945H535.447ZM498.455 106.945V105.945H497.455V106.945H498.455ZM498.455 126.008H497.455V127.008H498.455V126.008ZM532.674 126.008H533.674V125.008H532.674V126.008ZM532.674 139.953V140.953H533.674V139.953H532.674ZM498.455 139.953V138.953H497.455V139.953H498.455ZM498.455 159.055H497.455V160.055H498.455V159.055ZM535.604 159.055H536.604V158.055H535.604V159.055ZM535.604 173V174H536.604V173H535.604ZM482.541 173V93H480.541V173H482.541ZM481.541 94H535.447V92H481.541V94ZM534.447 93V106.945H536.447V93H534.447ZM535.447 105.945H498.455V107.945H535.447V105.945ZM497.455 106.945V126.008H499.455V106.945H497.455ZM498.455 127.008H532.674V125.008H498.455V127.008ZM531.674 126.008V139.953H533.674V126.008H531.674ZM532.674 138.953H498.455V140.953H532.674V138.953ZM497.455 139.953V159.055H499.455V139.953H497.455ZM498.455 160.055H535.604V158.055H498.455V160.055ZM534.604 159.055V173H536.604V159.055H534.604ZM535.604 172H481.541V174H535.604V172ZM548.895 173H547.895V174H548.895V173ZM548.895 93V92H547.895V93H548.895ZM565.809 93H566.809V92H565.809V93ZM565.809 159.055H564.809V160.055H565.809V159.055ZM600.105 159.055H601.105V158.055H600.105V159.055ZM600.105 173V174H601.105V173H600.105ZM549.895 173V93H547.895V173H549.895ZM548.895 94H565.809V92H548.895V94ZM564.809 93V159.055H566.809V93H564.809ZM565.809 160.055H600.105V158.055H565.809V160.055ZM599.105 159.055V173H601.105V159.055H599.105ZM600.105 172H548.895V174H600.105V172ZM611.307 173H610.307V174H611.307V173ZM611.307 93V92H610.307V93H611.307ZM665.213 93H666.213V92H665.213V93ZM665.213 106.945V107.945H666.213V106.945H665.213ZM628.221 106.945V105.945H627.221V106.945H628.221ZM628.221 126.008H627.221V127.008H628.221V126.008ZM662.439 126.008H663.439V125.008H662.439V126.008ZM662.439 139.953V140.953H663.439V139.953H662.439ZM628.221 139.953V138.953H627.221V139.953H628.221ZM628.221 159.055H627.221V160.055H628.221V159.055ZM665.369 159.055H666.369V158.055H665.369V159.055ZM665.369 173V174H666.369V173H665.369ZM612.307 173V93H610.307V173H612.307ZM611.307 94H665.213V92H611.307V94ZM664.213 93V106.945H666.213V93H664.213ZM665.213 105.945H628.221V107.945H665.213V105.945ZM627.221 106.945V126.008H629.221V106.945H627.221ZM628.221 127.008H662.439V125.008H628.221V127.008ZM661.439 126.008V139.953H663.439V126.008H661.439ZM662.439 138.953H628.221V140.953H662.439V138.953ZM627.221 139.953V159.055H629.221V139.953H627.221ZM628.221 160.055H665.369V158.055H628.221V160.055ZM664.369 159.055V173H666.369V159.055H664.369ZM665.369 172H611.307V174H665.369V172ZM745.574 93H746.574V92H745.574V93ZM745.574 173V174H746.574V173H745.574ZM730.965 173L730.142 173.569L730.44 174H730.965V173ZM696.16 122.648L696.983 122.08L696.685 121.648H696.16V122.648ZM695.574 122.648V121.648H694.574V122.648H695.574ZM695.574 173V174H696.574V173H695.574ZM678.66 173H677.66V174H678.66V173ZM678.66 93V92H677.66V93H678.66ZM693.504 93L694.328 92.4341L694.03 92H693.504V93ZM728.035 143.312L727.211 143.878L727.509 144.312H728.035V143.312ZM728.738 143.312V144.312H729.738V143.312H728.738ZM728.738 93V92H727.738V93H728.738ZM744.574 93V173H746.574V93H744.574ZM745.574 172H730.965V174H745.574V172ZM731.787 172.431L696.983 122.08L695.338 123.217L730.142 173.569L731.787 172.431ZM696.16 121.648H695.574V123.648H696.16V121.648ZM694.574 122.648V173H696.574V122.648H694.574ZM695.574 172H678.66V174H695.574V172ZM679.66 173V93H677.66V173H679.66ZM678.66 94H693.504V92H678.66V94ZM692.679 93.5659L727.211 143.878L728.86 142.747L694.328 92.4341L692.679 93.5659ZM728.035 144.312H728.738V142.312H728.035V144.312ZM729.738 143.312V93H727.738V143.312H729.738ZM728.738 94H745.574V92H728.738V94ZM828.104 155.266L827.224 154.79L827.222 154.793L828.104 155.266ZM814.666 169.289L815.159 170.159L815.16 170.158L814.666 169.289ZM776.463 169.25L776.959 168.382L776.463 169.25ZM763.064 155.227L762.183 155.699L763.064 155.227ZM763.064 110.734L763.946 111.207L763.064 110.734ZM776.463 96.75L776.956 97.62L776.959 97.6182L776.463 96.75ZM814.666 96.75L814.17 97.6183L814.175 97.6209L814.666 96.75ZM828.104 110.734L827.222 111.207L827.224 111.21L828.104 110.734ZM813.377 118.703L812.458 119.098L812.46 119.103L813.377 118.703ZM806.307 109.875L805.757 110.71L806.307 109.875ZM784.9 109.875L785.45 110.71L784.9 109.875ZM777.791 118.703L776.874 118.303L776.872 118.308L777.791 118.703ZM777.791 147.297L776.872 147.692L776.874 147.697L777.791 147.297ZM784.9 156.125L785.45 155.29L784.9 156.125ZM806.307 156.125L805.757 155.29L806.307 156.125ZM813.377 147.297L812.46 146.897L812.458 146.902L813.377 147.297ZM832.064 133C832.064 141.599 830.435 148.849 827.224 154.79L828.983 155.741C832.387 149.443 834.064 141.849 834.064 133H832.064ZM827.222 154.793C824.024 160.758 819.674 165.29 814.172 168.42L815.16 170.158C821.012 166.83 825.62 162.013 828.985 155.738L827.222 154.793ZM814.173 168.419C808.685 171.53 802.503 173.094 795.604 173.094V175.094C802.818 175.094 809.345 173.455 815.159 170.159L814.173 168.419ZM795.604 173.094C788.652 173.094 782.445 171.517 776.959 168.382L775.967 170.118C781.783 173.442 788.337 175.094 795.604 175.094V173.094ZM776.959 168.382C771.482 165.252 767.145 160.72 763.946 154.754L762.183 155.699C765.547 161.973 770.142 166.79 775.967 170.118L776.959 168.382ZM763.946 154.754C760.76 148.812 759.143 141.574 759.143 133H757.143C757.143 141.822 758.807 149.402 762.183 155.699L763.946 154.754ZM759.143 133C759.143 124.399 760.76 117.149 763.946 111.207L762.183 110.262C758.807 116.56 757.143 124.153 757.143 133H759.143ZM763.946 111.207C767.144 105.242 771.481 100.723 776.956 97.62L775.97 95.88C770.143 99.1828 765.547 103.988 762.183 110.262L763.946 111.207ZM776.959 97.6182C782.445 94.4833 788.652 92.9062 795.604 92.9062V90.9062C788.337 90.9062 781.783 92.5584 775.967 95.8818L776.959 97.6182ZM795.604 92.9062C802.502 92.9062 808.683 94.4826 814.17 97.6182L815.162 95.8818C809.347 92.559 802.82 90.9062 795.604 90.9062V92.9062ZM814.175 97.6209C819.676 100.725 824.024 105.243 827.222 111.207L828.985 110.262C825.62 103.986 821.01 99.1815 815.157 95.8791L814.175 97.6209ZM827.224 111.21C830.435 117.151 832.064 124.401 832.064 133H834.064C834.064 124.151 832.387 116.557 828.983 110.259L827.224 111.21ZM816.916 133C816.916 127.255 816.056 122.344 814.294 118.303L812.46 119.103C814.083 122.822 814.916 127.443 814.916 133H816.916ZM814.296 118.308C812.564 114.277 810.091 111.169 806.856 109.04L805.757 110.71C808.616 112.592 810.856 115.368 812.458 119.098L814.296 118.308ZM806.856 109.04C803.627 106.914 799.863 105.867 795.604 105.867V107.867C799.521 107.867 802.893 108.825 805.757 110.71L806.856 109.04ZM795.604 105.867C791.344 105.867 787.58 106.914 784.351 109.04L785.45 110.71C788.315 108.825 791.686 107.867 795.604 107.867V105.867ZM784.351 109.04C781.117 111.168 778.632 114.275 776.874 118.303L778.708 119.103C780.336 115.371 782.59 112.593 785.45 110.71L784.351 109.04ZM776.872 118.308C775.137 122.348 774.291 127.257 774.291 133H776.291C776.291 127.441 777.112 122.819 778.71 119.098L776.872 118.308ZM774.291 133C774.291 138.743 775.137 143.652 776.872 147.692L778.71 146.902C777.112 143.181 776.291 138.559 776.291 133H774.291ZM776.874 147.697C778.632 151.725 781.117 154.832 784.351 156.96L785.45 155.29C782.59 153.407 780.336 150.629 778.708 146.897L776.874 147.697ZM784.351 156.96C787.58 159.086 791.344 160.133 795.604 160.133V158.133C791.686 158.133 788.315 157.175 785.45 155.29L784.351 156.96ZM795.604 160.133C799.863 160.133 803.627 159.086 806.856 156.96L805.757 155.29C802.893 157.175 799.521 158.133 795.604 158.133V160.133ZM806.856 156.96C810.091 154.831 812.564 151.723 814.296 147.692L812.458 146.902C810.856 150.632 808.616 153.408 805.757 155.29L806.856 156.96ZM814.294 147.697C816.056 143.656 816.916 138.745 816.916 133H814.916C814.916 138.557 814.083 143.178 812.46 146.897L814.294 147.697ZM843.318 171.281L842.606 171.983L842.611 171.988L842.616 171.993L843.318 171.281ZM843.318 158.078L842.616 157.366L842.611 157.371L843.318 158.078ZM856.521 158.078L855.824 158.795L856.521 158.078ZM858.006 169.367L857.155 168.841L857.153 168.846L858.006 169.367ZM854.607 172.766L855.117 173.626L855.129 173.619L854.607 172.766ZM849.959 173.016C847.646 173.016 845.684 172.209 844.02 170.569L842.616 171.993C844.651 173.999 847.116 175.016 849.959 175.016V173.016ZM844.03 170.579C842.391 168.916 841.584 166.954 841.584 164.641H839.584C839.584 167.484 840.6 169.949 842.606 171.983L844.03 170.579ZM841.584 164.641C841.584 162.357 842.388 160.423 844.025 158.785L842.611 157.371C840.603 159.379 839.584 161.82 839.584 164.641H841.584ZM844.02 158.79C845.684 157.15 847.646 156.344 849.959 156.344V154.344C847.116 154.344 844.651 155.36 842.616 157.366L844.02 158.79ZM849.959 156.344C852.186 156.344 854.127 157.144 855.824 158.795L857.219 157.361C855.166 155.366 852.732 154.344 849.959 154.344V156.344ZM855.824 158.795C857.511 160.435 858.334 162.366 858.334 164.641H860.334C860.334 161.811 859.282 159.367 857.219 157.361L855.824 158.795ZM858.334 164.641C858.334 166.178 857.941 167.57 857.155 168.841L858.856 169.893C859.842 168.299 860.334 166.541 860.334 164.641H858.334ZM857.153 168.846C856.376 170.117 855.357 171.136 854.086 171.912L855.129 173.619C856.67 172.677 857.917 171.43 858.859 169.889L857.153 168.846ZM854.098 171.905C852.851 172.644 851.479 173.016 849.959 173.016V175.016C851.824 175.016 853.551 174.554 855.117 173.626L854.098 171.905Z" fill="#69E48C" mask="url(#path-4-outside-2_464_1115)"/>
</svg>
